<svg xmlns="http://www.w3.org/2000/svg" id="Layer_1" data-name="Layer 1" viewBox="0 0 249.45 167.24">
  <defs>
    <style>
      .cls-1 { fill: #117741; } .cls-2 { fill: #ed2576; } .cls-11, .cls-14, .cls-17, .cls-23, .cls-24, .cls-26, .cls-3, .cls-31, .cls-36, .cls-37, .cls-4, .cls-42, .cls-5 { fill: none; } .cls-14, .cls-17, .cls-3, .cls-39, .cls-4, .cls-5 { stroke: #231f20; } .cls-11, .cls-24, .cls-3, .cls-36, .cls-37, .cls-39, .cls-4, .cls-5 { stroke-linecap: round; } .cls-11, .cls-24, .cls-3, .cls-37, .cls-39, .cls-4, .cls-5 { stroke-linejoin: round; } .cls-11, .cls-14, .cls-3, .cls-31 { stroke-width: 1.5px; } .cls-26, .cls-5 { stroke-width: 0.75px; } .cls-6 { fill: #505ea8; } .cls-7 { fill: #3e499e; } .cls-8 { fill: #c41f44; } .cls-9 { fill: #07a54e; } .cls-10 { fill: #f7d237; } .cls-11, .cls-23, .cls-24, .cls-26, .cls-31, .cls-36, .cls-42 { stroke: #211f1f; } .cls-12 { fill: #f28e4e; } .cls-13 { fill: #1a5c34; } .cls-14, .cls-17, .cls-23, .cls-26, .cls-31, .cls-36, .cls-42 { stroke-miterlimit: 10; } .cls-15 { fill: #2b4431; } .cls-16 { fill: #727630; } .cls-18 { fill: #9e9e71; } .cls-19 { fill: #6d673c; } .cls-20 { fill: #2d9245; } .cls-21 { fill: #723f19; } .cls-22 { fill: #e9cf9c; } .cls-24, .cls-42 { stroke-width: 0.5px; } .cls-25 { fill: #efdbaf; } .cls-27 { fill: #5f286b; } .cls-28 { fill: #88a576; } .cls-29 { fill: #231f20; } .cls-30 { fill: #f4e367; } .cls-32 { fill: #211f1f; } .cls-33 { fill: #e3e266; } .cls-34 { fill: #95b54f; } .cls-35 { fill: #895f3c; } .cls-37 { stroke: #221f1f; } .cls-38 { fill: #221f1f; } .cls-39 { fill: #fff; } .cls-40 { fill: #e5bf21; } .cls-41 { fill: #491d59; }
    </style>
  </defs>
  <path d="M237.34 44.6c-.7-8.16-1.45-19.51 1.65-25.93S253.64.86 248.74-3.27C246-5.56 239.09-2.13 238-.55c4-4.75 12.59-20.78 8.71-26.14-3-4.08-9.33.83-11 2.57 0-5.93.55-17.83-7.18-17.17s-5.08 12.29-4.07 18.15c-1.9-1.43-9-5.19-11.24-.67-2.91 5.94 8.28 20.27 13 24.27-1.31-1.38-8.73-3.57-11-.85-4.13 4.9 9.2 14.16 13.35 20s5.35 17.11 6 25.27" class="cls-1"/>
  <path d="M235.77 44.54c13.22-1.13 20.67 7.74 21.64 19.07 1 11.15-7.87 16.62-11.11 20.46-3.5 4.16-6.46 8-5.15 23.29-1.31-15.32-4.88-18.57-9-22.07-3.87-3.29-13.5-7.13-14.46-18.29-1-11.32 4.86-21.34 18.08-22.48" class="cls-2"/>
  <path d="M234.48 44.91c13.22-1.13 20.67 7.74 21.64 19.07 1 11.15-7.87 16.62-11.11 20.46-3.5 4.16-6.46 8-5.15 23.29-1.31-15.32-4.88-18.57-9-22.07-3.84-3.23-13.47-7.12-14.43-18.27-1-11.32 4.86-21.34 18.08-22.48m1.3-.35c-.7-8.16-1.45-19.51 1.65-25.93S252.11.82 247.21-3.31c-2.71-2.29-9.65 1.14-10.71 2.72 4-4.75 12.59-20.78 8.71-26.14-3-4.08-9.33.83-11 2.57 0-5.93.55-17.83-7.18-17.17s-5.1 12.33-4.1 18.15c-1.9-1.43-9-5.19-11.24-.67-2.91 5.94 8.28 20.27 13 24.27C223.41-1 216-3.15 213.7-.43c-4.13 4.9 9.2 14.16 13.35 20s5.35 17.11 6 25.27" class="cls-3"/>
  <path d="M237.94 65.43s-2.73 3.25-6 .51m-8.53-4.19c.69-3.39 4.59-3.91 6.18-.53" class="cls-4"/>
  <path d="M224.32 59.62a1.63 1.63 0 0 1-1.26-1.55m.5 3.13s-2.23-.47-2.37-2.14" class="cls-5"/>
  <path d="M245 59.9c-1.26-3.22-5.19-3.07-6.18.53" class="cls-4"/>
  <path d="M243.72 58a1.63 1.63 0 0 0 1-1.74m.01 3.12s2.12-.84 2-2.51" class="cls-5"/>
  <path d="M121 84.11a8.16 8.16 0 0 0 .7-3.78c-2.32.33-4.19.58-5.65 2.51-2.19-1-4-.35-6.16.47a8.16 8.16 0 0 0 2.4 3" class="cls-6"/>
  <path d="M120.64 100.27c5.87-1.48 9.05-5.4 7.82-10.3-1.42-5.63-6.13-6.78-11.76-5.37s-9.24 4.67-7.82 10.3c1.23 4.9 5.89 6.85 11.76 5.37z" class="cls-7"/>
  <path d="M119.46 100.57c5.87-1.48 9.05-5.4 7.82-10.3-1.42-5.63-6.13-6.78-11.76-5.37s-9.24 4.67-7.82 10.3c1.23 4.9 5.89 6.8 11.76 5.37z" class="cls-3"/>
  <path d="M120 84.36a8.16 8.16 0 0 0 .7-3.78c-2.32.33-4.19.58-5.65 2.51-2.19-1-4-.35-6.16.47a8.16 8.16 0 0 0 2.4 3" class="cls-3"/>
  <path d="M198.28 14.73a7.35 7.35 0 0 0 2.24-2.64c-2-.79-3.54-1.43-5.54-.58-1.26-1.77-2.94-2-5-2.4a7.35 7.35 0 0 0 .53 3.42" class="cls-6"/>
  <path d="M190.75 27.2c5.25 1.48 9.5-.16 10.73-4.54 1.42-5-1.75-8.06-6.78-9.48s-9.31-.5-10.73 4.54c-1.23 4.38 1.53 8 6.78 9.48z" class="cls-7"/>
  <path d="M189.7 26.9c5.25 1.48 9.5-.16 10.73-4.54 1.42-5-1.75-8.06-6.78-9.48s-9.31-.5-10.73 4.54c-1.24 4.38 1.53 8 6.78 9.48z" class="cls-3"/>
  <path d="M197.41 14.48a7.35 7.35 0 0 0 2.24-2.64c-2-.79-3.54-1.43-5.54-.58-1.26-1.77-2.94-2-5-2.4a7.35 7.35 0 0 0 .53 3.42" class="cls-3"/>
  <path d="M91.74 74.72c4.28.5 8.53-1.8 11.63-6.65a45.17 45.17 0 0 0 6.47-16.88c1-6.39-4.42-9.71-12.79-11s-14.52.26-15.5 6.65a45.17 45.17 0 0 0 1.1 18c1.5 5.6 4.86 9.07 9.09 9.88z" class="cls-8"/>
  <path d="M93.17 74.94c4.28.5 8.53-1.8 11.63-6.65a45.17 45.17 0 0 0 6.47-16.88c1-6.39-4.42-9.71-12.79-11S84 40.66 83 47.05a45.17 45.17 0 0 0 1.1 18c1.47 5.61 4.83 9.08 9.07 9.89z" class="cls-3"/>
  <path d="M100.38 34.88l2.41.88-.65 3.41c7.81 1.2 9.1 6.33 9.47 8.26-3.3-2.13-6.31-2.43-8.42-3.29-.48 3.12-5 4.86-5 4.86H98s-3.77-3-3.29-6.13c-2.27.18-5.22-.43-9 .6.93-1.73 3.7-6.23 11.51-5l.43-3.47 2.56-.12z" class="cls-9"/>
  <path d="M98.95 34.3l2.41.88-.66 3.42c7.81 1.2 9.1 6.33 9.47 8.26-3.3-2.13-6.31-2.43-8.42-3.29-.48 3.12-5 4.86-5 4.86h-.17s-3.77-3-3.29-6.13c-2.27.18-5.22-.43-9 .6.93-1.73 3.7-6.23 11.51-5l.4-3.45 2.56-.12z" class="cls-3"/>
  <path d="M134.94 14.38c9.37 7.64 21.54 15.72 31.38 18.21 13.57 3.42 16.55 5.57 20.29 7.48 2.77 1.42 3.17 5.11 1.09 9.15-1.53 3-29.27 18.9-69.28-11.09-48.09-36-34-75.23-26.65-77.85 6-2.11 3.83-9.6 4.94-10 1.34-.49 5.57.08 6.8.27s-3.82 6.14 1.18 8.72c8.95 4.6 6.44 7.45 8.42 21.3s14.25 28.14 21.83 33.81z" class="cls-10"/>
  <path d="M135.76 12.88c9.37 7.64 21.54 15.72 31.38 18.21 13.57 3.42 16.54 4.81 20.28 6.73 2.77 1.42 3.19 5.87 1.1 9.91-1.53 3-29.27 18.9-69.28-11.09-48.09-36-34.4-76.74-26.65-77.85 4-.57 2.28-8.31 3.39-8.72a17.28 17.28 0 0 1 5.81-.66c1.23.19-2 6.5 1 8.75 8.05 6 9.21 7.05 11.19 20.9s14.2 28.14 21.78 33.82z" class="cls-11"/>
  <path d="M9.94 185.33c5.47 1.78 8.9-6.31 10.65-9.19s9.15-16.25 11.88-21.68 8-15.73 11.33-24.48c2.14-5.58-4.42-10.44-8.09-11.85s-11.8-2.18-13.94 3.4c-3.36 8.75-6.34 19.92-7.95 25.78s-5 20.74-5.67 24.06S4.69 183 9.94 185.33z" class="cls-12"/>
  <path d="M40.15 118.78l5.58-14.54c.84-2.24 10.18-8.83 11.07-11.57s-1.86-2.33-3.53-1.35c2.54-3.24 6.54-7.24 4.24-9.16-1.41-1.18-2.69 0-3.69 1 2.3-4.11 3.52-7.48.71-8.6s-4.19 2.27-5.23 6.87c-.12-1.43-.3-3.15-2.1-3.22-3-.11-2.69 5.54-3 9.65-.59-1.85-2.36-4-3.53-1.35s1.35 13.8.5 16l-5.58 14.54" class="cls-13"/>
  <path d="M11.17 184.51c5.47 1.78 8.9-6.31 10.65-9.19s9.18-16.25 11.89-21.69 8-15.73 11.33-24.48c2.14-5.58-4.42-10.44-8.09-11.85s-11.8-2.18-13.94 3.4c-3.36 8.75-6.34 19.92-7.95 25.78s-5 20.74-5.67 24.06-3.47 11.63 1.78 13.97z" class="cls-14"/>
  <path d="M39.21 118.17l5.58-14.54c.85-2.21 10.21-8.83 11.07-11.57s-1.86-2.33-3.52-1.35c2.54-3.24 6.54-7.24 4.24-9.16-1.41-1.18-2.69 0-3.69 1 2.3-4.11 3.52-7.48.71-8.6s-4.19 2.27-5.23 6.87c-.13-1.35-.27-3.1-2.11-3.17-3-.11-2.69 5.54-3 9.65-.59-1.85-2.36-4-3.53-1.35s1.35 13.8.5 16l-5.58 14.54" class="cls-3"/>
  <path d="M23.56 133.94c1.41-1.84 3.91-1 3.88 1.49m2.84 4.46a2 2 0 0 1-3.48-1.33zm1.97-2.61c1.41-1.84 3.91-1 3.88 1.49" class="cls-4"/>
  <path d="M34.9 196.44c5.37 2.07 9.22-5.82 11.13-8.61s10-15.74 13-21 8.83-15.29 12.65-23.83c2.44-5.46-3.85-10.66-7.44-12.26s-11.66-2.81-14.1 2.65c-3.82 8.56-7.4 19.55-9.31 25.32s-6.14 20.44-6.95 23.73-4.1 11.38 1.02 14z" class="cls-12"/>
  <path d="M36.17 195.68c5.37 2.07 9.22-5.82 11.13-8.61s10-15.74 13-21 8.83-15.29 12.7-23.85c2.44-5.46-3.85-10.66-7.44-12.26s-11.66-2.81-14.1 2.65c-3.82 8.56-7.4 19.55-9.31 25.32s-6.15 20.43-7 23.72-4.15 11.42 1.02 14.03z" class="cls-14"/>
  <path d="M67.26 130l6.11-13.7c.93-2.08 9.27-3.9 10.26-6.49s-1.75-2.38-3.45-1.54c2.65-3 6.79-6.58 4.58-8.58-1.36-1.23-2.67-.14-3.7.68 2.45-3.82 3.79-7 1-8.27s-4.25 1.92-5.46 6.3c-.08-1.31-.14-3-2-3.21-3-.31-2.89 5.18-3.33 9.13-.51-1.82-2.19-4-3.45-1.54s2 9.46 1.06 11.54L62.85 128" class="cls-15"/>
  <path d="M67.72 130.94l6.35-14.22c1-2.16 9.38-4.15 10.42-6.84s-1.73-2.43-3.45-1.54c2.71-3.1 6.92-6.88 4.73-8.92-1.35-1.25-2.69-.11-3.73.75 2.52-4 3.91-7.29 1.17-8.55s-4.3 2-5.59 6.58c-.06-1.35-.1-3.11-1.93-3.28-3-.27-3 5.39-3.48 9.47-.49-1.87-2.14-4.1-3.45-1.54s1.87 9.73.91 11.89L63.3 129" class="cls-3"/>
  <path d="M51.25 145.86c1.5-1.76 4-.8 3.79 1.69m2.6 4.61a2 2 0 0 1-3.4-1.52zm2.1-2.51c1.5-1.76 4-.8 3.79 1.69" class="cls-4"/>
  <path d="M89.45 161.69a2.85 2.85 0 0 0 .09-3.46 8.91 8.91 0 0 0-3.81-3 5.29 5.29 0 0 0-4.41-.24 5.29 5.29 0 0 0 1 4.29 8.91 8.91 0 0 0 3.66 3.2 2.85 2.85 0 0 0 3.39-.73z" class="cls-16"/>
  <path d="M88.75 161.63a2.85 2.85 0 0 0 .09-3.46 8.91 8.91 0 0 0-3.81-3 5.29 5.29 0 0 0-4.41-.24 5.29 5.29 0 0 0 1 4.29 8.91 8.91 0 0 0 3.66 3.2 2.85 2.85 0 0 0 3.39-.73z" class="cls-17"/>
  <path d="M201.05 73.37a3.19 3.19 0 0 0 3.74.48 7.86 7.86 0 0 0 3.14-3.71 5.53 5.53 0 0 0 .12-4.64 5.53 5.53 0 0 0-4.6.63 7.86 7.86 0 0 0-3.34 3.52 3.19 3.19 0 0 0 .88 3.67z" class="cls-18"/>
  <path d="M201.09 72.63a3.19 3.19 0 0 0 3.74.48A7.86 7.86 0 0 0 208 69.4a5.53 5.53 0 0 0 .12-4.64 5.53 5.53 0 0 0-4.6.63 7.86 7.86 0 0 0-3.34 3.52 3.19 3.19 0 0 0 .88 3.67z" class="cls-17"/>
  <path d="M156.67 112.91a3.19 3.19 0 0 0 3.77-.14 7.86 7.86 0 0 0 2.48-4.17 5.53 5.53 0 0 0-.64-4.6 5.53 5.53 0 0 0-4.43 1.38 7.86 7.86 0 0 0-2.72 4 3.19 3.19 0 0 0 1.48 3.47z" class="cls-18"/>
  <path d="M156.59 112.18a3.19 3.19 0 0 0 3.77-.14 7.86 7.86 0 0 0 2.48-4.17 5.53 5.53 0 0 0-.64-4.6 5.53 5.53 0 0 0-4.43 1.38 7.86 7.86 0 0 0-2.72 4 3.19 3.19 0 0 0 1.48 3.47z" class="cls-17"/>
  <path d="M55.08 105a2.85 2.85 0 0 0-2.55 2.34 8.91 8.91 0 0 0 .49 4.83 5.29 5.29 0 0 0 2.9 3.33 5.29 5.29 0 0 0 2.36-3.73A8.91 8.91 0 0 0 58 107a2.85 2.85 0 0 0-2.85-2h-.07z" class="cls-19"/>
  <path d="M55.53 105.58a2.85 2.85 0 0 0-2.53 2.34 8.91 8.91 0 0 0 .49 4.83 5.29 5.29 0 0 0 2.9 3.33 5.29 5.29 0 0 0 2.36-3.73 8.91 8.91 0 0 0-.25-4.85 2.85 2.85 0 0 0-2.88-1.93h-.09z" class="cls-17"/>
  <path d="M229.65 102.13a2.85 2.85 0 0 0 .09-3.46 8.91 8.91 0 0 0-3.81-3 5.29 5.29 0 0 0-4.41-.24 5.29 5.29 0 0 0 1 4.29 8.91 8.91 0 0 0 3.66 3.2 2.85 2.85 0 0 0 3.39-.73z" class="cls-16"/>
  <path d="M228.94 102.07a2.85 2.85 0 0 0 .06-3.47 8.91 8.91 0 0 0-3.81-3 5.29 5.29 0 0 0-4.41-.24 5.29 5.29 0 0 0 1 4.29 8.91 8.91 0 0 0 3.66 3.2 2.85 2.85 0 0 0 3.39-.73z" class="cls-17"/>
  <path d="M246.23 120.53a2.85 2.85 0 0 0 3.46.22 8.91 8.91 0 0 0 3.15-3.7 5.29 5.29 0 0 0 .4-4.4 5.29 5.29 0 0 0-4.33.88 8.91 8.91 0 0 0-3.33 3.54 2.85 2.85 0 0 0 .6 3.41z" class="cls-18"/>
  <path d="M246.31 119.83a2.85 2.85 0 0 0 3.46.22 8.91 8.91 0 0 0 3.15-3.7 5.29 5.29 0 0 0 .4-4.4 5.29 5.29 0 0 0-4.33.88 8.91 8.91 0 0 0-3.33 3.54 2.85 2.85 0 0 0 .6 3.41z" class="cls-17"/>
  <path d="M220 27.9a2.85 2.85 0 0 0 .77-3.38 8.91 8.91 0 0 0-3.15-3.7 5.29 5.29 0 0 0-4.28-1.09 5.29 5.29 0 0 0 .18 4.41 8.91 8.91 0 0 0 3 3.85 2.85 2.85 0 0 0 3.46-.05z" class="cls-18"/>
  <path d="M219.28 27.71a2.85 2.85 0 0 0 .77-3.38 8.91 8.91 0 0 0-3.15-3.7 5.29 5.29 0 0 0-4.28-1.09 5.29 5.29 0 0 0 .18 4.46 8.91 8.91 0 0 0 3 3.85 2.85 2.85 0 0 0 3.46-.05z" class="cls-17"/>
  <path d="M8.78 133.8a2.85 2.85 0 0 0 .22-3.46 8.91 8.91 0 0 0-3.73-3.11 5.29 5.29 0 0 0-4.4-.35 5.29 5.29 0 0 0 .93 4.31 8.91 8.91 0 0 0 3.57 3.29 2.85 2.85 0 0 0 3.4-.64z" class="cls-16"/>
  <path d="M8.08 133.73a2.85 2.85 0 0 0 .18-3.46 8.91 8.91 0 0 0-3.73-3.11 5.29 5.29 0 0 0-4.4-.35 5.29 5.29 0 0 0 .93 4.31 8.91 8.91 0 0 0 3.57 3.29 2.85 2.85 0 0 0 3.4-.64z" class="cls-17"/>
  <path d="M161.34 63.67a2.85 2.85 0 0 0-2.92-1.87 8.91 8.91 0 0 0-4.55 1.71 5.29 5.29 0 0 0-2.48 3.65 5.29 5.29 0 0 0 4.21 1.33 8.91 8.91 0 0 0 4.63-1.49 2.85 2.85 0 0 0 1.13-3.28z" class="cls-18"/>
  <path d="M160.93 64.24a2.85 2.85 0 0 0-2.93-1.87 8.91 8.91 0 0 0-4.55 1.71 5.29 5.29 0 0 0-2.45 3.65 5.29 5.29 0 0 0 4.21 1.33 8.91 8.91 0 0 0 4.63-1.48 2.85 2.85 0 0 0 1.13-3.28z" class="cls-17"/>
  <path d="M81.05 22.8a2.85 2.85 0 0 0 3.12-1.5 8.91 8.91 0 0 0 .93-4.77 5.29 5.29 0 0 0-1.81-4A5.29 5.29 0 0 0 80 15.39a8.91 8.91 0 0 0-1.16 4.72A2.85 2.85 0 0 0 81 22.79h.06z" class="cls-19"/>
  <path d="M80.78 22.15a2.85 2.85 0 0 0 3.12-1.5 8.91 8.91 0 0 0 .93-4.77 5.29 5.29 0 0 0-1.81-4 5.29 5.29 0 0 0-3.34 2.89 8.91 8.91 0 0 0-1.16 4.72 2.85 2.85 0 0 0 2.2 2.68h.06z" class="cls-17"/>
  <path d="M102.85 119.82a2.85 2.85 0 0 0 3.12-1.5 8.91 8.91 0 0 0 .93-4.77 5.29 5.29 0 0 0-1.81-4 5.29 5.29 0 0 0-3.34 2.89 8.91 8.91 0 0 0-1.16 4.72 2.85 2.85 0 0 0 2.2 2.68h.06z" class="cls-19"/>
  <path d="M102.58 119.17a2.85 2.85 0 0 0 3.12-1.5 8.91 8.91 0 0 0 .93-4.77 5.29 5.29 0 0 0-1.81-4 5.29 5.29 0 0 0-3.34 2.89 8.91 8.91 0 0 0-1.16 4.72 2.85 2.85 0 0 0 2.2 2.68h.06z" class="cls-17"/>
  <path d="M79.39 122.1c5.24.48 12.06.92 17.19 7.09 1.5 1.81 6.52 6.92.21 12.17l1.83 2.19-.49.41-1.28 1.04-1.77-2.13c-6.31 5.25-10.48-.67-12-2.48-5.13-6.16-4.33-13-3.85-18.19z" class="cls-20"/>
  <path d="M78.56 123.41c5.24.48 12.06.92 17.19 7.09 1.5 1.81 6.52 6.92.21 12.17l1.83 2.19-.49.41-1.3 1.05-1.77-2.13c-6.31 5.25-10.48-.67-12-2.48-5.13-6.16-4.33-13-3.85-18.19zm14.85 17.98l-12.03-14.46m2.18-.14l-.26 2.45m2.33-.77l-.32 3.18m2.52-2.84l-.52 5.25m2.52-2.84l-.51 5.25m5.07-1.79l-.68 7.06m-1.86-6.82l-.41 4.1m-8.65-6.82l3.19.25m-1.25 4.37l5.25.45m-1.97 2.21l4.1.34" class="cls-4"/>
  <path d="M139.08 72c-4.53 1.52-10.36 3.64-16.88.4-1.91-1-7.94-3.36-4.62-10l-2.32-1.16.26-.52.67-1.34 2.25 1.12c3.32-6.67 9-3.28 10.87-2.32 6.52 3.25 8.33 9.18 9.85 13.71z" class="cls-20"/>
  <path d="M139.29 70.58c-4.53 1.52-10.36 3.64-16.88.4-1.91-1-7.94-3.36-4.62-10l-2.32-1.16.26-.52.67-1.34 2.25 1.12c3.32-6.67 9-3.28 10.87-2.32 6.52 3.25 8.33 9.18 9.85 13.71zm-18.92-9.5l15.29 7.61m-1.77.91l-.68-2.13m-1.65 1.49l-.89-2.76m-1.06 3.28l-1.49-4.55m-1.05 3.29l-1.49-4.55m-3.56 3.34L120 60.89m4.03 4.99l-1.15-3.56m9.68 2.51l-2.74.95m-.56-4.09l-4.53 1.55m.83-2.56l-3.53 1.22" class="cls-4"/>
  <path d="M161.47 19.3c-3.39-.9-7.81-1.95-10.49-6.56-.79-1.35-3.51-5.26 1.22-8l-1-1.64.37-.21.95-.55.92 1.59c4.73-2.74 6.8 1.61 7.59 3 2.68 4.62 1.4 9 .5 12.37z" class="cls-20"/>
  <path d="M162.15 18.54c-3.39-.9-7.81-1.95-10.49-6.56-.79-1.35-3.51-5.26 1.22-8l-1-1.64.37-.21.95-.55.92 1.59c4.73-2.74 6.8 1.61 7.59 3 2.68 4.62 1.4 9 .5 12.37zm-7.74-13.46l6.29 10.83m-1.45-.15l.44-1.58m-1.61.24l.57-2.05m-1.97 1.59l.92-3.39m-1.97 1.59l.92-3.39m-3.53.61l1.24-4.56m.46 4.68l.72-2.64m4.92 5.44l-2.06-.53m1.3-2.72l-3.4-.88m1.55-1.23l-2.66-.69" class="cls-4"/>
  <path d="M158.18 167a11.24 11.24 0 0 1-6.2-10.88c.18-4 2.42-4.44 5.44-3 2 1 3.85 3.08 6.07 4.32s5 1.7 6.87 2.9c2.84 1.79 3.65 3.92.34 6.18a11.24 11.24 0 0 1-12.52.48z" class="cls-21"/>
  <path d="M162.78 163.47c-2.45-1.37-4.25-4-4.16-6s1.21-2.22 2.72-1.48c1 .49 3 2.13 4.09 2.75s2.48.85 3.43 1.45c1.42.9 1.83 2 .17 3.09a5.62 5.62 0 0 1-6.25.19z" class="cls-22"/>
  <path d="M157.22 165.54a11.24 11.24 0 0 1-6.2-10.88c.18-4 2.42-4.44 5.44-3 2 1 3.85 3.08 6.07 4.32s5 1.7 6.87 2.9c2.84 1.79 3.65 3.92.34 6.18a11.24 11.24 0 0 1-12.52.48z" class="cls-23"/>
  <path d="M153.26 154.23a10 10 0 0 0 5.35 8.81" class="cls-24"/>
  <path d="M213.42 50a11.24 11.24 0 0 1-12.2 2.83c-3.79-1.32-3.56-3.59-1.28-6.06 1.52-1.65 4.05-2.81 5.87-4.59s3-4.28 4.74-5.75c2.53-2.21 4.8-2.38 6 1.44A11.24 11.24 0 0 1 213.42 50z" class="cls-21"/>
  <path d="M211.33 44.55c-2 2-5.07 2.92-7 2.26s-1.78-1.79-.64-3c.76-.82 2.89-2.25 3.81-3.14s1.52-2.14 2.37-2.88c1.26-1.11 2.4-1.19 3 .72a5.62 5.62 0 0 1-1.54 6.04z" class="cls-22"/>
  <path d="M211.73 50.48a11.24 11.24 0 0 1-12.2 2.83c-3.79-1.32-3.56-3.59-1.28-6.06 1.52-1.65 4.05-2.81 5.87-4.59s3-4.28 4.74-5.75c2.53-2.21 4.8-2.38 6 1.44a11.24 11.24 0 0 1-3.13 12.13z" class="cls-23"/>
  <path d="M199.76 51a10 10 0 0 0 10-2.61" class="cls-24"/>
  <path d="M56.88 39.35a10.55 10.55 0 0 1 11.75-.28c3.23 1.93 2.59 4 0 5.81C67 46.11 64.4 46.69 62.39 48s-3.62 3.35-5.45 4.39c-2.75 1.55-4.87 1.27-5.26-2.47a10.55 10.55 0 0 1 5.2-10.57z" class="cls-21"/>
  <path d="M57.77 44.73C60 43.32 63 43 64.61 44s1.3 2 0 2.91c-.86.61-3.09 1.52-4.1 2.16s-1.81 1.67-2.72 2.19c-1.37.78-2.43.64-2.63-1.24a5.27 5.27 0 0 1 2.61-5.29z" class="cls-22"/>
  <path d="M58.54 39.21a10.55 10.55 0 0 1 11.75-.28c3.23 1.93 2.59 4 0 5.81-1.68 1.26-4.23 1.82-6.29 3.1s-3.62 3.35-5.45 4.39c-2.75 1.55-4.87 1.27-5.26-2.47a10.55 10.55 0 0 1 5.25-10.55z" class="cls-23"/>
  <path d="M69.65 41a9.39 9.39 0 0 0-9.66.5" class="cls-24"/>
  <path d="M159.87 137.76a8.13 8.13 0 0 0 7.13 5.54c2.89.27 3.65-2.51 1.3-3.17s-3.18-2.45-3.85-4.16-1.25-3.6 0-5.67-1.14-3.61-3.09-1.46a8.13 8.13 0 0 0-1.49 8.92z" class="cls-25"/>
  <path d="M160 136.93a8.13 8.13 0 0 0 7.17 5.54c2.89.27 3.65-2.51 1.3-3.17s-3.18-2.45-3.85-4.16-1.25-3.6 0-5.67-1.14-3.61-3.09-1.46a8.13 8.13 0 0 0-1.53 8.92z" class="cls-26"/>
  <path d="M167.73 140.89a7.24 7.24 0 0 1-5.77-4.72 7.24 7.24 0 0 1 1.04-7.37" class="cls-24"/>
  <path d="M148.78 90.3a7.26 7.26 0 0 0 5.33-6.09c.4-2.56-2-3.39-2.75-1.34s-2.36 2.7-3.92 3.2-3.28.91-5-.35-3.28.82-1.47 2.68a7.26 7.26 0 0 0 7.81 1.9z" class="cls-25"/>
  <path d="M148 90.14a7.26 7.26 0 0 0 5.33-6.09c.4-2.56-2-3.39-2.75-1.34s-2.36 2.7-3.92 3.2-3.28.91-5-.35-3.28.82-1.47 2.68a7.26 7.26 0 0 0 7.81 1.9z" class="cls-26"/>
  <path d="M152 83.46a6.46 6.46 0 0 1-4.52 4.88A6.46 6.46 0 0 1 141 87" class="cls-24"/>
  <path d="M251.74 127.88a8.68 8.68 0 0 0-9.59 1.27c-2.38 2-.84 4.65 1.42 3.37s4.25-.57 6 .22 3.67 1.77 4.26 4.29 3.59 1.85 3.44-1.24a8.68 8.68 0 0 0-5.53-7.91z" class="cls-25"/>
  <path d="M252.28 128.61a8.68 8.68 0 0 0-9.59 1.27c-2.38 2-.84 4.65 1.42 3.37s4.25-.57 6 .22 3.67 1.77 4.26 4.29 3.59 1.85 3.44-1.24a8.68 8.68 0 0 0-5.53-7.91z" class="cls-26"/>
  <path d="M243.46 131.49a7.72 7.72 0 0 1 7.92-.82 7.72 7.72 0 0 1 4.77 6.38" class="cls-24"/>
  <path d="M179.48-3.7a8.68 8.68 0 0 0-7.93-5.54c-3.09-.15-3.76 2.86-1.23 3.44s3.51 2.45 4.31 4.24 1.51 3.78.24 6 1.4 3.79 3.37 1.4a8.68 8.68 0 0 0 1.24-9.54z" class="cls-25"/>
  <path d="M179.38-2.8a8.68 8.68 0 0 0-7.93-5.54c-3.09-.15-3.76 2.86-1.23 3.44s3.51 2.45 4.31 4.24 1.51 3.78.24 6 1.4 3.79 3.37 1.4a8.68 8.68 0 0 0 1.24-9.54z" class="cls-26"/>
  <path d="M170.93-6.64a7.72 7.72 0 0 1 6.39 4.74 7.72 7.72 0 0 1-.75 7.9" class="cls-24"/>
  <path d="M66.08 21.45a8.13 8.13 0 0 0 .82-9c-1.32-2.58-4.07-1.73-3.37.6s-.36 4-1.45 5.48-2.37 3-4.8 3-2.43 2.9.42 3.4a8.13 8.13 0 0 0 8.38-3.48z" class="cls-25"/>
  <path d="M65.31 21.79a8.13 8.13 0 0 0 .82-9c-1.32-2.58-4.07-1.73-3.37.6s-.36 4-1.45 5.48-2.37 3-4.8 3-2.43 2.9.42 3.4a8.13 8.13 0 0 0 8.38-3.48z" class="cls-26"/>
  <path d="M64.5 13.14a7.24 7.24 0 0 1-.89 7.41 7.24 7.24 0 0 1-6.81 3" class="cls-24"/>
  <path d="M36.1 5.43c11.43 5.26 10.68 20.27 7.36 30.67-2.11 6.61-5.54 12.78-7.76 21.37-1.33 5.13-3.47 12.7-5.36 21.21C27 93.63 16.4 128-13.9 114.07l.06-.13c-30.3-13.94-11.09-44.37-1.9-56.63 5.23-7 9.59-13.52 12.62-17.86C2 32.18 4.42 25.56 8.07 19.66 13.81 10.38 24.72 0 36.16 5.3z" class="cls-27"/>
  <path d="M37.95 5.38c11.43 5.26 10.68 20.27 7.36 30.67-2.11 6.61-5.54 12.78-7.76 21.37-1.33 5.13-3.47 12.7-5.36 21.21C28.87 93.59 18.25 128-12.05 114l.06-.13c-30.31-13.87-11.1-44.35-1.9-56.6 5.23-7 9.59-13.52 12.62-17.86 5.08-7.28 7.54-13.89 11.19-19.8C15.66 10.33 26.57 0 38 5.26z" class="cls-14"/>
  <path d="M40.41-3.68l2.17 2.39-3.18 6.54c8.47 3.91 6.8 13.32 6.51 15.8a22.5 22.5 0 0 0-7.14-9.37 25.2 25.2 0 0 0-7.48 4.41l-.17-.09a26.89 26.89 0 0 0-1.5-8.55A21 21 0 0 0 17.91 8c1.7-1.83 7.72-9.11 16.2-5.2l3-6.81 3.16.24z" class="cls-28"/>
  <path d="M41.92-3l2.17 2.4-3.18 6.55c8.47 3.91 6.8 13.32 6.51 15.8a22.5 22.5 0 0 0-7.14-9.37 25.2 25.2 0 0 0-7.48 4.41l-.18-.08a26.89 26.89 0 0 0-1.5-8.55 21 21 0 0 0-11.71.54c1.7-1.83 7.72-9.11 16.2-5.2l3-6.81 3.16.24z" class="cls-3"/>
  <circle cx="25.39" cy="29.29" r="1.61" class="cls-29" transform="rotate(-73.36 25.387 29.294)"/>
  <circle cx="39.22" cy="35.39" r="1.61" class="cls-29" transform="rotate(-73.36 39.217 35.39)"/>
  <path d="M33.5 36.48a2.51 2.51 0 0 1-4.28-1.91z" class="cls-4"/>
  <path d="M138.65 109.43c2.45 1.06 1 4.35 1.12 6.54s5.51 6.21 6.2 14.89c.58 7.27-1.16 11.49-3.69 17.34s-4.42 10-10.11 14.56c-6.8 5.44-13.43 4.26-15.1 5.67s-3 4.77-5.53 3.66c-2-.86-1-4.35-1.12-6.54s-5.51-6.21-6.2-14.89c-.58-7.27 1.16-11.49 3.69-17.34s4.42-10 10.11-14.56c6.8-5.44 13.43-4.26 15.1-5.67s3.25-4.64 5.53-3.66z" class="cls-30"/>
  <path d="M140.78 110.36c2.45 1.06 1 4.35 1.12 6.54s5.51 6.21 6.2 14.89c.58 7.27-1.16 11.49-3.69 17.34s-4.42 10-10.11 14.56c-6.8 5.44-13.43 4.26-15.1 5.67s-3 4.77-5.53 3.66c-2-.86-1-4.35-1.12-6.54s-5.51-6.21-6.2-14.89c-.58-7.27 1.16-11.49 3.69-17.34s4.42-10 10.11-14.56c6.8-5.44 13.43-4.26 15.1-5.67s3.25-4.65 5.53-3.66z" class="cls-31"/>
  <path d="M125.65 127.78c.53-2.14 3-2.36 3.95-.17m7.11-.78c.53-2.14 3-2.36 3.95-.17" class="cls-4"/>
  <ellipse cx="133.53" cy="133.13" class="cls-4" rx="1.57" ry="1.91" transform="rotate(-6.8 133.636 133.19)"/>
  <circle cx="136.31" cy="130.64" r=".41" class="cls-32" transform="rotate(-13.01 136.356 130.64)"/>
  <path d="M190.87 86.91c6.82-2.25 16.89-.18 23 11.07 6.26 11.46 6.42 16.43 12.59 23.65 7.74 9.08 16 22.19 17 32.37.94 9.33-2.68 20.07-23.52 26.55s-29.91-.32-34.42-8.54c-4.92-9-5.58-24.42-4.35-36.3 1-9.44-1.7-13.63-3-26.62-1.31-12.76 5.82-20.18 12.71-22.18" class="cls-33"/>
  <path d="M194.4 98.79c5.8-1.92 14.37-.15 19.6 9.42 5.33 9.75 5.47 14 10.71 20.12 6.59 7.73 13.58 18.87 14.45 27.54.8 7.93-2.28 17.07-20 22.58s-25.45-.28-29.28-7.27c-4.19-7.63-4.75-20.78-3.7-30.88.84-8-1.45-11.59-2.58-22.65-1.11-10.85 4.95-17.16 10.81-18.87" class="cls-34"/>
  <path d="M189.12 87.76c6.82-2.25 16.89-.18 23 11.07 6.26 11.46 6.42 16.43 12.59 23.65 7.74 9.08 16 22.19 17 32.37.94 9.33-2.68 20.07-23.52 26.55s-29.91-.32-34.42-8.54c-4.92-9-5.58-24.42-4.35-36.3 1-9.44-1.7-13.63-3-26.62-1.31-12.76 5.82-20.18 12.71-22.18" class="cls-14"/>
  <ellipse cx="207.49" cy="146.26" class="cls-35" rx="15.31" ry="16.01" transform="rotate(-17.26 207.523 146.255)"/>
  <ellipse cx="209.58" cy="145.61" class="cls-14" rx="15.31" ry="16.01" transform="rotate(-17.26 209.607 145.628)"/>
  <path d="M188.32 115.42c.14-2.2 2.55-2.87 3.85-.89m8.93-2.9c.14-2.2 2.55-2.87 3.85-.89" class="cls-4"/>
  <circle cx="204.89" cy="135.98" r="1.28" class="cls-32" transform="rotate(-64.78 204.904 135.977)"/>
  <circle cx="213.07" cy="136.48" r="1.28" class="cls-32" transform="rotate(-64.78 213.09 136.472)"/>
  <path d="M212.08 140.79s-3.24 3.5-6-.4" class="cls-36"/>
  <path d="M200.6 115.94c0 2.37-3.37 3.5-4.9 1.46z" class="cls-4"/>
  <circle cx="111.04" cy="92.4" r=".8" class="cls-32" transform="rotate(-79.87 111.03 92.402)"/>
  <circle cx="119.8" cy="92.64" r=".8" class="cls-32" transform="rotate(-79.87 119.788 92.644)"/>
  <path d="M116.61 94.72a.56.56 0 0 1-.5.69.9.9 0 0 1-.84-.55 1.22 1.22 0 0 1-.82.52.56.56 0 0 1-.6-.71" class="cls-37"/>
  <circle cx="188.38" cy="21.14" r=".8" class="cls-32" transform="rotate(-79.87 188.368 21.147)"/>
  <circle cx="197.13" cy="21.38" r=".8" class="cls-32" transform="rotate(-79.87 197.12 21.384)"/>
  <path d="M193.94 23.45a.56.56 0 0 1-.5.69.9.9 0 0 1-.84-.55 1.22 1.22 0 0 1-.82.52.56.56 0 0 1-.6-.71" class="cls-37"/>
  <circle cx="89.43" cy="65.37" r="1.15" class="cls-32" transform="rotate(-79.87 89.42 65.372)"/>
  <circle cx="101.49" cy="65.71" r="1.15" class="cls-32" transform="rotate(-79.87 101.477 65.713)"/>
  <path d="M98 67.93a1 1 0 0 1-.9 1.24 1.62 1.62 0 0 1-1.51-1 2.19 2.19 0 0 1-1.48.94 1 1 0 0 1-1.08-1.28" class="cls-37"/>
  <path d="M86.5 46.12s-1.29 2.45-.39 2.61c1.77.27 1.62-2.6.39-2.61zM89 50s-1.29 2.45-.39 2.61c1.76.27 1.6-2.61.39-2.61zm2.54-3.26s-1.29 2.45-.39 2.61c1.78.31 1.62-2.6.39-2.61zm-5.86 5.31s-1.29 2.45-.39 2.61c1.77.34 1.62-2.6.39-2.61zm2.48 3.64s-1.29 2.45-.39 2.61c1.78.31 1.62-2.6.39-2.61z" class="cls-38"/>
  <path d="M65.67 146.18a5.63 5.63 0 0 0 4.06 1.82" class="cls-36"/>
  <path d="M68.94 149.52s-1.1.48-2.48-.87" class="cls-39"/>
  <path d="M17.32 137.63a4.3 4.3 0 0 0 3.31 3.37m-4.35.22a10.06 10.06 0 0 0 5.86 3.89m20.43 8.42a5.67 5.67 0 0 0 2.85 2.71m-23.07-33.76A17.15 17.15 0 0 0 26 125" class="cls-36"/>
  <path d="M126.07 23.55c2.64 3.19 5.83 6.16 7.88 8.52 3.69 4.25 11.8 7.77 15.63 9.36 4.83 2.17 11.51 3.2 15.76 3.64 5.87.61 6.83-.12 8.59.37 1.31.36 1.87-.3 1.64 1.13-.17 1-8.81 7.42-29-1-11.11-4.61-17.19-9.95-20.26-14.5-3.65-5.4-4.71-8.25-3.93-9.35s1.9-.33 3.69 1.83z" class="cls-40"/>
  <path d="M22.9 60.94c4.54 2.09 4.4 6.75 3.77 11.7-.35 2.75-1 6.54-1.78 9.95a45.4 45.4 0 0 1-4.25 10.75c-3.15 5.2-8.25 14.2-17.6 10.74v-.05c-12-5.54-4.4-17.62-.75-22.49 2.08-2.77 3.81-5.37 5-7.09 2-2.89 3-5.51 4.44-7.86 2.28-3.68 6.61-7.79 11.15-5.7z" class="cls-41"/>
  <circle cx="165.63" cy="40.29" r="1.28" class="cls-32" transform="rotate(-8.07 165.695 40.324)"/>
  <circle cx="177.08" cy="43.19" r="1.28" class="cls-32" transform="rotate(-8.07 177.174 43.2)"/>
  <path d="M173.29 46.77s-3.53 2.31-5.83-1.23" class="cls-4"/>
  <circle cx="108.22" cy="144.79" r=".41" class="cls-32" transform="rotate(-8.07 108.31 144.908)"/>
  <circle cx="108.22" cy="141.73" r=".41" class="cls-32" transform="rotate(-8.07 108.313 141.845)"/>
  <circle cx="109.52" cy="143.53" r=".41" class="cls-32" transform="rotate(-8.07 109.61 143.646)"/>
  <circle cx="109.93" cy="140.26" r=".41" class="cls-32" transform="rotate(-8.07 109.988 140.325)"/>
  <circle cx="107.27" cy="139.67" r=".41" class="cls-32" transform="rotate(-8.07 107.32 139.78)"/>
  <path d="M226.5 47s12.29 2.22 17.71-.88m-20.8 2.82a27.58 27.58 0 0 0 8.93 1.56m-12.05 1.61a29.78 29.78 0 0 0 7.59 1.75" class="cls-42"/>
  <path d="M186 37.16c1.62-.73 3-.18 4 2s1.29 4.1-.79 5c-1.62.73-3 .18-4-2s-1.29-4.06.79-5z" class="cls-32"/>
  <path d="M172.47 92.3c-3.39-.9-7.81-1.95-10.49-6.56-.79-1.35-3.51-5.26 1.22-8l-1-1.64.37-.21.95-.55.92 1.59c4.73-2.74 6.8 1.61 7.59 3 2.68 4.62 1.4 9 .5 12.37z" class="cls-20"/>
  <path d="M173.15 91.54c-3.39-.9-7.81-1.95-10.49-6.56-.79-1.35-3.51-5.26 1.22-8l-1-1.64.37-.21.95-.55.92 1.59c4.73-2.74 6.8 1.61 7.59 3 2.68 4.62 1.4 9 .5 12.37zm-7.74-13.46l6.29 10.83m-1.45-.15l.44-1.58m-1.61.24l.57-2.05m-1.97 1.59l.92-3.39m-1.97 1.59l.92-3.39m-3.53.61l1.24-4.56m.46 4.68l.72-2.64m4.92 5.44l-2.06-.53m1.3-2.72l-3.4-.88m1.55-1.23l-2.66-.69" class="cls-4"/>
  <path d="M190.48 69.3a8.68 8.68 0 0 0-7.93-5.54c-3.09-.15-3.76 2.86-1.23 3.44s3.51 2.45 4.31 4.24 1.51 3.78.24 6 1.4 3.79 3.37 1.4a8.68 8.68 0 0 0 1.24-9.54z" class="cls-25"/>
  <path d="M190.38 70.2a8.68 8.68 0 0 0-7.93-5.54c-3.09-.15-3.76 2.86-1.23 3.44s3.51 2.45 4.31 4.24 1.51 3.78.24 6 1.4 3.79 3.37 1.4a8.68 8.68 0 0 0 1.24-9.54z" class="cls-26"/>
  <path d="M181.93 66.36a7.72 7.72 0 0 1 6.39 4.74 7.72 7.72 0 0 1-.79 7.92" class="cls-24"/>
  <path d="M67.46 75.12a8.13 8.13 0 0 0 7.17 5.54c2.89.27 3.65-2.51 1.3-3.17s-3.17-2.49-3.84-4.16-1.25-3.6 0-5.67S71 64 69 66.2a8.13 8.13 0 0 0-1.54 8.92z" class="cls-25"/>
  <path d="M67.59 74.29a8.13 8.13 0 0 0 7.17 5.54c2.89.27 3.65-2.51 1.3-3.17s-3.18-2.45-3.85-4.16-1.25-3.6 0-5.67-1.14-3.61-3.09-1.46a8.13 8.13 0 0 0-1.53 8.92z" class="cls-26"/>
  <path d="M75.33 78.25a7.24 7.24 0 0 1-5.77-4.72 7.24 7.24 0 0 1 1.09-7.38" class="cls-24"/>
</svg>
