<svg xmlns="http://www.w3.org/2000/svg" width="1041" height="451">
  <g fill="none" fill-rule="evenodd">
    <path fill="#6D673C" d="M1028.912 196.387c-3.87.295-5.734 3.002-6.65 6.13-.996 3.382-.2 7.968 1.273 12.648 2.11 6.7 7.547 8.714 7.547 8.714s5.072-2.82 6.146-9.77c.75-4.85.844-9.51-.65-12.7-1.377-2.96-3.628-5.35-7.496-5.05l-.17.01z"/>
    <path stroke="#231F20" stroke-width="2.606" d="M1030.076 197.813c-3.87.296-5.733 3.002-6.65 6.13-.996 3.382-.2 7.968 1.273 12.648 2.11 6.71 7.54 8.72 7.54 8.72s5.07-2.81 6.14-9.76c.75-4.85.84-9.5-.65-12.69-1.38-2.95-3.63-5.34-7.5-5.04l-.17.02z"/>
    <path fill="#6D673C" d="M724.066 304.533c-1.16-3.706-4.215-4.912-7.47-5.1-3.518-.21-7.808 1.595-12.036 4.085-6.055 3.563-6.793 9.314-6.793 9.314s3.885 4.308 10.896 3.79c4.892-.358 9.45-1.314 12.223-3.486 2.567-2.007 4.39-4.738 3.23-8.44l-.05-.163z"/>
    <path stroke="#231F20" stroke-width="2.606" d="M722.938 305.988c-1.16-3.705-4.215-4.91-7.47-5.1-3.518-.21-7.808 1.596-12.036 4.085-6.054 3.564-6.793 9.314-6.793 9.314s3.88 4.31 10.89 3.792c4.89-.36 9.45-1.32 12.22-3.49 2.56-2.01 4.39-4.74 3.23-8.44l-.05-.17z"/>
    <path fill="#6D673C" d="M29.866 343.55c-1.16-3.705-4.215-4.91-7.47-5.1-3.518-.21-7.808 1.596-12.036 4.085-6.055 3.564-6.793 9.314-6.793 9.314s3.885 4.3 10.896 3.79c4.892-.36 9.45-1.32 12.223-3.49 2.567-2.01 4.39-4.74 3.23-8.44l-.05-.17z"/>
    <path stroke="#231F20" stroke-width="2.606" d="M28.738 345.005c-1.16-3.705-4.215-4.91-7.47-5.1-3.518-.21-7.808 1.596-12.036 4.086-6.054 3.57-6.793 9.32-6.793 9.32s3.88 4.31 10.89 3.79c4.89-.36 9.45-1.31 12.22-3.49 2.56-2 4.39-4.74 3.23-8.44l-.05-.16z"/>
    <path fill="#6D673C" d="M55.875 84.196c3.205-2.19 3.464-5.467 2.695-8.634-.83-3.426-3.81-7-7.428-10.316-5.178-4.748-10.892-3.773-10.892-3.773S37.265 66.448 39.81 73c1.773 4.574 4.02 8.654 6.908 10.67 2.67 1.87 5.814 2.813 9.017.622l.14-.096z"/>
    <path stroke="#231F20" stroke-width="2.606" d="M54.154 83.543c3.204-2.19 3.464-5.467 2.694-8.634-.83-3.43-3.81-7.01-7.427-10.32-5.17-4.75-10.89-3.78-10.89-3.78s-2.98 4.97-.44 11.52C39.87 76.92 42.11 81 45 83.01c2.67 1.87 5.812 2.81 9.014.62l.14-.09z"/>
    <path fill="#2C9144" d="M484.607 34.856c13.656 1.257 31.418 2.416 44.785 18.553 3.915 4.72 16.974 18.1.534 31.85l4.756 5.74-1.273 1.06-3.3 2.75-4.62-5.57c-16.44 13.74-27.31-1.77-31.23-6.49-13.36-16.13-11.27-33.89-10.02-47.62l.35-.3z"/>
    <path stroke="#231F20" stroke-width="2.606" d="M482.46 38.27c13.657 1.256 31.418 2.416 44.785 18.553 3.916 4.727 16.975 18.105.534 31.855l4.75 5.743-1.28 1.07-3.3 2.76-4.62-5.57c-16.44 13.75-27.31-1.76-31.22-6.49-13.36-16.13-11.27-33.89-10.02-47.62l.35-.3zm38.684 47.066l-31.34-37.834m5.683-.362l-.673 6.408m6.066-2.016l-.845 8.318m6.56-7.435l-1.34 13.74m6.56-7.437l-1.34 13.74m13.212-4.68l-1.774 18.488m-4.836-17.85l-1.065 10.725M493.48 61.28l8.294.675m-3.248 11.434l13.69 1.17m-5.152 5.79l10.688.89" stroke-linecap="round" stroke-linejoin="round"/>
    <path fill="#2C9144" d="M857.91 206.845c-12.554 5.522-28.65 13.118-48.165 5.485-5.717-2.236-23.625-7.606-15.91-27.602l-6.946-2.717.59-1.54 1.54-4.01 6.73 2.64c7.71-19.99 24.73-11.7 30.45-9.46 19.51 7.64 26.29 24.18 31.85 36.79l-.17.44z"/>
    <path stroke="#231F20" stroke-width="2.606" d="M858.13 202.82c-12.552 5.52-28.65 13.117-48.163 5.484-5.716-2.236-23.624-7.606-15.91-27.603l-6.946-2.71.6-1.55 1.55-4.01 6.74 2.64c7.72-19.99 24.74-11.69 30.46-9.46 19.52 7.63 26.3 24.18 31.86 36.79l-.17.44zm-56.65-22.413l45.752 17.897m-4.794 3.072l-2.52-5.93m-4.328 4.704l-3.292-7.686m-2.133 9.684l-5.49-12.666m-2.132 9.684l-5.49-12.665m-9.285 10.5l-7.412-17.03m12.884 13.27l-4.268-9.89m28.368 4.7l-7.583 3.43m-2.702-11.57l-12.54 5.62m1.7-7.56l-9.784 4.4" stroke-linecap="round" stroke-linejoin="round"/>
    <path fill="#2C9144" d="M49.685 410.12c4.748-12.864 10.465-29.72 29.512-38.455 5.58-2.56 21.882-11.71 30.908 7.73l6.778-3.11.7 1.506 1.81 3.9-6.573 3.02c9.024 19.44-8.77 25.92-14.35 28.48-19.043 8.74-35.66 2.12-48.59-2.64l-.195-.42z"/>
    <path stroke="#231F20" stroke-width="2.606" d="M52.426 413.078c4.748-12.866 10.466-29.722 29.512-38.457 5.58-2.55 21.882-11.71 30.91 7.73l6.777-3.1.7 1.51 1.81 3.9-6.573 3.02c9.023 19.44-8.77 25.92-14.35 28.48-19.043 8.74-35.66 2.12-48.59-2.64l-.196-.42zm55.474-25.183l-44.655 20.48m1.12-5.583l6.016 2.308m-.37-6.382l7.82 2.97m-5.48-8.26l12.93 4.85m-5.48-8.263l12.93 4.85m-1.1-13.97l17.39 6.497m-18.49.052l10.08 3.805m-23.1 17.14l2.8-7.84m10.21 6.09l4.678-12.92m4.26 6.47l3.63-10.1" stroke-linecap="round" stroke-linejoin="round"/>
    <path fill="#713F19" d="M396.72 66.8c12.46-5.823 22.77-2.787 30.444 3.343 7.675 6.13 5.325 11.21-1.933 15.088-4.84 2.59-11.62 3.23-17.26 5.86-5.64 2.64-10.49 7.44-15.58 9.5-7.63 3.08-13.01 1.62-12.73-8.23.28-9.84 4.61-19.72 17.07-25.55"/>
    <path fill="#E8CE9B" d="M397.164 81.08c6.232-2.91 14.073-2.65 17.91.414 3.838 3.067 2.663 5.606-.966 7.543-2.423 1.296-8.5 2.87-11.322 4.19-2.818 1.315-5.244 3.715-7.79 4.744-3.815 1.54-6.504.81-6.366-4.11.138-4.92 2.303-9.86 8.534-12.77"/>
    <path stroke="#211E1E" stroke-width="2.606" d="M401.04 67.02c12.46-5.824 22.77-2.787 30.444 3.343 7.675 6.13 5.325 11.208-1.933 15.087-4.84 2.59-11.62 3.223-17.26 5.86-5.64 2.637-10.49 7.437-15.58 9.492-7.63 3.08-13.01 1.615-12.73-8.232.28-9.847 4.61-19.726 17.07-25.55z"/>
    <path stroke="#211E1E" stroke-width="2.43" d="M429.12 75.446s-10.713-8.78-25.124-2.042" stroke-linecap="round" stroke-linejoin="round"/>
    <path fill="#713F19" d="M906.32 378.94c12.46-5.825 22.77-2.788 30.444 3.342 7.675 6.13 5.325 11.208-1.933 15.088-4.84 2.588-11.62 3.222-17.26 5.86-5.64 2.636-10.49 7.437-15.58 9.49-7.63 3.082-13.01 1.616-12.73-8.23.28-9.848 4.61-19.727 17.07-25.55"/>
    <path fill="#E8CE9B" d="M906.764 393.22c6.232-2.912 14.073-2.653 17.91.412 3.838 3.068 2.663 5.607-.966 7.544-2.423 1.296-8.5 2.87-11.322 4.188-2.818 1.317-5.244 3.717-7.79 4.746-3.815 1.54-6.504.806-6.366-4.118.138-4.923 2.303-9.862 8.534-12.773"/>
    <path stroke="#211E1E" stroke-width="2.606" d="M910.64 379.16c12.46-5.825 22.77-2.79 30.444 3.342 7.675 6.13 5.325 11.208-1.933 15.087-4.84 2.58-11.62 3.22-17.26 5.86-5.64 2.63-10.49 7.43-15.58 9.49-7.63 3.08-13.01 1.61-12.73-8.23.28-9.85 4.61-19.73 17.07-25.55z"/>
    <path stroke="#211E1E" stroke-width="2.43" d="M938.72 387.585s-10.713-8.78-25.124-2.042" stroke-linecap="round" stroke-linejoin="round"/>
    <path fill="#EEDAAE" d="M919.28 224.2c6.285-8.568 5.582-16.858 2.148-23.62-3.436-6.768-10.605-4.535-8.782 1.564 1.824 6.096-.935 10.462-3.78 14.34-2.847 3.878-6.182 7.815-12.517 7.867-6.34.06-6.35 7.6 1.1 8.9 7.44 1.3 15.53-.47 21.82-9.04"/>
    <path stroke="#211E1E" stroke-width="2.43" d="M917.268 225.083c6.286-8.567 5.583-16.857 2.15-23.62-3.437-6.767-10.606-4.534-8.783 1.565 1.824 6.096-.935 10.462-3.78 14.338-2.847 3.88-6.182 7.816-12.517 7.87-6.338.05-6.34 7.592 1.107 8.89 7.445 1.3 15.537-.476 21.823-9.043z"/>
    <path stroke="#211E1E" stroke-width="2.43" d="M915.168 202.43s4.96 9.476-2.31 19.383l.064.05c-7.273 9.907-17.748 7.946-17.748 7.946" stroke-linecap="round" stroke-linejoin="round"/>
    <path fill="#EEDAAE" d="M233.174 100.217c1.613 10.503 7.972 15.867 15.183 18.222 7.214 2.35 10.705-4.3 5.103-7.32-5.6-3.02-6.737-8.06-7.466-12.81-.73-4.76-1.156-9.9 3.287-14.42 4.45-4.52-.88-9.86-7.07-5.51-6.18 4.34-10.65 11.32-9.03 21.82"/>
    <path stroke="#211E1E" stroke-width="2.43" d="M233.97 98.17c1.614 10.503 7.973 15.867 15.184 18.222 7.214 2.355 10.705-4.293 5.103-7.317-5.6-3.02-6.737-8.06-7.466-12.81-.73-4.758-1.15-9.9 3.29-14.416 4.45-4.52-.88-9.86-7.07-5.51-6.18 4.34-10.65 11.32-9.03 21.82z"/>
    <path stroke="#211E1E" stroke-width="2.43" d="M251.475 112.703s-10.208-3.193-12.072-15.34l-.08.01c-1.864-12.148 6.93-18.168 6.93-18.168" stroke-linecap="round" stroke-linejoin="round"/>
    <path fill="#EEDAAE" d="M488.033 388.063c-10.25-2.798-17.738.83-22.822 6.458-5.08 5.64-.43 11.53 4.61 7.64 5.04-3.88 10.11-2.87 14.74-1.61 4.65 1.27 9.52 2.97 11.84 8.87 2.32 5.9 9.36 3.2 7.91-4.22-1.45-7.41-6.01-14.33-16.26-17.13"/>
    <path stroke="#211E1E" stroke-width="2.43" d="M489.58 389.624c-10.252-2.8-17.74.83-22.823 6.458-5.085 5.633-.432 11.526 4.608 7.638 5.038-3.888 10.103-2.877 14.742-1.61 4.642 1.268 9.512 2.97 11.83 8.866 2.32 5.9 9.363 3.2 7.906-4.22-1.457-7.416-6.013-14.334-16.264-17.132z"/>
    <path stroke="#211E1E" stroke-width="2.43" d="M469.183 399.702s7.07-8.026 18.924-4.788l.023-.08c11.856 3.24 13.78 13.723 13.78 13.723" stroke-linecap="round" stroke-linejoin="round"/>
    <path fill="#E2E166" d="M616.66 13.135c17.753-5.9 44.005-.47 60.027 28.986 16.318 30.01 16.735 43.01 32.785 61.92 20.176 23.77 41.58 58.07 44.258 84.73 2.454 24.41-6.995 52.54-61.27 69.49-54.277 16.95-77.924-.85-89.673-22.36-12.825-23.48-14.536-63.93-11.324-95 2.558-24.72-4.43-35.67-7.91-69.68-3.412-33.39 15.15-52.81 33.107-58.06"/>
    <path fill="#94B44E" d="M625.86 44.252c15.105-5.02 37.436-.398 51.066 24.66 13.883 25.524 14.24 36.585 27.893 52.673 17.16 20.223 35.37 49.403 37.65 72.076 2.08 20.77-5.95 44.7-52.13 59.11-46.18 14.42-66.29-.72-76.29-19.02-10.91-19.97-12.37-54.38-9.64-80.82 2.17-21.03-3.77-30.34-6.73-59.28-2.91-28.4 12.89-44.93 28.16-49.39"/>
    <path stroke="#231F20" stroke-width="3.909" d="M612.09 15.374c17.755-5.9 44.007-.468 60.028 28.987 16.32 30.01 16.736 43.01 32.786 61.92 20.176 23.78 41.58 58.08 44.258 84.73 2.454 24.41-6.995 52.54-61.27 69.49-54.277 16.95-77.924-.85-89.673-22.36-12.83-23.48-14.54-63.93-11.33-95 2.56-24.72-4.43-35.67-7.91-69.68-3.41-33.39 15.15-52.81 33.1-58.06"/>
    <path fill="#885F3B" d="M698.045 177.542c6.836 22.102-4.673 45.346-25.707 51.913-21.034 6.565-43.628-6.028-50.464-28.133-6.835-22.102 4.677-45.346 25.71-51.91 21.034-6.568 43.625 6.027 50.46 28.13"/>
    <path stroke="#231F20" stroke-width="3.909" d="M703.48 175.845c6.835 22.103-4.674 45.346-25.708 51.914-21.033 6.56-43.627-6.03-50.463-28.14-6.84-22.1 4.67-45.35 25.71-51.91 21.03-6.57 43.62 6.03 50.46 28.13z"/>
    <path stroke="#231F20" stroke-width="2.606" d="M610.027 87.773c.352-5.75 6.643-7.523 10.037-2.317m23.252-7.614c.352-5.75 6.643-7.522 10.037-2.316" stroke-linecap="round" stroke-linejoin="round"/>
    <path fill="#211E1E" d="M656.193 165.615c-.784 1.67-2.766 2.387-4.43 1.6-1.66-.786-2.374-2.778-1.59-4.448.78-1.673 2.764-2.387 4.428-1.602 1.67.788 2.38 2.78 1.6 4.45m21.33 1.302c-.78 1.67-2.76 2.387-4.43 1.6-1.66-.786-2.37-2.778-1.59-4.448.78-1.68 2.77-2.39 4.43-1.61 1.67.79 2.38 2.78 1.6 4.45"/>
    <path stroke="#211E1E" stroke-width="2.606" d="M671.913 176.794s-8.427 9.164-15.578-1.04" stroke-linecap="round"/>
    <path stroke="#231F20" stroke-width="2.606" d="M641.998 89.136c.01 6.2-8.78 9.175-12.775 3.814l12.775-3.814z" stroke-linecap="round" stroke-linejoin="round"/>
    <path fill="#4F5EA7" d="M415.117 357.104s2.006-3.808 1.818-9.89c-6.054.86-10.92 1.52-14.71 6.566-5.716-2.64-10.314-.903-16.05 1.222 2.7 5.445 6.265 7.842 6.265 7.842"/>
    <path fill="#3D489D" d="M414.22 399.405c15.303-3.874 23.577-14.145 20.365-26.958-3.697-14.734-15.983-17.757-30.647-14.043-14.664 3.712-24.058 12.22-20.364 26.958 3.215 12.813 15.344 17.917 30.646 14.043"/>
    <path stroke="#231F20" stroke-width="3.909" d="M411.15 400.183c15.3-3.874 23.575-14.146 20.363-26.958-3.697-14.734-15.983-17.758-30.647-14.043-14.664 3.71-24.058 12.22-20.364 26.958 3.215 12.812 15.344 17.917 30.647 14.043z" stroke-linecap="round" stroke-linejoin="round"/>
    <path stroke="#231F20" stroke-width="3.909" d="M412.567 357.75s2.006-3.81 1.818-9.89c-6.054.86-10.92 1.52-14.71 6.565-5.72-2.638-10.315-.903-16.05 1.223 2.7 5.444 6.264 7.842 6.264 7.842" stroke-linecap="round" stroke-linejoin="round"/>
    <path fill="#211E1E" d="M391.266 379.185c-.203 1.144-1.292 1.906-2.428 1.702-1.138-.204-1.896-1.3-1.693-2.442.203-1.144 1.29-1.906 2.428-1.7 1.138.205 1.896 1.296 1.693 2.44m22.82.62c-.205 1.143-1.293 1.904-2.43 1.7-1.14-.204-1.896-1.298-1.693-2.44.204-1.146 1.29-1.907 2.428-1.7 1.14.203 1.9 1.295 1.7 2.44"/>
    <path stroke="#211E1E" stroke-width="2.606" d="M403.71 384.874s.23 1.827-1.308 1.8c-1.537-.03-2.02-1.14-2.185-1.44-.563.624-1.21 1.334-2.14 1.36-.927.024-1.844-.628-1.56-1.853" stroke-linecap="round" stroke-linejoin="round"/>
    <path fill="#4F5EA7" d="M332.57 50.686s3.27-2.07 5.842-6.908c-5.114-2.06-9.212-3.74-14.428-1.508-3.287-4.643-7.653-5.36-13.085-6.29-.33 5.476 1.38 8.958 1.38 8.958"/>
    <path fill="#3D489D" d="M312.96 83.33c13.688 3.88 24.744-.41 27.96-11.872 3.7-13.18-4.548-21.085-17.664-24.802-13.117-3.72-24.262-1.308-27.96 11.87-3.218 11.463 3.977 20.925 17.664 24.805"/>
    <path stroke="#231F20" stroke-width="3.909" d="M310.213 82.552c13.687 3.88 24.743-.41 27.96-11.873 3.7-13.18-4.548-21.09-17.665-24.81-13.116-3.72-24.26-1.31-27.96 11.87-3.218 11.46 3.978 20.92 17.665 24.8z" stroke-linecap="round" stroke-linejoin="round"/>
    <path stroke="#231F20" stroke-width="3.909" d="M330.29 50.04s3.27-2.07 5.84-6.908c-5.114-2.06-9.21-3.74-14.427-1.508-3.288-4.644-7.654-5.36-13.085-6.29-.323 5.476 1.388 8.957 1.388 8.957" stroke-linecap="round" stroke-linejoin="round"/>
    <path fill="#211E1E" d="M308.823 67.843c-.203 1.144-1.292 1.905-2.428 1.7-1.138-.203-1.896-1.297-1.693-2.44.203-1.145 1.29-1.907 2.428-1.7 1.138.204 1.896 1.296 1.693 2.44m22.82.617c-.204 1.145-1.293 1.907-2.43 1.703-1.14-.205-1.896-1.3-1.692-2.443.21-1.143 1.29-1.905 2.43-1.698 1.14.204 1.9 1.295 1.7 2.44"/>
    <path stroke="#211E1E" stroke-width="2.606" d="M321.267 73.532s.23 1.827-1.308 1.798c-1.54-.03-2.03-1.14-2.19-1.44-.57.626-1.21 1.335-2.14 1.36-.93.025-1.85-.627-1.56-1.852" stroke-linecap="round" stroke-linejoin="round"/>
    <path fill="#C31F44" d="M815.918 125.27c11.157 1.32 22.224-4.714 30.297-17.417 7.28-11.452 14.274-27.25 16.866-44.173 2.57-16.724-11.52-25.425-33.31-28.796-21.79-3.37-37.83.673-40.39 17.396-2.59 16.923-.65 34.104 2.87 47.226 3.9 14.553 12.65 23.65 23.69 25.764"/>
    <path stroke="#231F20" stroke-width="3.909" d="M819.622 125.843c11.157 1.32 22.224-4.714 30.297-17.417 7.28-11.452 14.27-27.25 16.86-44.174 2.56-16.723-11.52-25.424-33.32-28.795-21.8-3.37-37.83.673-40.39 17.396-2.59 16.922-.66 34.104 2.86 47.226 3.9 14.55 12.64 23.64 23.68 25.76z" stroke-linecap="round" stroke-linejoin="round"/>
    <path fill="#06A44E" d="M838.425 20.994l6.278 2.31-1.706 8.93c20.356 3.148 23.71 16.57 24.668 21.618-8.61-5.573-16.428-6.374-21.922-8.602-1.25 8.165-12.982 12.71-12.982 12.71l-.43-.064s-9.82-7.882-8.57-16.046c-5.9.464-13.6-1.136-23.48 1.576 2.43-4.52 9.64-16.31 30-13.16l1.05-9.03 6.68-.31.43.068z"/>
    <path stroke="#231F20" stroke-width="3.909" d="M834.683 19.482l6.278 2.31-1.7 8.93c20.36 3.148 23.71 16.57 24.67 21.618-8.61-5.573-16.42-6.374-21.92-8.6-1.25 8.163-12.98 12.71-12.98 12.71l-.43-.066s-9.82-7.88-8.57-16.046c-5.9.464-13.6-1.136-23.48 1.576 2.43-4.52 9.64-16.31 30-13.16l1.05-9.03 6.68-.31.44.068z" stroke-linecap="round" stroke-linejoin="round"/>
    <path fill="#211E1E" d="M812.842 101.337c-.292 1.64-1.852 2.733-3.485 2.44-1.63-.294-2.72-1.862-2.428-3.503.29-1.638 1.85-2.732 3.48-2.44 1.63.294 2.72 1.862 2.43 3.503m31.42.887c-.3 1.64-1.86 2.733-3.49 2.44-1.63-.294-2.72-1.86-2.43-3.503.29-1.63 1.85-2.73 3.48-2.43 1.63.3 2.72 1.86 2.43 3.5"/>
    <path stroke="#211E1E" stroke-width="2.606" d="M832.294 107.5s.414 3.292-2.355 3.24c-2.78-.05-3.65-2.052-3.94-2.594-1.01 1.128-2.18 2.405-3.85 2.45-1.68.044-3.33-1.13-2.81-3.337" stroke-linecap="round" stroke-linejoin="round"/>
    <path fill="#211E1E" d="M802.252 50.407s-3.348 6.412-1.024 6.818c4.632.814 4.226-6.795 1.024-6.818m6.475 10.063s-3.348 6.414-1.024 6.82c4.632.814 4.226-6.795 1.024-6.82m6.668-8.438s-3.348 6.413-1.024 6.818c4.64.814 4.23-6.795 1.03-6.818M800.12 65.94s-3.347 6.414-1.023 6.82c4.637.814 4.23-6.796 1.03-6.82m6.474 9.53s-3.34 6.414-1.02 6.82c4.63.814 4.23-6.795 1.03-6.82"/>
    <path fill="#F18E4D" d="M192.775 420.104c14.258 4.646 23.178-16.503 27.752-24.068 4.575-7.562 23.832-42.535 30.946-56.75 7.115-14.217 20.78-41.17 29.527-64.083 5.572-14.598-11.507-27.328-21.07-31.013-9.564-3.685-30.736-5.7-36.308 8.9-8.748 22.914-16.527 52.133-20.7 67.485-4.17 15.35-13.13 54.29-14.763 62.988-1.64 8.696-9.08 30.416 4.61 36.54"/>
    <path fill="#1A5B34" d="M271.47 245.886s12.325-32.284 14.53-38.066c2.208-5.783 26.545-23.11 28.858-30.275 2.313-7.164-4.843-6.107-9.196-3.544 6.612-8.47 17.05-18.95 11.054-23.97-3.68-3.08-7.003.1-9.603 2.49 5.99-10.76 9.168-19.59 1.842-22.51-7.388-2.75-10.905 5.95-13.612 17.98-.34-3.52-.698-8.11-5.484-8.3-7.8-.3-7.01 14.51-7.74 25.26-1.53-4.83-6.15-10.42-9.2-3.54-3.05 6.88 3.51 36.12 1.3 41.9l-14.53 38.07"/>
    <path stroke="#231F20" stroke-width="3.909" d="M195.9 418.01c14.26 4.65 23.18-16.503 27.753-24.068 4.575-7.562 23.832-42.535 30.946-56.75 7.11-14.217 20.77-41.17 29.52-64.083 5.57-14.6-11.51-27.33-21.07-31.02-9.57-3.69-30.74-5.7-36.31 8.9-8.75 22.91-16.53 52.13-20.7 67.48-4.17 15.35-13.13 54.29-14.77 62.99-1.63 8.69-9.08 30.41 4.61 36.54z"/>
    <path stroke="#231F20" stroke-width="3.909" d="M268.865 244.316s12.325-32.285 14.53-38.067c2.208-5.79 26.545-23.11 28.858-30.28 2.313-7.17-4.843-6.11-9.196-3.55 6.612-8.48 17.05-18.96 11.053-23.97-3.68-3.08-7.002.09-9.602 2.48 5.99-10.76 9.167-19.6 1.842-22.51-7.388-2.75-10.905 5.95-13.612 17.97-.34-3.53-.698-8.12-5.484-8.31-7.797-.3-7.01 14.51-7.737 25.25-1.532-4.83-6.148-10.42-9.196-3.54-3.04 6.88 3.52 36.11 1.31 41.9l-14.53 38.07" stroke-linecap="round" stroke-linejoin="round"/>
    <path stroke="#231F20" stroke-width="2.606" d="M227.918 285.487c3.663-4.806 10.18-2.646 10.102 3.893m7.813 11.652c-2.73 3.584-9.115 1.385-9.057-3.49l9.057 3.49zm5.01-6.645c3.663-4.806 10.18-2.646 10.102 3.892" stroke-linecap="round" stroke-linejoin="round"/>
    <path fill="#F18E4D" d="M257.636 449.043c13.992 5.408 24.025-15.234 28.995-22.54 4.98-7.305 26.07-41.19 33.93-55.004 7.86-13.82 22.95-40 32.9-62.41 6.35-14.28-10.03-27.91-19.39-32.1-9.35-4.2-30.38-7.35-36.73 6.93-9.95 22.41-19.28 51.17-24.26 66.27-4.98 15.1-16 53.5-18.09 62.1-2.09 8.59-10.69 29.88 2.66 36.74"/>
    <path stroke="#231F20" stroke-width="3.909" d="M260.762 447.473c13.993 5.408 24.025-15.234 28.995-22.54 4.974-7.305 26.067-41.192 33.93-55.005 7.86-13.812 22.943-39.99 32.897-62.402 6.343-14.278-10.035-27.905-19.388-32.1-9.352-4.197-30.386-7.346-36.73 6.933-9.956 22.4-19.282 51.17-24.266 66.27-4.983 15.1-16.005 53.5-18.097 62.1-2.095 8.59-10.69 29.88 2.66 36.73z"/>
    <path fill="#2A4431" d="M342.07 275.444L358 239.586c2.422-5.444 24.15-10.203 26.73-16.977 2.576-6.78-4.57-6.23-8.996-4.04 6.9-7.76 17.68-17.21 11.924-22.46-3.535-3.22-6.96-.37-9.636 1.77 6.37-10.01 9.876-18.35 2.714-21.65-7.23-3.15-11.064 5.04-14.226 16.49-.2-3.44-.375-7.9-5.12-8.4-7.73-.81-7.533 13.57-8.677 23.91-1.33-4.77-5.695-10.49-8.993-4.03-3.298 6.45 5.19 24.76 2.77 30.21-2.42 5.44-15.93 35.85-15.93 35.85"/>
    <path stroke="#231F20" stroke-width="3.909" d="M343.113 278.1s14.03-31.576 16.54-37.233c2.51-5.654 24.446-10.873 27.14-17.9 2.69-7.03-4.512-6.36-8.995-4.035 7.054-8.106 18.037-18.014 12.317-23.343-3.512-3.28-6.998-.28-9.723 1.96 6.555-10.42 10.2-19.07 3.04-22.38-7.23-3.15-11.207 5.36-14.552 17.22-.153-3.54-.263-8.15-5.033-8.59-7.768-.72-7.773 14.11-9.07 24.8-1.272-4.91-5.583-10.74-8.994-4.04-3.412 6.7 4.872 25.48 2.358 31.13l-16.54 37.23" stroke-linecap="round" stroke-linejoin="round"/>
    <path stroke="#231F20" stroke-width="2.606" d="M300.34 316.644c3.913-4.6 10.306-2.094 9.88 4.432m6.804 12.372c-2.917 3.432-9.175.89-8.857-3.973l8.857 3.973zm5.2-6.858c3.912-4.6 10.305-2.093 9.88 4.433" stroke-linecap="round" stroke-linejoin="round"/>
    <path stroke="#211E1E" stroke-width="2.606" d="M337.853 317.957s4.39 4.958 10.575 4.654" stroke-linecap="round"/>
    <path fill="#FEFEFE" d="M346.152 326.52s-2.858 1.263-6.47-2.276"/>
    <path stroke="#231F20" stroke-width="2.606" d="M346.152 326.52s-2.858 1.263-6.47-2.276" stroke-linecap="round" stroke-linejoin="round"/>
    <path stroke="#211E1E" stroke-width="2.606" d="M211.766 295.447s.985 7.13 8.636 8.92m-11.242.503s4.255 7.13 15.277 10.18m54.54 21.754s2.775 5.716 7.41 7.1m-61.595-88.244s4.155 3.947 9.576 6.66" stroke-linecap="round"/>
    <path fill="#F3E266" d="M856.972 246.167c6.11 3.31 1.62 11.564 1.443 17.3-.177 5.73 12.91 17.44 12.76 40.238-.128 19.088-5.593 29.712-13.474 44.39-7.87 14.675-13.71 25.103-29.51 35.69-18.88 12.652-35.8 8.095-40.47 11.393-4.67 3.298-8.74 11.78-15.18 8.29-4.98-2.702-1.61-11.565-1.44-17.3.18-5.732-12.91-17.44-12.76-40.24.13-19.086 5.6-29.71 13.47-44.387 7.88-14.67 13.72-25.1 29.52-35.69 18.88-12.65 35.81-8.09 40.48-11.39 4.68-3.29 9.49-11.37 15.18-8.29"/>
    <path stroke="#211E1E" stroke-width="3.909" d="M862.294 249.05c6.11 3.313 1.62 11.566 1.444 17.3-.178 5.733 12.91 17.44 12.76 40.24-.128 19.087-5.594 29.712-13.474 44.388-7.878 14.677-13.713 25.105-29.516 35.693-18.88 12.65-35.805 8.1-40.476 11.4-4.67 3.3-8.74 11.78-15.18 8.29-4.986-2.7-1.617-11.56-1.44-17.3.177-5.73-12.914-17.44-12.76-40.24.125-19.08 5.593-29.71 13.47-44.38 7.88-14.67 13.714-25.1 29.517-35.69 18.87-12.65 35.8-8.09 40.47-11.39 4.67-3.29 9.49-11.37 15.18-8.29z"/>
    <path stroke="#231F20" stroke-width="2.606" d="M819.112 291.078c1.857-5.452 8.39-5.48 10.29.443m18.648-.41c1.857-5.45 8.39-5.48 10.29.44m-15.868 15.14c.088 2.77-1.667 5.07-3.926 5.14-2.256.08-4.16-2.1-4.25-4.87-.09-2.76 1.668-5.06 3.927-5.14 2.256-.07 4.16 2.11 4.25 4.88z" stroke-linecap="round" stroke-linejoin="round"/>
    <path fill="#211E1E" d="M846.288 302.01c-.59.083-1.138-.33-1.22-.922-.085-.595.327-1.144.916-1.228.59-.086 1.138.327 1.22.92.087.596-.324 1.145-.916 1.23m-74.266 55.026c-.592.084-1.14-.33-1.222-.92-.083-.596.328-1.145.917-1.23.59-.085 1.138.328 1.222.922.08.594-.33 1.144-.92 1.228m0-8.006c-.59.084-1.14-.33-1.22-.92-.09-.595.32-1.145.91-1.23.59-.085 1.14.328 1.22.923.08.594-.33 1.143-.92 1.227m3.37 4.703c-.59.084-1.14-.33-1.22-.92-.09-.595.33-1.145.91-1.23.59-.085 1.14.33 1.22.923.08.594-.33 1.144-.92 1.227m1.08-8.563c-.59.082-1.14-.33-1.22-.923-.09-.594.32-1.144.91-1.227.59-.087 1.14.327 1.22.92.08.595-.33 1.145-.92 1.23m-6.94-1.533c-.6.084-1.14-.33-1.23-.922-.08-.594.33-1.143.92-1.227.59-.087 1.14.327 1.22.92.08.595-.33 1.145-.92 1.23"/>
    <path fill="#107741" d="M986.735 255.404c-1.823-21.362-3.767-51.07 4.306-67.878 8.08-16.808 38.18-46.62 25.41-57.427-7.08-6-25.15 2.98-27.91 7.12 10.43-12.44 32.8-54.4 22.69-68.42-7.69-10.67-24.29 2.18-28.54 6.73-.02-15.52 1.43-46.67-18.69-44.93-20.12 1.73-13.41 32.17-10.8 47.47-4.96-3.76-23.49-13.58-29.27-1.75-7.58 15.54 21.57 53.06 33.95 63.54-3.42-3.6-22.75-9.36-28.72-2.24-10.75 12.83 23.97 37.05 34.77 52.24 10.81 15.18 13.93 44.78 15.76 66.14"/>
    <path fill="#EC2576" d="M982.644 255.242c34.442-2.97 53.85 20.268 56.38 49.91 2.493 29.174-20.513 43.5-28.93 53.543-9.12 10.886-16.834 20.86-13.41 60.962-3.424-40.103-12.714-48.61-23.55-57.774-9.995-8.457-35.092-18.637-37.585-47.812-2.53-29.63 12.65-55.85 47.09-58.82"/>
    <path stroke="#231F20" stroke-width="3.909" d="M979.27 256.214c34.442-2.97 53.85 20.267 56.38 49.908 2.492 29.175-20.513 43.5-28.93 53.545-9.12 10.886-16.835 20.86-13.41 60.962-3.425-40.11-12.715-48.61-23.55-57.78-9.995-8.46-35.093-18.64-37.586-47.81-2.53-29.64 12.653-55.86 47.095-58.83m3.48-.91c-1.83-21.37-3.77-51.07 4.3-67.88 8.07-16.81 38.17-46.62 25.4-57.43-7.09-5.99-25.16 2.98-27.92 7.12 10.42-12.44 32.79-54.4 22.68-68.42-7.7-10.67-24.3 2.18-28.55 6.73-.02-15.52 1.43-46.67-18.7-44.93-20.12 1.73-13.42 32.17-10.81 47.47-4.96-3.76-23.497-13.58-29.27-1.75-7.588 15.55 21.57 53.06 33.95 63.54-3.428-3.6-22.758-9.36-28.72-2.24-10.757 12.83 23.96 37.06 34.77 52.24 10.802 15.18 13.923 44.78 15.75 66.15" stroke-linecap="round" stroke-linejoin="round"/>
    <path stroke="#231F20" stroke-width="2.606" d="M988.293 309.92s-7.1 8.5-15.54 1.34m-22.31-10.96c1.802-8.86 11.965-10.23 16.104-1.388" stroke-linecap="round" stroke-linejoin="round"/>
    <path stroke="#231F20" stroke-width="2.43" d="M952.802 294.703s-3.06-.56-3.29-4.05m1.33 8.185s-5.81-1.233-6.18-5.6" stroke-linecap="round" stroke-linejoin="round"/>
    <path stroke="#231F20" stroke-width="2.606" d="M1006.624 295.456c-3.277-8.423-13.526-8.03-16.105 1.387" stroke-linecap="round" stroke-linejoin="round"/>
    <path stroke="#231F20" stroke-width="2.43" d="M1003.35 290.345s2.92-1.076 2.556-4.554m.074 8.3s5.52-2.21 5.14-6.57" stroke-linecap="round" stroke-linejoin="round"/>
    <path stroke="#211E1E" stroke-width="2.43" d="M958.495 261.753s32.025 5.817 46.15-2.295m-54.202 7.314s10.49 4.07 23.27 4.07m-31.405 4.203s10.983 4.185 19.77 4.573"/>
    <path fill="#F6D137" d="M570.218 308.31c24.41 19.99 56.114 41.162 81.736 47.66 35.34 8.96 43.11 14.568 52.868 19.59 7.224 3.715 8.266 13.37 2.842 23.95-3.994 7.79-76.24 49.462-180.477-29.024-125.275-94.323-88.65-196.928-69.434-203.778 15.52-5.53 9.978-25.134 12.872-26.207 3.5-1.29 14.513.22 17.715.71 3.2.49-9.96 16.08 3.087 22.81 23.313 12.03 16.77 19.51 21.943 55.76 5.18 36.32 37.104 73.67 56.848 88.54"/>
    <path stroke="#211E1E" stroke-width="3.909" d="M572.344 304.364c24.41 19.99 56.114 41.16 81.735 47.658 35.34 8.962 43.07 12.585 52.83 17.605 7.22 3.717 8.29 15.355 2.87 25.935-4 7.79-76.24 49.463-180.48-29.024-125.27-94.323-89.61-200.872-69.43-203.778 10.37-1.49 5.93-21.75 8.82-22.82 3.49-1.29 11.92-2.21 15.12-1.722 3.2.487-5.3 17.017 2.5 22.896 20.97 15.79 23.98 18.464 29.16 54.72 5.17 36.32 37.1 73.67 56.84 88.535z" stroke-linecap="round" stroke-linejoin="round"/>
    <path fill="#E4BE21" d="M547.12 332.297c6.887 8.342 15.184 16.135 20.53 22.312 9.623 11.11 30.735 20.34 40.715 24.5 12.578 5.68 29.98 8.38 41.067 9.53 15.295 1.58 17.783-.32 22.376.96 3.4.95 4.882-.78 4.277 2.94-.443 2.74-22.95 19.42-75.655-2.54-28.95-12.07-44.77-26.04-52.78-37.95-9.513-14.14-12.272-21.59-10.235-24.46 2.277-3.21 5.033-.97 9.704 4.68"/>
    <path fill="#211E1E" d="M650.634 379.42c-1.818.26-3.504-1.013-3.762-2.84-.257-1.83 1.01-3.52 2.827-3.78 1.82-.26 3.5 1.013 3.76 2.84.26 1.827-1.01 3.52-2.83 3.78m29.83 7.614c-1.82.26-3.51-1.013-3.77-2.84-.26-1.83 1.01-3.52 2.82-3.78 1.82-.26 3.5 1.013 3.76 2.84.26 1.827-1.01 3.52-2.83 3.78"/>
    <path stroke="#231F20" stroke-width="2.606" d="M670.116 393.072s-9.2 6.04-15.18-3.222" stroke-linecap="round" stroke-linejoin="round"/>
    <path fill="#211E1E" d="M703.25 367.938c4.218-1.91 7.77-.464 10.387 5.363 2.616 5.83 3.368 10.74-2.055 13.2-4.22 1.91-7.77.47-10.387-5.36-2.618-5.83-3.368-10.73 2.055-13.19"/>
    <path fill="#5E286A" d="M172.848 25.476c29.786 13.776 27.817 53.068 19.18 80.275-5.493 17.32-14.42 33.46-20.207 55.94-3.45 13.44-9.03 33.25-13.96 55.51-8.66 39.16-36.33 129.16-115.27 92.65l.16-.33c-78.93-36.5-28.89-116.15-4.93-148.23 13.62-18.25 24.97-35.39 32.88-46.76 13.23-19.04 19.63-36.35 29.14-51.8 14.95-24.29 43.37-51.35 73.16-37.58l-.15.33z"/>
    <path stroke="#231F20" stroke-width="3.909" d="M178.058 25.476c29.787 13.776 27.817 53.068 19.18 80.275-5.493 17.32-14.42 33.46-20.207 55.94-3.45 13.44-9.03 33.25-13.96 55.51-8.66 39.16-36.33 129.16-115.27 92.65l.15-.33c-78.93-36.5-28.89-116.15-4.92-148.23C56.65 143.04 68 125.9 75.91 114.53c13.23-19.037 19.63-36.35 29.14-51.804 14.95-24.29 43.37-51.35 73.16-37.576l-.152.33z"/>
    <path fill="#87A475" d="M184.202 1.84l5.66 6.243-8.3 17.142c22.08 10.232 17.724 34.87 16.968 41.363-4.394-11.947-13.15-20.085-18.605-24.535-11.58 4.3-19.474 11.53-19.474 11.53l-.46-.217s.14-11.362-3.91-22.37c-6.91-1.28-17.83-3.28-30.51 1.425 4.43-4.78 20.12-23.83 42.19-13.59L175.5 1l8.233.623.47.217z"/>
    <path stroke="#231F20" stroke-width="3.909" d="M188.37 3.41l5.66 6.244-8.3 17.142c22.08 10.232 17.724 34.87 16.97 41.362-4.396-11.946-13.152-20.084-18.607-24.534-11.58 4.3-19.473 11.53-19.473 11.53l-.47-.217s.14-11.363-3.907-22.37c-6.91-1.28-17.835-3.282-30.508 1.424 4.426-4.78 20.11-23.83 42.19-13.59l7.742-17.82 8.235.63.468.22z" stroke-linecap="round" stroke-linejoin="round"/>
    <path fill="#231F20" d="M144.187 91.956c-2.217-.665-3.475-3.01-2.814-5.238.662-2.227 2.996-3.492 5.213-2.827 2.215.67 3.475 3.01 2.814 5.24-.662 2.23-2.996 3.49-5.213 2.83m35.95 16.23c-2.217-.66-3.475-3.01-2.813-5.24.662-2.23 2.996-3.49 5.213-2.82 2.214.67 3.475 3.01 2.813 5.24-.66 2.23-2.996 3.49-5.213 2.83"/>
    <path stroke="#231F20" stroke-width="2.606" d="M166.427 107.047c-3.676 4.316-11.55 1.112-11.147-5.01l11.147 5.01z" stroke-linecap="round" stroke-linejoin="round"/>
    <path fill="#491D59" d="M138.453 170.658c11.827 5.47 11.465 17.655 9.83 30.62-.903 7.188-2.565 17.113-4.633 26.044-1.86 8.02-6.88 21.168-11.082 28.134-8.217 13.62-21.482 37.18-45.84 28.122l.06-.13c-31.345-14.496-11.47-46.124-1.956-58.864 5.41-7.242 9.917-14.05 13.056-18.57 5.255-7.555 7.795-14.432 11.572-20.567 5.937-9.646 17.225-20.39 29.052-14.92l-.06.13z"/>
  </g>
</svg>
