<svg xmlns="http://www.w3.org/2000/svg" width="284" height="70">
  <g fill="#231F20" fill-rule="evenodd">
    <path fill-rule="nonzero" d="M173.456 50.388c0-.35.55-.233.863 0 .22.18.34.455.33.74-.16.72-1.08 4.048-1.49 6.014l-.14.545c2.31-1.09 4.39-2.603 6.13-4.457 2.23-2.316 2.66-3.678 2.29-4.437-.57-1.207-4.49-1.05-7.18-.37-3.92 1.012-5.65 2.55-5.63 2.86.02.312-.45.176-.81-.135-.24-.164-.33-.474-.22-.74 2.39-2.06 5.39-3.284 8.55-3.484 4.35-.428 6.04.642 6.35 2.316.55 2.783-4.14 6.754-6.73 8.233 1.76-.23 3.54.02 5.17.72.64.33 1.09.946 1.2 1.657.11.712-.13 1.434-.64 1.944-1.09 1.27-2.42 2.308-3.92 3.055-1.22.69-2.54 1.18-3.92 1.46-.38.08-.77-.02-1.06-.28-.26-.24-.22-.53.14-.55 1.5-.4 2.95-.99 4.29-1.77 1.3-.66 2.46-1.56 3.41-2.65.79-1.09.88-1.95-.41-2.34-1.48-.32-3.01-.39-4.51-.22-1.08.06-2.11.42-3 1.03-.61 2.4-1.04 4.85-1.27 7.32 0 .6-.37.66-.77.48-.32-.09-.55-.35-.61-.67.12-.51 1.06-5.37 1.76-8.51l1.76-7.81zm10.96 11.892c-.603-.574-.9-1.395-.803-2.22.095-1.066.292-2.12.588-3.152.42-1.537.91-2.86 1.02-3.172.12-.31.47-.117.77.117.29.136.45.447.39.76-.36.9-.68 1.824-.94 2.763-.55 1.848-1.02 4.01-.53 4.3.49.293 1.61-1.556 2.81-3.58s2.3-4.05 2.67-4.808c.16-.292.63-.136.94.176.22.17.33.448.28.72-.47 1.245-1.21 4.3-1.86 7.084.83-.662 1.7-1.266 2.61-1.81.68-.467 1.56-.548 2.32-.214.22.142.37.367.41.623 0 .253 0 .39-.37.272-.72-.23-1.5-.14-2.15.25-.8.44-1.55.98-2.21 1.61l-1.02.87c-.18.76-.4 1.52-.66 2.26-.42 1.39-1.17 2.67-2.2 3.71-.54.46-1.28.62-1.96.43-.45-.1-.82-.42-.99-.84-.17-.43-.1-.91.16-1.28.84-1.14 1.79-2.18 2.84-3.12.57-.55 1.18-1.07 1.79-1.6l.18-.64c.43-1.95.86-4.19.88-4.34-.39.8-.83 1.59-1.31 2.35-.52.9-1.18 1.72-1.96 2.43-.48.37-1.16.38-1.65.02zm.844 5.975c.797-.42 1.416-1.112 1.745-1.946.317-.63.585-1.28.804-1.95-.55.5-1.04.97-1.48 1.38-.62.58-1.17 1.24-1.65 1.95-.34.43-.08.85.59.62l-.02-.06zm27.902-25.204c.274.22.392.47 0 .55-1.612.85-3.108 1.89-4.45 3.12-2.1 1.57-3.968 3.41-5.55 5.49.384 1.02 1.002 1.94 1.804 2.69.78.74 1.68 1.33 2.666 1.75 2.628 1.13 5.51-.29 5.294-1.79 0-.41.255-.45.53-.25.326.3.455.75.333 1.17-.36 1.56-2.57 2.63-4.83 2.44-1.04-.09-2.05-.41-2.94-.93-1.15-.72-2.14-1.66-2.93-2.76-.32-.38-.58-.82-.75-1.28-.51 2.43-.76 4.9-.77 7.38.12.7-.29.72-.73.49-.36-.16-.62-.48-.69-.85 0 0 0-1.07 1.31-8.39.76-4.56 1.84-8.64 1.68-9.44 0-.45.35-.47.77-.25.35.17.6.51.64.9 0 .72-.9 3.89-1.74 7.79l.39-.56c1.33-1.69 2.87-3.2 4.59-4.5 1.33-1.22 2.86-2.21 4.53-2.94.28-.02.57.06.8.24z"/>
    <path fill-rule="nonzero" d="M219.24 49.182l.334-.623c.048-.11.142-.19.256-.22.114-.03.236-.01.332.06.376.15.607.53.568.93-.47 1.13-.8 2.32-.98 3.54-.216 1.32-.176 2.47.333 2.51.906-.61 1.592-1.49 1.96-2.51.655-1.13 1.225-2.3 1.707-3.51 0-.33.373-.26.55 0 .15.2.207.45.156.7-.355 1.02-.788 2.02-1.294 2.98-.357.74-.784 1.45-1.275 2.12-.25.47-.688.82-1.208.96s-1.08.06-1.54-.21c-.43-.4-.68-.94-.73-1.52-.09-.71-.02-1.44.19-2.12-.88 1.83-2.02 3.54-3.38 5.06-.32.42-.92.52-1.36.21-.53-.38-.83-.99-.81-1.64.19-1.44.58-2.84 1.15-4.17.42-1.43 1.33-2.66 2.57-3.49.92-.26 1.9.11 2.43.89zm-2.45 4.262c.705-1.148 1.41-2.374 1.96-3.484-.267-.384-.663-.66-1.118-.778-1.072.65-1.846 1.69-2.157 2.9-.744 1.454-1.184 3.043-1.294 4.67 1.13-.875 2.02-2.01 2.59-3.308h.02z"/>
    <path fill-rule="nonzero" d="M229.81 53.21c.152.53.405 1.025.744 1.46.28.417.75.666 1.255.662.31 0 .35.195.17.41-.23.228-.56.342-.88.31-.44-.033-.85-.22-1.16-.525-.44-.405-.79-.904-1-1.46-.82.74-1.79 1.304-2.85 1.654-.75.26-1.58.11-2.2-.38-.39-.38-.64-.89-.71-1.44-.06-.99.02-1.99.23-2.96.17-.89.39-1.94.63-2.92l-.67.18-.79.22c-.3.09-.62.02-.84-.19-.32-.25-.44-.64 0-.74l1.13-.25 1.45-.31.57-2.14.68-2.27c.01-.16.12-.31.28-.36.15-.06.32-.02.44.09.31.28.43.71.34 1.11 0 .37-.22 1.01-.43 1.79-.12.49-.3.99-.45 1.54l1.35-.21c.42-.04.85-.04 1.27 0 .25.03.48.13.68.28.22.16.22.33-.24.37l-1.51.25c-.61.1-1.28.26-1.96.41l-.39 1.3-.43 1.4c-.22.87-.36 1.76-.43 2.65-.21.69-.03 1.44.49 1.95.72 0 1.41-.26 1.96-.72.62-.43 1.21-.91 1.76-1.42-.1-.52-.14-1.05-.12-1.58.01-.94.17-1.88.49-2.76.26-.81.75-1.52 1.41-2.06.57-.45 1.38-.45 1.96 0 .36.31.59.73.67 1.19.08.78-.1 1.56-.53 2.22-.51.81-1.07 1.57-1.69 2.3-.14.35-.45.66-.75 1.01zm-.197-1.42l.43-.487c.408-.492.787-1.005 1.138-1.537.64-.68.91-1.623.71-2.53-.33-.41-1.04.175-1.59 1.4-.3.67-.5 1.378-.61 2.103-.06.34-.08.68-.07 1.03v.02zm13.96 2.588c-.59.322-1.305.32-1.894-.003-.59-.324-.97-.925-1.01-1.593.24-3.3.84-6.562 1.8-9.73.66-2.706 1.61-5.723 1.65-6.638 0-.37.41-.35.74-.175.38.15.6.54.55.95-.16.7-.95 2.88-2.3 8.13-.79 3.29-1.96 8.46-.83 8.37 1.41-.62 2.73-1.43 3.92-2.42 1.31-.96 2.61-1.95 3.35-2.59-.08-1.36.21-2.72.84-3.93.41-1.15 1.25-2.1 2.35-2.65.44-.3 1.01-.33 1.48-.08.46.25.76.73.75 1.26-.26 1.11-.83 2.13-1.65 2.94-.81.94-1.68 1.84-2.59 2.68-.08.65.23 1.28.8 1.61.96.15 2.29-1.17 3.47-2.79 1-1.32 1.8-2.77 2.37-4.32 0-.33.31-.26.51 0 .17.15.25.38.21.6-.44 1.51-1.1 2.96-1.96 4.28-.79 1.47-2.1 2.59-3.67 3.17-1.17.23-2.31-.48-2.61-1.62-.43.39-.81.68-1.1.93-1.64 1.34-3.39 2.53-5.24 3.56zm9.157-9.05c.902-1.11 1.53-2.14 1.177-2.316-.82.163-1.486.75-1.745 1.538-.522.87-.924 1.807-1.196 2.783.568-.623 1.215-1.324 1.764-2.005z"/>
    <path fill-rule="nonzero" d="M263.123 40.21c.373.154.597.535.55.934-.09.403-.21.8-.354 1.187-.2.61-.51 1.33-.83 1.95-.32.63 0 1.73.39 1.62.73-.47 1.29-1.15 1.63-1.94.33-.57.61-1.16.86-1.77.14-.37.41-.33.57-.15.14.14.21.35.17.55-.17.64-.41 1.26-.71 1.85-.42.91-1.06 1.7-1.87 2.3-.31.2-.69.24-1.04.13-.35-.11-.63-.37-.77-.71l-.12-.23-.92 1.52c-.49.92-1.16 1.74-1.96 2.42-.38.21-.85.13-1.14-.19-.5-.53-.76-1.23-.73-1.95-.01-.86.08-1.72.25-2.57.21-1.19.52-2.37.9-3.52.1-.27.33-.27.59-.15.3.08.5.38.45.68-.27.89-.48 1.78-.65 2.69-.37 1.95-.67 3.89-.26 3.89.72-.66 1.31-1.46 1.72-2.35.35-.6.72-1.28 1.08-1.94l.49-.99c.09-.66.23-1.31.43-1.95.12-.47.29-.93.53-1.36.1-.08.24-.11.37-.09.13.03.25.1.32.21z"/>
    <path fill-rule="nonzero" d="M266.103 44.92c-.3.764-.236 1.623.176 2.335.53.156 1.56-1.382 2.43-2.958.54-.96 1.01-1.963 1.39-2.998 0-.3.35-.22.55 0 .15.16.21.4.15.62-.32 1-.73 1.98-1.22 2.92-.48 1.3-1.35 2.42-2.49 3.21-.47.17-1 .09-1.39-.22-.66-.54-1.01-1.35-.96-2.18.05-.9.19-1.78.41-2.65.27-1.21.62-2.3.7-2.69.02-.11.09-.2.19-.24.1-.05.21-.04.31.01.42.08.69.49.6.91-.37 1.28-.67 2.59-.88 3.91zm1.47-8.836c.51.136.804.622.51.895-.52.26-1.116.34-1.686.21-.2-.07-.353-.23-.405-.43-.052-.2.005-.42.15-.57.426-.24.933-.28 1.392-.12h.04z"/>
    <path fill-rule="nonzero" d="M270.868 42.603c-.26.897-.47 1.806-.628 2.725.69-1.458 1.476-2.868 2.353-4.223.567-.996 1.343-1.858 2.275-2.53.385-.1.794.038 1.04.35.435.367.625.947.49 1.5-.304.896-.547 1.813-.726 2.743-.36.795-.295 1.716.176 2.452 1.004-.574 1.77-1.485 2.157-2.57.646-1.095 1.203-2.24 1.667-3.424.038-.09.118-.158.215-.18.097-.024.2 0 .275.063.23.2.308.53.196.81-.36 1.09-.82 2.16-1.373 3.17-.498 1-1.16 1.91-1.96 2.7-.253.27-.608.42-.98.42-.373 0-.73-.16-.98-.43-.542-.5-.84-1.21-.825-1.95.026-.9.19-1.8.49-2.65.36-.63.55-1.34.55-2.07-.334-.28-1.412 1.26-2.53 3.09-1.025 1.68-1.935 3.43-2.725 5.23 0 .14-.295.14-.57 0-.42-.18-.697-.59-.705-1.05 0-.55.392-1.95.765-3.45.372-1.5.862-3.07 1.04-3.52.175-.45.313-.18.51 0 .266.11.437.37.43.66-.118.35-.372 1.17-.627 2.08z"/>
    <path d="M281.79 38.263c-.586.607-.957 1.385-1.06 2.22.128.644.49 1.22 1.02 1.614 1.004.74 1.565 1.934 1.49 3.173-.166.794-.74 1.443-1.51 1.713-.51.195-1.044.32-1.588.37-.437.025-.876.025-1.314 0-.173 0-.34-.062-.47-.176-.213-.095-.386-.26-.49-.467 0-.117 0-.214.215-.214.99 0 1.968-.19 2.883-.564.638-.177 1.1-.727 1.157-1.382-.154-.718-.548-1.363-1.118-1.83-.856-.644-1.425-1.593-1.588-2.647.155-1.075.61-2.086 1.313-2.92.345-.517.846-.912 1.432-1.128.343-.01.67.14.882.41.235.27.314.563 0 .7-.502.272-.933.66-1.255 1.128z"/>
    <path fill-rule="nonzero" d="M15.343 27.88c-.784-1.09-1.55-2.224-2.294-3.405-.75-1.18-1.55-2.42-2.4-3.717-.85-1.298-1.82-2.797-2.9-4.496-1.09-1.7-2.39-3.646-3.92-5.84v13.274c0 1.168-.04 2.336-.12 3.504-.01.485-.07.967-.18 1.44-.07.284-.19.55-.38.778-.14.17-.32.286-.53.33-.23.024-.46.024-.69 0-.45.012-.87-.165-1.18-.485-.4-.618-.6-1.348-.55-2.083-.13-2.854-.2-5.715-.22-8.583-.02-2.867-.02-5.832 0-8.894V5.616c0-.748.1-1.492.27-2.22.06-.375.27-.71.59-.933.31-.143.65-.21 1-.195.64.12 1.22.456 1.64.954.8.78 1.55 1.618 2.23 2.51.81 1.04 1.68 2.232 2.6 3.582.93 1.35 1.85 2.737 2.76 4.165.92 1.42 1.8 2.84 2.65 4.24l2.33 3.89V7.66c.01-1.062.08-2.12.22-3.173.03-.566.21-1.114.51-1.596.27-.31.68-.48 1.1-.46.43 0 .85.15 1.17.43.43.56.64 1.25.59 1.95 0 .94.04 1.77.12 2.49v16.52c0 1.07-.04 2.18-.12 3.35-.01.49-.07.97-.18 1.44-.07.29-.2.55-.38.78-.13.17-.32.29-.53.33-.23.03-.46.03-.69 0-.41.01-.81-.13-1.13-.39-.53-.43-1.02-.91-1.45-1.44zM33.735 9.976c1.338-.012 2.668.22 3.922.682 2.298.845 4.095 2.665 4.902 4.962.46 1.286.68 2.644.66 4.01.02 1.5-.24 2.99-.77 4.397-.48 1.234-1.2 2.36-2.12 3.31-.92.914-2.01 1.63-3.22 2.1-1.29.503-2.67.754-4.06.74-1.45.03-2.89-.25-4.22-.817-1.17-.51-2.21-1.268-3.06-2.22-.87-.935-1.53-2.033-1.96-3.23-.43-1.253-.64-2.57-.63-3.892-.02-1.39.23-2.77.72-4.068.46-1.197 1.17-2.284 2.08-3.192.98-.936 2.16-1.647 3.45-2.082 1.37-.494 2.82-.732 4.27-.7zm-.43 16.62c.946.028 1.886-.165 2.744-.563.76-.34 1.43-.853 1.96-1.5.46-.656.78-1.397.96-2.178.22-.806.33-1.637.33-2.472 0-.836-.11-1.668-.34-2.472-.22-.7-.56-1.36-1.02-1.94-.47-.58-1.08-1.04-1.77-1.34-.81-.34-1.69-.51-2.57-.48-.92-.02-1.83.15-2.67.51-.75.31-1.42.78-1.96 1.38-.53.61-.92 1.32-1.16 2.09-.27.85-.4 1.73-.39 2.61-.03 1.68.54 3.32 1.63 4.62 1.06 1.2 2.62 1.85 4.23 1.77zm16.94-14.518v5.47c0 1.05.085 2.1.255 3.152.11.965.34 1.913.686 2.82.3.747.77 1.414 1.373 1.948 1.35 1.038 3.23 1.038 4.58 0 .6-.534 1.07-1.2 1.37-1.947.34-.9.57-1.85.68-2.82.13-1.05.21-2.1.25-3.15.04-1.05.04-2.05 0-3.01v-2.46c-.1-.58.05-1.18.43-1.64.37-.46.93-.74 1.53-.76.4-.02.8.12 1.09.39.28.31.48.68.57 1.09.13.55.2 1.11.21 1.68V15c0 1.66-.09 3.38-.26 5.158-.15 1.674-.53 3.318-1.14 4.885-.55 1.418-1.44 2.677-2.61 3.658-2.79 1.92-6.48 1.92-9.26 0-1.17-.98-2.07-2.24-2.61-3.66-.61-1.56-.99-3.21-1.14-4.88-.17-1.77-.26-3.49-.26-5.15v-2.18c.01-.56.08-1.12.21-1.67.08-.41.28-.78.56-1.09.3-.27.7-.41 1.1-.39.66-.08 1.32.15 1.78.63.45.48.65 1.14.54 1.79zm18.04 15.26c-.105-.91-.17-2.012-.197-3.31-.026-1.297-.026-2.867 0-4.71V14.92c-.003-.99.063-1.98.196-2.96.022-.727.23-1.438.608-2.063.27-.308.667-.48 1.08-.467.28-.03.56-.03.842 0 .247.05.477.165.666.33.213.197.368.446.45.72.12.42.172.852.158 1.286-.012.103-.012.208 0 .31-.006.112-.006.222 0 .332.007.136.007.273 0 .41.72-.83 1.56-1.553 2.49-2.142.903-.623 1.98-.95 3.08-.934.577-.105 1.172.052 1.62.43.448.376.702.933.693 1.516.02.41-.08.814-.29 1.168-.2.32-.48.58-.82.76-.38.204-.79.355-1.21.446l-1.51.234c-.83.153-1.62.45-2.35.876-.66.356-1.19.925-1.49 1.615v6.754l-.08 3.76c0 .49-.07.97-.21 1.44-.09.29-.23.55-.43.78-.15.17-.35.29-.57.33h-.62c-.54.07-1.08-.11-1.47-.48-.36-.62-.57-1.31-.61-2.02zM84.91 2.462c.626.01 1.224.26 1.666.7.49.42.77 1.032.765 1.674 0 .63-.29 1.222-.78 1.616-.48.438-1.11.68-1.76.68-.58-.016-1.14-.26-1.55-.68-.45-.417-.71-1-.72-1.616 0-.617.26-1.206.73-1.615.43-.46 1.03-.74 1.67-.76zm-1.765 24.834c0-.96-.046-2.057-.137-3.29-.092-1.232-.092-2.588 0-4.067v-4.73c.01-1.08.082-2.16.215-3.23.047-.69.24-1.35.57-1.95.227-.39.648-.62 1.097-.61.44-.01.86.16 1.177.46.413.56.62 1.25.587 1.94.157 2.72.235 5.36.235 7.9v3.64c0 1.12-.06 2.36-.16 3.71-.01.48-.07.97-.18 1.44-.07.28-.19.55-.38.78-.13.16-.32.28-.53.33-.23.02-.46.02-.69 0-.45.01-.87-.17-1.18-.49-.4-.55-.62-1.2-.65-1.87zM98.637 9.39c.695.01 1.39.056 2.08.138.81.086 1.613.256 2.39.506.712.222 1.377.572 1.962 1.03.52.397.83 1.02.82 1.675 0 .36-.11.72-.34 1.01-.26.3-.65.46-1.04.43-.39-.01-.78-.06-1.16-.16l-1.41-.37c-.51-.15-1.06-.27-1.65-.37-.62-.11-1.24-.16-1.87-.16-.92-.04-1.84.14-2.69.5-.65.26-1.06.9-1.04 1.59-.01.38.12.76.37 1.05.29.31.63.57 1.02.76.49.24 1 .43 1.53.56l1.96.47c.81.2 1.61.44 2.41.7.76.24 1.48.6 2.13 1.07.62.45 1.15 1.04 1.53 1.71.41.78.61 1.66.58 2.55.06 1.79-.76 3.49-2.2 4.57-1.91 1.25-4.19 1.85-6.47 1.69-.75-.01-1.5-.05-2.24-.14-.83-.08-1.64-.25-2.43-.51-.72-.22-1.39-.58-1.96-1.05-.54-.45-.83-1.12-.81-1.81-.03-.43.1-.85.37-1.19.23-.27.56-.42.92-.41.32.01.63.1.9.27.31.18.69.37 1.13.58.52.23 1.05.43 1.6.58.75.2 1.53.29 2.31.27h1.34c.55-.04 1.1-.16 1.63-.33.5-.17.97-.42 1.37-.76.39-.35.6-.86.57-1.38 0-.43-.14-.84-.4-1.19-.3-.41-.68-.74-1.13-.98-.49-.25-1.01-.45-1.55-.6l-1.86-.53c-.76-.21-1.52-.44-2.29-.7-.74-.25-1.45-.59-2.1-1.02-.62-.41-1.14-.95-1.53-1.58-.41-.72-.61-1.53-.58-2.36-.01-.86.18-1.7.55-2.47.37-.75.91-1.42 1.56-1.95.72-.59 1.56-1.04 2.45-1.32 1.04-.32 2.12-.47 3.2-.45zm20.314 4.322c-.88-.013-1.77.132-2.6.428-.89.34-1.76.73-2.61 1.168v12.145c-.03.43-.09.86-.17 1.284-.04.24-.12.47-.23.68-.08.137-.21.23-.37.254h-.51c-.34.03-.69.03-1.03 0-.23-.02-.44-.12-.61-.27-.17-.17-.29-.4-.33-.64-.08-.38-.14-.77-.17-1.17 0-.49-.04-1.14-.14-1.94-.09-.8-.09-1.78 0-2.92V4.57c0-.91-.06-1.6-.17-2.066.04-.6.17-1.19.38-1.75.23-.51.76-.81 1.32-.74.49-.017.95.183 1.27.544.4.612.6 1.334.57 2.064 0 .9.05 2.17.14 3.79.1 1.62.13 3.442.1 5.47.42-.318.86-.586 1.34-.8.53-.25 1.08-.46 1.65-.62.58-.17 1.17-.31 1.76-.41.56-.1 1.12-.15 1.69-.16 1.15-.026 2.29.278 3.27.877.96.62 1.73 1.48 2.22 2.51.38.73.66 1.51.83 2.31.19.88.32 1.77.39 2.66v8.15c-.01.58-.09 1.15-.21 1.71-.09.42-.29.8-.57 1.13-.29.28-.69.43-1.1.4-.58.05-1.143-.19-1.51-.64-.25-.45-.35-.96-.293-1.46V19.8s0-.972-.16-1.46c-.156-.485-.156-.972-.254-1.42-.09-.42-.22-.83-.39-1.226-.225-.7-.72-1.285-1.37-1.635-.65-.28-1.352-.4-2.06-.35zm14.63-11.25c.63.01 1.23.262 1.67.7.49.422.77 1.033.77 1.675 0 .63-.29 1.222-.78 1.616-.48.438-1.11.68-1.76.68-.58-.016-1.14-.26-1.55-.68-.45-.417-.71-1-.72-1.616 0-.617.26-1.206.73-1.615.43-.466 1.03-.74 1.67-.76zm-1.76 24.835c0-.96-.04-2.057-.14-3.29-.09-1.232-.09-2.588 0-4.067v-4.73c.01-1.08.08-2.158.22-3.23.05-.682.24-1.346.57-1.946.23-.385.65-.616 1.1-.604.44-.002.86.166 1.18.467.42.564.62 1.25.59 1.947.16 2.725.24 5.358.24 7.902v3.64c0 1.128-.05 2.367-.16 3.716 0 .485-.06.968-.17 1.44-.06.284-.19.55-.37.78-.13.166-.32.283-.53.33-.23.023-.46.023-.68 0-.44.01-.87-.166-1.18-.487-.39-.546-.62-1.196-.64-1.868zm17.81-14.17c-.89-.013-1.78.146-2.61.468-.91.387-1.78.856-2.6 1.402v9.458c0 1.194-.05 2.193-.15 2.998-.03.41-.09.82-.17 1.226-.04.24-.13.47-.27.68-.11.15-.28.25-.47.29-.5.08-1.02.08-1.53 0-.19-.04-.36-.13-.49-.28-.21-.17-.37-.39-.47-.65-.09-.39-.16-.78-.19-1.17 0-.47 0-1.09-.13-1.95s0-1.64 0-2.55V14.4c.03-.744.11-1.485.22-2.22.04-.728.25-1.437.63-2.063.27-.29.66-.448 1.06-.428.55-.03 1.08.17 1.47.54.39.52.6 1.14.61 1.79.94-.8 1.99-1.45 3.12-1.95 1.08-.49 2.25-.74 3.43-.74 1.08-.02 2.14.25 3.08.78.97.6 1.74 1.46 2.22 2.49.38.73.66 1.51.83 2.31.19.88.32 1.77.39 2.67v8.33c-.01.65-.09 1.3-.22 1.94-.08.46-.29.89-.61 1.24-.31.31-.74.47-1.17.45-.5.1-1.02-.04-1.41-.38s-.59-.83-.55-1.34v-8.5c0-.48-.05-.97-.15-1.46-.11-.49-.19-.97-.26-1.42-.09-.42-.22-.83-.39-1.23-.23-.7-.72-1.29-1.37-1.64-.56-.29-1.17-.45-1.79-.49zm20.36 21.916c1.09.033 2.16-.215 3.12-.72.83-.505 1.5-1.217 1.96-2.063.57-1.003.94-2.097 1.12-3.23.24-1.41.35-2.836.34-4.263-.2.76-.54 1.473-1.02 2.102-.42.55-.95 1.02-1.55 1.38-.6.36-1.27.61-1.96.76-.74.15-1.51.23-2.27.23-1.16.01-2.31-.17-3.41-.51-1.04-.32-2-.87-2.8-1.6-.85-.78-1.52-1.73-1.96-2.79-.5-1.3-.74-2.68-.7-4.07-.02-1.44.21-2.87.68-4.23.42-1.23 1.08-2.37 1.96-3.33.9-.95 1.99-1.69 3.2-2.18 1.37-.54 2.84-.81 4.31-.78.77-.01 1.54.07 2.3.23.62.14 1.22.34 1.78.62.51.24.98.56 1.39.93.41.36.78.75 1.12 1.17 1.02 1.31 1.76 2.81 2.16 4.42.48 2.01.7 4.07.67 6.13 0 1.81-.15 3.62-.45 5.41-.27 1.74-.82 3.43-1.62 5-.76 1.47-1.88 2.72-3.25 3.66-1.59 1-3.45 1.5-5.33 1.42h-1.31l-1.49-.18c-.51-.08-1.01-.19-1.51-.33-.47-.14-.94-.33-1.37-.57-.44-.24-.86-.51-1.25-.82-.34-.34-.52-.81-.47-1.29 0-.47.11-.93.34-1.35.24-.41.69-.65 1.16-.61.3.01.6.09.86.23.38.18.77.34 1.16.48.54.19 1.09.36 1.65.49.83.16 1.67.22 2.51.17zm.2-9.342c.9.03 1.8-.16 2.61-.56.7-.36 1.3-.87 1.77-1.5.46-.63.81-1.34 1.02-2.1.22-.76.33-1.54.33-2.33 0-.65-.09-1.31-.25-1.94-.16-.65-.45-1.26-.84-1.81-.42-.56-.97-1.02-1.61-1.32-2.26-.94-4.86-.54-6.72 1.05-1.14 1.25-1.71 2.91-1.59 4.6-.1 1.59.4 3.16 1.41 4.4 1.02 1.08 2.48 1.64 3.96 1.54h-.08zM203.7 2.15c.872.003 1.744.075 2.606.216.815.126 1.61.348 2.372.662.642.26 1.233.628 1.746 1.09.44.374.692.923.686 1.5.037.498-.133.99-.47 1.36-.31.312-.737.48-1.177.468-.402.008-.802-.065-1.176-.214l-1.157-.447c-.513-.22-1.044-.395-1.588-.525-.788-.16-1.59-.232-2.393-.214-1 .002-1.98.263-2.85.76-.93.527-1.73 1.243-2.36 2.1-.7.965-1.24 2.037-1.59 3.173-.4 1.26-.6 2.57-.59 3.89-.04 1.54.19 3.08.68 4.55.38 1.15.99 2.21 1.78 3.13.68.78 1.53 1.4 2.49 1.83.88.45 1.85.71 2.84.75.95.02 1.9-.1 2.82-.35.67-.2 1.33-.46 1.96-.78l1.39-.78c.34-.22.73-.34 1.13-.35.39-.02.77.11 1.06.37.3.36.44.83.39 1.3-.02.58-.23 1.13-.61 1.57-.49.59-1.09 1.08-1.77 1.44-.87.47-1.8.82-2.77 1.05-1.19.29-2.41.42-3.63.41-1.5-.01-2.99-.3-4.38-.86-1.47-.57-2.81-1.44-3.92-2.55-1.2-1.26-2.13-2.75-2.73-4.38-.73-1.86-1.09-3.85-1.06-5.84-.03-2.05.29-4.09.96-6.03.58-1.65 1.47-3.18 2.63-4.5 1.08-1.21 2.42-2.18 3.92-2.83 1.47-.66 3.07-1 4.69-1.01zm12.35 25.304V5.85c.01-1.094.08-2.185.216-3.27.047-.682.24-1.346.568-1.947.228-.384.65-.615 1.098-.603.433-.003.85.15 1.178.428.428.556.637 1.248.588 1.946.105 1.87.17 3.815.196 5.84.026 2.023.026 3.97 0 5.838v9.77c0 1.09-.04 2.22-.117 3.387-.01.48-.07.96-.177 1.44-.064.28-.19.55-.373.77-.133.16-.32.28-.53.33-.227.02-.457.02-.685 0-.444.01-.872-.17-1.177-.49-.44-.53-.714-1.17-.784-1.85zm12-15.376v5.47c0 1.05.085 2.1.255 3.152.135.968.392 1.916.765 2.82.297.747.767 1.414 1.37 1.948 1.352 1.038 3.24 1.038 4.59 0 .603-.534 1.073-1.2 1.372-1.947.346-.9.577-1.85.686-2.82.13-1.05.216-2.1.255-3.15.04-1.05.04-2.05 0-3.01v-2.46c-.102-.58.055-1.18.43-1.64.376-.46.933-.74 1.53-.76.405-.02.8.12 1.1.39.284.31.48.68.568 1.09.13.55.2 1.11.22 1.68V15c0 1.66-.08 3.38-.25 5.158-.14 1.674-.52 3.318-1.13 4.885-.54 1.417-1.44 2.676-2.61 3.658-2.78 1.92-6.47 1.92-9.25 0-1.16-.98-2.06-2.24-2.6-3.66-.61-1.56-.99-3.21-1.14-4.88-.17-1.77-.25-3.49-.25-5.15v-2.18c.02-.56.09-1.12.22-1.67.09-.41.29-.78.57-1.09.3-.27.7-.41 1.1-.39.65-.05 1.28.19 1.72.66.44.47.63 1.12.52 1.76zm22.157-7.824c0 1.557-.046 3.186-.137 4.885-.093 1.7-.204 3.35-.335 4.96.326-.68.778-1.3 1.334-1.81.54-.5 1.15-.91 1.82-1.23.67-.32 1.37-.55 2.1-.7.69-.15 1.4-.23 2.11-.24 1.13-.01 2.26.21 3.31.64 1.03.45 1.95 1.11 2.7 1.94.81.88 1.42 1.91 1.8 3.04.45 1.33.67 2.73.64 4.14.01 1.4-.21 2.8-.67 4.12-.41 1.2-1.08 2.29-1.96 3.21-.92.92-2.03 1.63-3.26 2.08-1.43.51-2.94.76-4.45.74-1.89.1-3.76-.37-5.36-1.37-1.3-.91-2.3-2.17-2.88-3.64-.67-1.67-1.06-3.44-1.16-5.23-.15-1.98-.22-4.04-.22-6.19 0-2.16.04-4.1.12-5.84.08-1.77.2-3.2.35-4.29.07-.76.34-1.48.78-2.1.36-.41.9-.64 1.45-.62.37-.02.75.09 1.06.29.26.21.46.49.57.8.12.37.19.76.21 1.15.02.27.02.74.02 1.23zm5.882 9.732c-.74-.003-1.48.123-2.18.37-.69.245-1.32.637-1.85 1.148-.56.55-1 1.215-1.28 1.946-.38.94-.56 1.945-.55 2.957-.12 1.632.41 3.244 1.47 4.496 1.02 1.042 2.45 1.6 3.92 1.538.7 0 1.4-.1 2.08-.29.72-.19 1.39-.53 1.96-1.01.61-.53 1.09-1.2 1.41-1.94.39-.95.58-1.97.55-2.99.02-.94-.14-1.87-.45-2.76-.27-.73-.69-1.39-1.24-1.94-.51-.5-1.13-.87-1.8-1.11-.69-.25-1.41-.38-2.14-.39h.08z"/>
  </g>
</svg>
