<svg xmlns="http://www.w3.org/2000/svg" id="Layer_1" data-name="Layer 1" viewBox="0 0 175.75 42.52">
  <defs>
    <style>
      .cls-1 { fill: #231f20; }
    </style>
  </defs>
  <path d="M116.75 28.89c0-.18.28-.12.44 0a.46.46 0 0 1 .17.38c-.08.37-.55 2.08-.76 3.09l-.07.28a10.41 10.41 0 0 0 3.13-2.29c1.14-1.19 1.36-1.89 1.17-2.28-.29-.62-2.29-.54-3.66-.19-2 .52-2.88 1.31-2.87 1.47s-.23.09-.41-.07a.31.31 0 0 1-.11-.38 7.36 7.36 0 0 1 4.36-1.79c2.22-.22 3.08.33 3.24 1.19.28 1.43-2.11 3.47-3.43 4.23a5 5 0 0 1 2.64.37 1.16 1.16 0 0 1 .29 1.85 6.38 6.38 0 0 1-2 1.57 6.67 6.67 0 0 1-2 .75.61.61 0 0 1-.54-.14c-.13-.12-.11-.27.07-.28a8.76 8.76 0 0 0 2.19-.91 5.79 5.79 0 0 0 1.74-1.36c.4-.56.45-1-.21-1.2a7.08 7.08 0 0 0-2.3-.11 3 3 0 0 0-1.53.53 25.4 25.4 0 0 0-.65 3.76c0 .31-.19.34-.39.25a.43.43 0 0 1-.31-.34c.06-.26.54-2.76.9-4.37zm5.59 6.11a1.36 1.36 0 0 1-.41-1.14 8.71 8.71 0 0 1 .3-1.62c.21-.79.46-1.47.52-1.63s.24-.06.39.06a.36.36 0 0 1 .2.39 13 13 0 0 0-.48 1.42c-.28.95-.52 2.06-.27 2.21s.82-.8 1.43-1.84 1.17-2.08 1.36-2.47c.08-.15.32-.07.48.09a.38.38 0 0 1 .14.37c-.24.64-.62 2.21-.95 3.64a11.88 11.88 0 0 1 1.33-.93 1.21 1.21 0 0 1 1.18-.11.48.48 0 0 1 .21.32c0 .13 0 .2-.19.14a1.36 1.36 0 0 0-1.1.13 5.35 5.35 0 0 0-1.13.83l-.52.45a10.79 10.79 0 0 1-.34 1.16 4.65 4.65 0 0 1-1.12 1.91 1.07 1.07 0 0 1-1 .22.7.7 0 0 1-.42-1.09 10.31 10.31 0 0 1 1.45-1.6c.29-.28.6-.55.91-.82l.09-.33c.22-1 .44-2.15.45-2.23a12.42 12.42 0 0 1-.67 1.21 5.25 5.25 0 0 1-1 1.25.69.69 0 0 1-.84.01zm.43 3.07a1.93 1.93 0 0 0 .89-1 7.2 7.2 0 0 0 .41-1c-.28.26-.53.5-.75.71a5.88 5.88 0 0 0-.84 1c-.17.22-.04.44.3.32zM137 25.12c.14.11.2.24 0 .28a10.89 10.89 0 0 0-2.27 1.6 14.3 14.3 0 0 0-2.83 2.82 3.63 3.63 0 0 0 .92 1.38 4.7 4.7 0 0 0 1.36.9c1.34.58 2.81-.15 2.7-.92 0-.21.13-.23.27-.13a.59.59 0 0 1 .17.6c-.18.8-1.31 1.35-2.46 1.25a3.56 3.56 0 0 1-1.5-.48 5.25 5.25 0 0 1-1.49-1.42 2.2 2.2 0 0 1-.38-.66 18.9 18.9 0 0 0-.39 3.79c.06.36-.15.37-.37.25a.61.61 0 0 1-.35-.44s0-.55.67-4.31c.39-2.34.94-4.44.86-4.85 0-.23.18-.24.39-.13a.58.58 0 0 1 .33.46c0 .37-.46 2-.89 4l.2-.29a13.24 13.24 0 0 1 2.34-2.31 8.41 8.41 0 0 1 2.31-1.51.58.58 0 0 1 .41.12z" class="cls-1"/>
  <path d="M140.1 28.27l.17-.32a.2.2 0 0 1 .3-.08.47.47 0 0 1 .29.48 7.76 7.76 0 0 0-.5 1.82c-.11.68-.09 1.27.17 1.29a2.63 2.63 0 0 0 1-1.29 13.72 13.72 0 0 0 .87-1.8c0-.17.19-.13.28 0a.45.45 0 0 1 .08.36 11.05 11.05 0 0 1-.66 1.53 6.75 6.75 0 0 1-.65 1.09 1 1 0 0 1-1.4.39 1.2 1.2 0 0 1-.37-.78 2.57 2.57 0 0 1 .1-1.09 11.05 11.05 0 0 1-1.72 2.6.5.5 0 0 1-.69.11 1 1 0 0 1-.41-.84 8.14 8.14 0 0 1 .59-2.14 3.27 3.27 0 0 1 1.31-1.79 1.13 1.13 0 0 1 1.24.46zm-1.25 2.19c.36-.59.72-1.22 1-1.79a1 1 0 0 0-.57-.4 2.46 2.46 0 0 0-1.1 1.49 6.21 6.21 0 0 0-.66 2.4 4.44 4.44 0 0 0 1.32-1.7z" class="cls-1"/>
  <path d="M145.49 30.34a2.23 2.23 0 0 0 .38.75.76.76 0 0 0 .64.34c.16 0 .18.1.09.21a.56.56 0 0 1-.45.16.94.94 0 0 1-.59-.27 2 2 0 0 1-.51-.75 4.09 4.09 0 0 1-1.45.85 1.17 1.17 0 0 1-1.12-.2 1.25 1.25 0 0 1-.36-.74 5.45 5.45 0 0 1 .12-1.52c.09-.46.2-1 .32-1.5l-.34.09-.4.11a.44.44 0 0 1-.43-.1c-.16-.13-.22-.33 0-.38l.58-.13.74-.16.29-1.1.35-1.17a.22.22 0 0 1 .37-.14.59.59 0 0 1 .17.57c0 .19-.11.52-.22.92-.06.25-.15.51-.23.79l.69-.11a3.12 3.12 0 0 1 .65 0 .74.74 0 0 1 .35.14c.11.08.11.17-.12.19l-.77.13c-.31.05-.65.13-1 .21l-.2.67-.22.72a8.3 8.3 0 0 0-.22 1.36 1 1 0 0 0 .25 1 1.53 1.53 0 0 0 1-.37 8.11 8.11 0 0 0 .9-.73 3.47 3.47 0 0 1-.06-.81 4.42 4.42 0 0 1 .25-1.42 2.25 2.25 0 0 1 .72-1.06.81.81 0 0 1 1 0 1 1 0 0 1 .34.61 1.74 1.74 0 0 1-.27 1.14 10 10 0 0 1-.86 1.18c-.07.18-.23.34-.38.52zm-.1-.73l.22-.25a9.16 9.16 0 0 0 .58-.79 1.46 1.46 0 0 0 .36-1.3c-.17-.21-.53.09-.81.72a4.12 4.12 0 0 0-.31 1.08 2.68 2.68 0 0 0-.04.53zm7.12 1.33a1 1 0 0 1-1.48-.82 23.26 23.26 0 0 1 .92-5c.34-1.39.82-2.94.84-3.41 0-.19.21-.18.38-.09a.46.46 0 0 1 .28.49c-.08.36-.48 1.48-1.17 4.18-.4 1.69-1 4.35-.42 4.3a8.35 8.35 0 0 0 2-1.24c.67-.49 1.33-1 1.71-1.33A3.91 3.91 0 0 1 156 26a2.46 2.46 0 0 1 1.2-1.36.73.73 0 0 1 1.14.61 3.11 3.11 0 0 1-.84 1.51 16.35 16.35 0 0 1-1.32 1.38.85.85 0 0 0 .41.83c.49.08 1.17-.6 1.77-1.43a8.58 8.58 0 0 0 1.21-2.22c0-.17.16-.13.26 0a.33.33 0 0 1 .11.31 8.1 8.1 0 0 1-1 2.2 3.49 3.49 0 0 1-1.87 1.63 1.14 1.14 0 0 1-1.33-.83c-.22.2-.41.35-.56.48a18.53 18.53 0 0 1-2.67 1.83zm4.67-4.65c.46-.57.78-1.1.6-1.19a1.18 1.18 0 0 0-.89.79 5.86 5.86 0 0 0-.61 1.43c.29-.32.62-.68.9-1.03z" class="cls-1"/>
  <path d="M162.48 23.66a.46.46 0 0 1 .28.48 4.51 4.51 0 0 1-.18.61c-.1.31-.26.68-.42 1s0 .89.2.83a2.19 2.19 0 0 0 .83-1 7.26 7.26 0 0 0 .44-.91c.07-.19.21-.17.29-.08a.31.31 0 0 1 .09.28 4.9 4.9 0 0 1-.36.95 3 3 0 0 1-.95 1.18.63.63 0 0 1-.92-.3l-.06-.12-.47.78a4.19 4.19 0 0 1-1 1.24.47.47 0 0 1-.58-.1 1.39 1.39 0 0 1-.37-1 6.33 6.33 0 0 1 .13-1.32 13.12 13.12 0 0 1 .46-1.81c.05-.14.17-.14.3-.08a.31.31 0 0 1 .23.35 12.67 12.67 0 0 0-.33 1.38c-.19 1-.34 2-.13 2a3.85 3.85 0 0 0 .88-1.21c.18-.31.37-.66.55-1l.25-.51a6 6 0 0 1 .22-1 2.87 2.87 0 0 1 .27-.7.24.24 0 0 1 .35.06z" class="cls-1"/>
  <path d="M164 26.08a1.39 1.39 0 0 0 .09 1.2c.27.08.8-.71 1.24-1.52a10.67 10.67 0 0 0 .71-1.54c0-.15.18-.11.28 0a.35.35 0 0 1 .08.32 9.24 9.24 0 0 1-.62 1.5 3.46 3.46 0 0 1-1.27 1.65.75.75 0 0 1-.71-.11 1.35 1.35 0 0 1-.49-1.12 7.45 7.45 0 0 1 .21-1.36c.14-.62.32-1.18.36-1.38a.18.18 0 0 1 .26-.12.4.4 0 0 1 .31.47 17.06 17.06 0 0 0-.45 2.01zm.75-4.54c.26.07.41.32.26.46a1.27 1.27 0 0 1-.86.11.31.31 0 0 1-.13-.51.87.87 0 0 1 .71-.06z" class="cls-1"/>
  <path d="M166.43 24.89a13.1 13.1 0 0 0-.32 1.4 18.74 18.74 0 0 1 1.2-2.17 4.1 4.1 0 0 1 1.16-1.3.51.51 0 0 1 .53.18.77.77 0 0 1 .25.77 10.88 10.88 0 0 0-.37 1.41 1.33 1.33 0 0 0 .09 1.26 2.48 2.48 0 0 0 1.1-1.32 12.31 12.31 0 0 0 .85-1.76.16.16 0 0 1 .25-.06.38.38 0 0 1 .1.42 9.83 9.83 0 0 1-.7 1.63 5.18 5.18 0 0 1-1 1.39.68.68 0 0 1-1 0 1.33 1.33 0 0 1-.42-1 4.51 4.51 0 0 1 .25-1.36 2.14 2.14 0 0 0 .28-1.06c-.17-.14-.72.65-1.29 1.59A22.77 22.77 0 0 0 166 27.6c0 .07-.15.07-.29 0a.6.6 0 0 1-.36-.54c0-.28.2-1 .39-1.77s.44-1.58.53-1.81.16-.09.26 0a.36.36 0 0 1 .22.34c-.06.18-.19.6-.32 1.07z" class="cls-1"/>
  <path d="M172 22.66a2 2 0 0 0-.54 1.14 1.37 1.37 0 0 0 .52.83 1.89 1.89 0 0 1 .76 1.63 1.19 1.19 0 0 1-.77.88 3 3 0 0 1-.81.19 5.59 5.59 0 0 1-.67 0 .36.36 0 0 1-.24-.09.52.52 0 0 1-.25-.24c0-.06 0-.11.11-.11a3.86 3.86 0 0 0 1.47-.29.81.81 0 0 0 .59-.71 1.67 1.67 0 0 0-.57-.94 2.11 2.11 0 0 1-.81-1.36 3 3 0 0 1 .67-1.5 1.5 1.5 0 0 1 .73-.58.55.55 0 0 1 .45.21c.12.14.16.29 0 .36a1.84 1.84 0 0 0-.64.58zM28 17.84q-.6-.84-1.17-1.75t-1.22-1.91q-.65-1-1.48-2.31t-2-3v6.82q0 .9-.06 1.8a3.6 3.6 0 0 1-.09.74 1 1 0 0 1-.19.4.47.47 0 0 1-.27.17 1.76 1.76 0 0 1-.35 0 .8.8 0 0 1-.6-.25 1.77 1.77 0 0 1-.28-1.07q-.1-2.2-.11-4.41t0-4.57V6.4a5.1 5.1 0 0 1 .14-1.14.75.75 0 0 1 .3-.48 1.1 1.1 0 0 1 .51-.1 1.44 1.44 0 0 1 .84.49 11.29 11.29 0 0 1 1.14 1.29q.62.8 1.33 1.84t1.41 2.14q.7 1.1 1.35 2.18l1.19 2V7.45a13.35 13.35 0 0 1 .11-1.63 1.76 1.76 0 0 1 .26-.82.69.69 0 0 1 .56-.24.9.9 0 0 1 .6.22 1.48 1.48 0 0 1 .3 1q0 .72.06 1.28v8.49q0 .82-.06 1.72a3.61 3.61 0 0 1-.09.74 1 1 0 0 1-.19.4.47.47 0 0 1-.27.17 1.76 1.76 0 0 1-.35 0 .88.88 0 0 1-.58-.2 5.24 5.24 0 0 1-.74-.74zm9.38-9.2a5.59 5.59 0 0 1 2 .35 4.19 4.19 0 0 1 2.5 2.55 5.91 5.91 0 0 1 .34 2.06 6.19 6.19 0 0 1-.39 2.26 5 5 0 0 1-1.08 1.7 4.76 4.76 0 0 1-1.64 1.08 5.53 5.53 0 0 1-2.07.38 5.19 5.19 0 0 1-2.15-.42 4.5 4.5 0 0 1-1.56-1.14 4.88 4.88 0 0 1-1-1.66 6.09 6.09 0 0 1-.32-2 5.7 5.7 0 0 1 .37-2.09 4.69 4.69 0 0 1 1.06-1.64A4.75 4.75 0 0 1 35.2 9a6 6 0 0 1 2.18-.36zm-.22 8.54a3.1 3.1 0 0 0 1.4-.29 2.71 2.71 0 0 0 1-.77 3.16 3.16 0 0 0 .49-1.12 4.72 4.72 0 0 0 .17-1.27 4.57 4.57 0 0 0-.17-1.27 3 3 0 0 0-.52-1 2.39 2.39 0 0 0-.9-.69 3.14 3.14 0 0 0-1.31-.25 3.29 3.29 0 0 0-1.36.26 2.75 2.75 0 0 0-1 .71 3 3 0 0 0-.59 1.07 4.35 4.35 0 0 0-.2 1.34 3.61 3.61 0 0 0 .83 2.37 2.7 2.7 0 0 0 2.16.91zm8.64-7.46v2.81q0 .81.13 1.62a6 6 0 0 0 .35 1.45 2.65 2.65 0 0 0 .7 1 1.91 1.91 0 0 0 2.34 0 2.64 2.64 0 0 0 .7-1 6 6 0 0 0 .35-1.45q.1-.81.13-1.62t0-1.55V9.72a1.06 1.06 0 0 1 1-1.24.76.76 0 0 1 .56.2 1.18 1.18 0 0 1 .29.56 4.28 4.28 0 0 1 .11.86v1.12q0 1.28-.13 2.65a9.16 9.16 0 0 1-.58 2.51 4.62 4.62 0 0 1-1.33 1.88 4.14 4.14 0 0 1-4.72 0 4.62 4.62 0 0 1-1.33-1.88 9.18 9.18 0 0 1-.58-2.51q-.13-1.37-.13-2.65V10.1a4.28 4.28 0 0 1 .11-.86 1.18 1.18 0 0 1 .29-.56.76.76 0 0 1 .56-.2 1.06 1.06 0 0 1 1.18 1.24zm9.2 7.84q-.08-.7-.1-1.7t0-2.42v-2.26a11.09 11.09 0 0 1 .1-1.52 2.19 2.19 0 0 1 .31-1.06.7.7 0 0 1 .55-.24 2.05 2.05 0 0 1 .43 0 .74.74 0 0 1 .34.17.83.83 0 0 1 .23.37 2.18 2.18 0 0 1 .08.66.66.66 0 0 0 0 .16 1.49 1.49 0 0 0 0 .17 2 2 0 0 1 0 .21A5.78 5.78 0 0 1 58.21 9a2.68 2.68 0 0 1 1.57-.48 1 1 0 0 1 1.18 1 1.11 1.11 0 0 1-.15.6 1.12 1.12 0 0 1-.42.39 2.34 2.34 0 0 1-.62.23l-.77.12a3.68 3.68 0 0 0-1.2.45 1.71 1.71 0 0 0-.76.83v3.47L57 17.54a2.7 2.7 0 0 1-.11.74 1.13 1.13 0 0 1-.22.4.53.53 0 0 1-.29.17h-.32a.9.9 0 0 1-.75-.25 2.36 2.36 0 0 1-.31-1.04zm8.48-12.78a1.23 1.23 0 0 1 .85.36 1.13 1.13 0 0 1 .39.86 1.07 1.07 0 0 1-.4.83 1.33 1.33 0 0 1-.9.35 1.14 1.14 0 0 1-.79-.35 1.15 1.15 0 0 1-.37-.83 1.1 1.1 0 0 1 .37-.83 1.2 1.2 0 0 1 .85-.39zm-.9 12.76q0-.74-.07-1.69t0-2.09v-2.43a14.58 14.58 0 0 1 .11-1.66 2.44 2.44 0 0 1 .29-1 .63.63 0 0 1 .56-.31.86.86 0 0 1 .6.24 1.57 1.57 0 0 1 .3 1q.12 2.1.12 4.06 0 1 0 1.87t-.08 1.91a3.6 3.6 0 0 1-.09.74 1 1 0 0 1-.19.4.47.47 0 0 1-.27.17 1.76 1.76 0 0 1-.35 0 .8.8 0 0 1-.6-.25 1.77 1.77 0 0 1-.33-.96zm7.9-9.2a10 10 0 0 1 1.06.07 6.07 6.07 0 0 1 1.22.26 3.12 3.12 0 0 1 1 .53 1.06 1.06 0 0 1 .42.86.83.83 0 0 1-.17.52.63.63 0 0 1-.53.22 2.52 2.52 0 0 1-.59-.08l-.72-.19q-.39-.11-.84-.19a5.48 5.48 0 0 0-.95-.08 3.11 3.11 0 0 0-1.37.26.86.86 0 0 0-.53.82.79.79 0 0 0 .19.54 1.7 1.7 0 0 0 .52.39 3.85 3.85 0 0 0 .78.29l1 .24q.62.16 1.23.36a3.91 3.91 0 0 1 1.09.55 2.76 2.76 0 0 1 .78.88 2.63 2.63 0 0 1 .3 1.31 2.82 2.82 0 0 1-1.12 2.35 5.31 5.31 0 0 1-3.3.87 11 11 0 0 1-1.14-.07 6 6 0 0 1-1.24-.26 2.87 2.87 0 0 1-1-.54 1.16 1.16 0 0 1-.41-.93.88.88 0 0 1 .19-.61.61.61 0 0 1 .47-.21.93.93 0 0 1 .46.14q.24.14.58.3a5.64 5.64 0 0 0 .82.3 4.26 4.26 0 0 0 1.18.14h.68a3.33 3.33 0 0 0 .83-.17 2.1 2.1 0 0 0 .7-.39.89.89 0 0 0 .29-.71 1 1 0 0 0-.2-.61 1.7 1.7 0 0 0-.58-.5 4.15 4.15 0 0 0-.79-.31l-.95-.27q-.58-.16-1.17-.36a4.52 4.52 0 0 1-1.07-.52 2.58 2.58 0 0 1-.78-.81 2.28 2.28 0 0 1-.3-1.21 2.92 2.92 0 0 1 .28-1.27 3.06 3.06 0 0 1 .8-1 3.71 3.71 0 0 1 1.25-.68 5.2 5.2 0 0 1 1.63-.23zm10.36 2.22a3.79 3.79 0 0 0-1.33.22 12.59 12.59 0 0 0-1.33.6v6.24a6.44 6.44 0 0 1-.09.66 1.1 1.1 0 0 1-.12.35.27.27 0 0 1-.19.13h-.26a3.52 3.52 0 0 1-.53 0 .58.58 0 0 1-.31-.14.62.62 0 0 1-.17-.33 5.33 5.33 0 0 1-.09-.6q0-.38-.07-1t0-1.5V7.56q0-1 0-1.7t-.09-1.06a3.12 3.12 0 0 1 .19-.9.64.64 0 0 1 .67-.38.83.83 0 0 1 .65.28 1.79 1.79 0 0 1 .29 1.06q0 .7.07 1.95t.05 2.81a3.62 3.62 0 0 1 .68-.41 5.76 5.76 0 0 1 .84-.32 8.27 8.27 0 0 1 .9-.21 5.09 5.09 0 0 1 .86-.08 3.05 3.05 0 0 1 1.67.45 3.15 3.15 0 0 1 1.13 1.29 4.77 4.77 0 0 1 .42 1.19 10.85 10.85 0 0 1 .2 1.37v4.19a4.54 4.54 0 0 1-.11.88 1.26 1.26 0 0 1-.29.58.73.73 0 0 1-.56.21.9.9 0 0 1-.77-.33 1.27 1.27 0 0 1-.15-.75v-3.99s0-.5-.08-.75-.08-.5-.13-.73a3.7 3.7 0 0 0-.2-.63 1.47 1.47 0 0 0-.7-.84 2.26 2.26 0 0 0-1.05-.18zm7.46-5.78a1.23 1.23 0 0 1 .85.36 1.13 1.13 0 0 1 .39.86 1.07 1.07 0 0 1-.4.83 1.33 1.33 0 0 1-.9.35 1.14 1.14 0 0 1-.79-.35 1.15 1.15 0 0 1-.37-.83 1.1 1.1 0 0 1 .37-.83 1.2 1.2 0 0 1 .85-.39zm-.9 12.76q0-.74-.07-1.69t0-2.09v-2.43a14.58 14.58 0 0 1 .11-1.66 2.44 2.44 0 0 1 .29-1 .63.63 0 0 1 .56-.31.86.86 0 0 1 .6.24 1.57 1.57 0 0 1 .3 1q.12 2.1.12 4.06 0 1 0 1.87t-.08 1.91a3.6 3.6 0 0 1-.09.74 1 1 0 0 1-.19.4.48.48 0 0 1-.27.17 1.76 1.76 0 0 1-.35 0 .8.8 0 0 1-.6-.25 1.77 1.77 0 0 1-.33-.96zm9.08-7.28a3.5 3.5 0 0 0-1.33.24 8.24 8.24 0 0 0-1.33.72v4.86q0 .92-.08 1.54a5.83 5.83 0 0 1-.09.63.92.92 0 0 1-.14.35.38.38 0 0 1-.24.15 2.53 2.53 0 0 1-.78 0 .45.45 0 0 1-.25-.14.81.81 0 0 1-.24-.33 3.92 3.92 0 0 1-.1-.6c0-.24 0-.56-.07-1s0-.84 0-1.31v-4.45a10.37 10.37 0 0 1 .11-1.14 2.27 2.27 0 0 1 .32-1.06.69.69 0 0 1 .54-.22 1 1 0 0 1 .75.28 1.59 1.59 0 0 1 .31.92 6.45 6.45 0 0 1 1.59-1 4.25 4.25 0 0 1 1.75-.38 3.14 3.14 0 0 1 1.57.4A3 3 0 0 1 99.9 10a4.73 4.73 0 0 1 .42 1.19 10.66 10.66 0 0 1 .2 1.37v4.28a5.47 5.47 0 0 1-.11 1 1.31 1.31 0 0 1-.31.64.79.79 0 0 1-.6.23.84.84 0 0 1-1-.88v-4.37q0-.37-.08-.75t-.13-.73a3.7 3.7 0 0 0-.2-.63 1.47 1.47 0 0 0-.7-.84 2.26 2.26 0 0 0-.91-.25zm10.38 11.26a3.18 3.18 0 0 0 1.59-.37 2.82 2.82 0 0 0 1-1.06 5 5 0 0 0 .57-1.66 12.87 12.87 0 0 0 .17-2.19 3.13 3.13 0 0 1-.52 1.08 2.85 2.85 0 0 1-.79.71 3.29 3.29 0 0 1-1 .39 5.51 5.51 0 0 1-1.16.12 5.71 5.71 0 0 1-1.74-.26 3.75 3.75 0 0 1-1.43-.82 4 4 0 0 1-1-1.43 5.45 5.45 0 0 1-.36-2.09 6.46 6.46 0 0 1 .35-2.17 4.83 4.83 0 0 1 1-1.71 4.63 4.63 0 0 1 1.63-1.12 5.68 5.68 0 0 1 2.2-.4 5.13 5.13 0 0 1 1.17.12 4.15 4.15 0 0 1 .91.32 3.16 3.16 0 0 1 .71.48 5.51 5.51 0 0 1 .57.6 6.08 6.08 0 0 1 1.1 2.27 12.69 12.69 0 0 1 .34 3.15 17.49 17.49 0 0 1-.23 2.78 8.45 8.45 0 0 1-.83 2.57 5.13 5.13 0 0 1-1.66 1.88 4.69 4.69 0 0 1-2.72.73h-.67l-.76-.09a6.11 6.11 0 0 1-.77-.17 3.25 3.25 0 0 1-.7-.29 4.13 4.13 0 0 1-.64-.42.81.81 0 0 1-.24-.66 1.41 1.41 0 0 1 .17-.69.62.62 0 0 1 .59-.31 1 1 0 0 1 .44.12 6.1 6.1 0 0 0 .59.25 7.65 7.65 0 0 0 .84.25 5.07 5.07 0 0 0 1.28.09zm.1-4.8a2.82 2.82 0 0 0 1.33-.29 2.6 2.6 0 0 0 .9-.77 3.4 3.4 0 0 0 .52-1.08 4.39 4.39 0 0 0 .17-1.2 4.06 4.06 0 0 0-.13-1 2.77 2.77 0 0 0-.43-.93 2.19 2.19 0 0 0-.82-.68 3.29 3.29 0 0 0-3.43.54 3.18 3.18 0 0 0-.81 2.36 3.26 3.26 0 0 0 .72 2.26 2.53 2.53 0 0 0 2.02.79zm17.1-12.1a8.2 8.2 0 0 1 1.33.11 5.25 5.25 0 0 1 1.21.34 3 3 0 0 1 .89.56 1 1 0 0 1 .35.77.94.94 0 0 1-.24.7.81.81 0 0 1-.6.24 1.53 1.53 0 0 1-.6-.11l-.59-.23a5 5 0 0 0-.81-.27 5.44 5.44 0 0 0-1.22-.11 2.91 2.91 0 0 0-1.45.39 3.86 3.86 0 0 0-1.2 1.08 5.58 5.58 0 0 0-.81 1.63 6.68 6.68 0 0 0-.3 2 7 7 0 0 0 .35 2.34 4.84 4.84 0 0 0 .91 1.61 3.64 3.64 0 0 0 1.27.94A3.54 3.54 0 0 0 124 17a4.92 4.92 0 0 0 1.44-.18 5.6 5.6 0 0 0 1-.4l.71-.4a1.13 1.13 0 0 1 .58-.18.75.75 0 0 1 .54.19.9.9 0 0 1 .2.67 1.35 1.35 0 0 1-.31.81 2.85 2.85 0 0 1-.9.74 5.83 5.83 0 0 1-1.41.54A7.4 7.4 0 0 1 124 19a6 6 0 0 1-2.23-.44 5.8 5.8 0 0 1-2-1.31 6.59 6.59 0 0 1-1.39-2.25 8 8 0 0 1-.54-3 9.11 9.11 0 0 1 .49-3.1 6.93 6.93 0 0 1 1.34-2.31 5.75 5.75 0 0 1 2-1.45 5.9 5.9 0 0 1 2.39-.52zm6.3 13V6.52a15 15 0 0 1 .11-1.68 2.45 2.45 0 0 1 .29-1 .63.63 0 0 1 .56-.31.91.91 0 0 1 .6.22 1.48 1.48 0 0 1 .3 1q.08 1.44.1 3t0 3v5.02q0 .84-.06 1.74a3.66 3.66 0 0 1-.09.74 1 1 0 0 1-.19.4.48.48 0 0 1-.27.17 1.77 1.77 0 0 1-.35 0 .8.8 0 0 1-.6-.25 1.76 1.76 0 0 1-.4-.95zm6.12-7.9v2.81q0 .81.13 1.62a6 6 0 0 0 .39 1.45 2.65 2.65 0 0 0 .7 1 1.91 1.91 0 0 0 2.34 0 2.65 2.65 0 0 0 .7-1 6 6 0 0 0 .35-1.45q.1-.81.13-1.62t0-1.55V9.72a1.06 1.06 0 0 1 1-1.24.76.76 0 0 1 .56.2 1.19 1.19 0 0 1 .29.56 4.36 4.36 0 0 1 .11.86v1.12q0 1.28-.13 2.65a9.18 9.18 0 0 1-.58 2.51 4.64 4.64 0 0 1-1.33 1.88 4.14 4.14 0 0 1-4.72 0 4.63 4.63 0 0 1-1.33-1.88 9.11 9.11 0 0 1-.58-2.51q-.13-1.37-.13-2.65V10.1a4.21 4.21 0 0 1 .11-.86 1.17 1.17 0 0 1 .29-.56.76.76 0 0 1 .56-.2 1.06 1.06 0 0 1 1.14 1.24zm11.3-4.02q0 1.2-.07 2.51t-.17 2.55a3.08 3.08 0 0 1 .68-.93 3.63 3.63 0 0 1 .93-.63 4.91 4.91 0 0 1 1.07-.36 5.14 5.14 0 0 1 1.08-.12 4.34 4.34 0 0 1 1.69.33 4 4 0 0 1 1.38 1 4.39 4.39 0 0 1 .92 1.56 6.33 6.33 0 0 1 .33 2.13 6.32 6.32 0 0 1-.34 2.12 4.49 4.49 0 0 1-1 1.65 4.54 4.54 0 0 1-1.66 1.07 6.31 6.31 0 0 1-2.27.38 4.66 4.66 0 0 1-2.73-.7 4.18 4.18 0 0 1-1.47-1.87 8.69 8.69 0 0 1-.59-2.69q-.11-1.52-.11-3.18t.06-3q.06-1.36.18-2.2a2.18 2.18 0 0 1 .4-1.08.94.94 0 0 1 .74-.32.88.88 0 0 1 .54.15.84.84 0 0 1 .29.41 2.24 2.24 0 0 1 .11.59c.01.14.01.38.01.63zm3 5a3.28 3.28 0 0 0-1.11.19 2.59 2.59 0 0 0-.94.59 2.83 2.83 0 0 0-.65 1 4 4 0 0 0-.28 1.52 3.23 3.23 0 0 0 .75 2.31 2.64 2.64 0 0 0 2 .79 3.92 3.92 0 0 0 1.06-.15 2.56 2.56 0 0 0 1-.52 2.74 2.74 0 0 0 .72-1 3.74 3.74 0 0 0 .28-1.54 4 4 0 0 0-.23-1.42 2.71 2.71 0 0 0-.63-1 2.46 2.46 0 0 0-.92-.57 3.28 3.28 0 0 0-1.09-.2z" class="cls-1"/>
</svg>
