<svg xmlns="http://www.w3.org/2000/svg" width="401" height="270">
  <g fill="none" fill-rule="evenodd">
    <path fill="#6D673C" d="M395.735 76.115c-1.488.114-2.205 1.155-2.558 2.357-.382 1.3-.077 3.063.49 4.862.812 2.577 2.903 3.35 2.903 3.35s1.95-1.082 2.364-3.753c.288-1.86.324-3.65-.25-4.88-.53-1.13-1.395-2.05-2.883-1.94l-.06.01z"/>
    <path stroke="#231F20" stroke-width="1.002" d="M396.183 76.664c-1.49.113-2.205 1.154-2.558 2.356-.383 1.3-.077 3.064.49 4.863.812 2.576 2.903 3.35 2.903 3.35s1.95-1.083 2.364-3.754c.288-1.87.324-3.66-.25-4.88-.53-1.14-1.396-2.06-2.884-1.94h-.065z"/>
    <path fill="#6D673C" d="M278.485 117.69c-.446-1.424-1.62-1.888-2.872-1.96-1.353-.08-3.002.613-4.628 1.57-2.327 1.37-2.61 3.582-2.61 3.582s1.493 1.657 4.188 1.46c1.88-.14 3.633-.507 4.7-1.342.986-.772 1.687-1.822 1.24-3.246l-.018-.063z"/>
    <path stroke="#231F20" stroke-width="1.002" d="M278.05 118.25c-.445-1.424-1.62-1.888-2.87-1.96-1.354-.082-3.003.613-4.628 1.57-2.328 1.37-2.61 3.582-2.61 3.582s1.492 1.657 4.188 1.458c1.88-.138 3.633-.505 4.7-1.34.986-.772 1.686-1.823 1.24-3.247l-.02-.062z"/>
    <path fill="#6D673C" d="M11.485 132.69c-.446-1.424-1.62-1.888-2.872-1.96-1.353-.08-3.002.613-4.628 1.57-2.327 1.37-2.61 3.582-2.61 3.582s1.493 1.657 4.188 1.46c1.88-.14 3.633-.507 4.7-1.342.986-.772 1.687-1.822 1.24-3.246l-.018-.063z"/>
    <path stroke="#231F20" stroke-width="1.002" d="M11.05 133.25c-.445-1.424-1.62-1.888-2.87-1.96-1.354-.082-3.003.613-4.628 1.57-2.328 1.37-2.61 3.582-2.61 3.582s1.49 1.658 4.188 1.458c1.88-.138 3.633-.505 4.7-1.34.986-.772 1.686-1.823 1.24-3.247l-.02-.062z"/>
    <path fill="#6D673C" d="M21.49 32.984c1.232-.843 1.332-2.102 1.036-3.32-.32-1.317-1.465-2.69-2.855-3.966-1.99-1.825-4.18-1.45-4.18-1.45s-1.15 1.914-.17 4.433c.68 1.76 1.55 3.33 2.66 4.11 1.03.72 2.24 1.08 3.47.24l.06-.03z"/>
    <path stroke="#231F20" stroke-width="1.002" d="M20.827 32.733c1.233-.843 1.333-2.102 1.037-3.32-.318-1.317-1.465-2.69-2.855-3.966-2-1.825-4.19-1.45-4.19-1.45s-1.15 1.914-.17 4.433c.68 1.758 1.54 3.327 2.65 4.102 1.02.718 2.23 1.08 3.46.238l.05-.037z"/>
    <path fill="#2C9144" d="M186.387 14.016c5.253.483 12.084.93 17.225 7.132 1.506 1.818 6.53 6.96.206 12.247l1.83 2.208-.49.41-1.268 1.06-1.775-2.14c-6.323 5.284-10.502-.68-12.008-2.496-5.14-6.203-4.338-13.03-3.857-18.306l.137-.11z"/>
    <path stroke="#231F20" stroke-width="1.002" d="M185.562 15.328c5.252.483 12.084.93 17.225 7.133 1.506 1.82 6.528 6.96.205 12.25l1.83 2.21-.49.41-1.268 1.06-1.774-2.14c-6.324 5.29-10.503-.68-12.01-2.49-5.14-6.2-4.336-13.03-3.855-18.3l.137-.11zm14.878 18.095l-12.054-14.545m2.186-.14l-.26 2.464m2.335-.775l-.326 3.198m2.53-2.86l-.51 5.283m2.53-2.858l-.51 5.28m5.08-1.798l-.68 7.108m-1.86-6.862l-.41 4.123m-8.66-6.86l3.19.26m-1.25 4.4l5.27.45m-1.98 2.23l4.11.35" stroke-linecap="round" stroke-linejoin="round"/>
    <path fill="#2C9144" d="M329.962 80.134c-4.828 2.124-11.02 5.046-18.523 2.112-2.2-.86-9.09-2.922-6.12-10.61l-2.67-1.045.23-.59.59-1.54 2.59 1.01c2.97-7.69 9.51-4.5 11.71-3.64 7.5 2.94 10.11 9.3 12.25 14.14l-.07.17z"/>
    <path stroke="#231F20" stroke-width="1.002" d="M330.048 78.586c-4.828 2.124-11.02 5.046-18.523 2.112-2.198-.86-9.085-2.922-6.117-10.61l-2.67-1.045.23-.596.594-1.54 2.59 1.01c2.968-7.688 9.514-4.5 11.712-3.64 7.504 2.933 10.112 9.295 12.25 14.142l-.066.16zm-21.785-8.613l17.594 6.878m-1.844 1.19l-.968-2.28m-1.665 1.81l-1.266-2.95m-.82 3.73l-2.11-4.87m-.822 3.73l-2.11-4.87m-3.572 4.04l-2.85-6.54m4.954 5.1l-1.64-3.8m10.91 1.81l-2.917 1.32M318.1 69.8l-4.825 2.16m.655-2.91l-3.763 1.696" stroke-linecap="round" stroke-linejoin="round"/>
    <path fill="#2C9144" d="M19.115 158.29c1.826-4.95 4.024-11.433 11.347-14.793 2.146-.985 8.414-4.505 11.883 2.97l2.606-1.195.27.58.7 1.498-2.52 1.16c3.47 7.476-3.37 9.97-5.52 10.954-7.32 3.36-13.71.817-18.68-1.013l-.07-.16z"/>
    <path stroke="#231F20" stroke-width="1.002" d="M20.17 159.426c1.825-4.95 4.023-11.432 11.346-14.792 2.146-.985 8.414-4.505 11.883 2.97l2.6-1.194.27.575.69 1.5-2.53 1.16c3.47 7.475-3.38 9.97-5.52 10.953-7.33 3.36-13.71.817-18.68-1.013l-.08-.162zm21.327-9.688l-17.17 7.878m.433-2.146l2.312.886m-.145-2.454l3.005 1.142m-2.108-3.177l4.97 1.864m-2.11-3.17l4.97 1.87m-.424-5.37l6.69 2.5m-7.11.02l3.876 1.47m-8.876 6.59l1.076-3.01m3.924 2.35l1.796-4.97m1.637 2.49l1.396-3.88" stroke-linecap="round" stroke-linejoin="round"/>
    <path fill="#713F19" d="M152.585 26.297c4.792-2.24 8.757-1.072 11.71 1.285 2.95 2.357 2.047 4.31-.744 5.8-1.86.995-4.47 1.24-6.64 2.253-2.17 1.013-4.03 2.86-5.99 3.65-2.93 1.183-5 .62-4.89-3.166.11-3.79 1.78-7.59 6.57-9.83"/>
    <path fill="#E8CE9B" d="M152.756 31.786c2.396-1.12 5.412-1.02 6.888.16s1.024 2.155-.372 2.9c-.93.498-3.27 1.102-4.354 1.61-1.084.506-2.017 1.43-2.996 1.824-1.468.592-2.502.31-2.45-1.583.054-1.893.887-3.792 3.284-4.91"/>
    <path stroke="#211E1E" stroke-width="1.002" d="M154.247 26.38c4.792-2.238 8.757-1.07 11.71 1.286 2.95 2.357 2.047 4.31-.745 5.8-1.864.996-4.47 1.24-6.64 2.254-2.17 1.013-4.035 2.858-5.994 3.648-2.933 1.185-5.003.62-4.895-3.164.106-3.786 1.77-7.584 6.564-9.823z"/>
    <path stroke="#211E1E" stroke-width=".935" d="M165.046 29.62s-4.12-3.375-9.663-.784" stroke-linecap="round" stroke-linejoin="round"/>
    <path fill="#713F19" d="M348.585 146.297c4.792-2.24 8.757-1.072 11.71 1.285 2.95 2.357 2.047 4.31-.744 5.8-1.86.995-4.47 1.24-6.64 2.253-2.17 1.013-4.03 2.86-5.99 3.65-2.93 1.183-5 .62-4.89-3.166.11-3.79 1.78-7.59 6.57-9.83"/>
    <path fill="#E8CE9B" d="M348.756 151.786c2.396-1.12 5.412-1.02 6.888.16s1.024 2.155-.372 2.9c-.93.498-3.27 1.102-4.354 1.61-1.084.506-2.017 1.43-2.996 1.824-1.468.592-2.502.31-2.45-1.583.054-1.893.887-3.792 3.284-4.91"/>
    <path stroke="#211E1E" stroke-width="1.002" d="M350.247 146.38c4.792-2.238 8.757-1.07 11.71 1.286 2.95 2.357 2.047 4.31-.745 5.8-1.864.996-4.47 1.24-6.64 2.254-2.17 1.013-4.035 2.858-5.994 3.648-2.933 1.185-5.003.62-4.895-3.164.106-3.786 1.77-7.584 6.564-9.823z"/>
    <path stroke="#211E1E" stroke-width=".935" d="M361.046 149.62s-4.12-3.375-9.663-.784" stroke-linecap="round" stroke-linejoin="round"/>
    <path fill="#EEDAAE" d="M353.57 86.808c2.417-3.294 2.146-6.48.825-9.08-1.32-2.602-4.08-1.744-3.377.6.7 2.344-.36 4.023-1.454 5.513-1.095 1.5-2.378 3.01-4.815 3.03-2.44.02-2.44 2.92.42 3.42s5.97-.18 8.39-3.47"/>
    <path stroke="#211E1E" stroke-width=".935" d="M352.795 87.147c2.418-3.293 2.148-6.48.827-9.08-1.322-2.602-4.08-1.743-3.378.6.702 2.345-.36 4.024-1.453 5.514-1.09 1.5-2.37 3.01-4.81 3.03-2.44.02-2.44 2.92.43 3.42s5.98-.18 8.4-3.47z"/>
    <path stroke="#211E1E" stroke-width=".935" d="M351.988 78.44s1.907 3.64-.89 7.45l.026.02c-2.798 3.808-6.826 3.055-6.826 3.055" stroke-linecap="round" stroke-linejoin="round"/>
    <path fill="#EEDAAE" d="M89.683 39.145c.62 4.038 3.065 6.1 5.837 7.005 2.774.905 4.117-1.65 1.963-2.813-2.153-1.162-2.59-3.1-2.87-4.926-.28-1.82-.443-3.8 1.265-5.54 1.71-1.74-.34-3.79-2.718-2.11s-4.096 4.36-3.477 8.4"/>
    <path stroke="#211E1E" stroke-width=".935" d="M89.99 38.358c.62 4.038 3.064 6.1 5.837 7.005 2.774.905 4.116-1.652 1.963-2.814-2.154-1.17-2.59-3.1-2.87-4.93-.28-1.83-.444-3.81 1.265-5.55 1.71-1.74-.34-3.79-2.718-2.12s-4.097 4.36-3.477 8.4z"/>
    <path stroke="#211E1E" stroke-width=".935" d="M96.72 43.945s-3.925-1.227-4.64-5.898l-.032.004c-.716-4.67 2.666-6.98 2.666-6.98" stroke-linecap="round" stroke-linejoin="round"/>
    <path fill="#EEDAAE" d="M187.704 149.802c-3.942-1.077-6.82.318-8.774 2.483-1.955 2.166-.166 4.433 1.772 2.938 1.937-1.495 3.884-1.106 5.667-.62 1.78.49 3.65 1.144 4.55 3.412.89 2.27 3.59 1.23 3.03-1.623-.56-2.852-2.32-5.513-6.26-6.59"/>
    <path stroke="#211E1E" stroke-width=".935" d="M188.298 150.403c-3.94-1.077-6.82.317-8.774 2.482-1.955 2.166-.165 4.433 1.772 2.938 1.937-1.495 3.884-1.106 5.668-.618 1.785.488 3.657 1.143 4.55 3.41.892 2.27 3.598 1.23 3.038-1.622-.56-2.853-2.313-5.514-6.254-6.59z"/>
    <path stroke="#211E1E" stroke-width=".935" d="M180.457 154.278s2.717-3.087 7.275-1.84l.01-.03c4.558 1.245 5.298 5.277 5.298 5.277" stroke-linecap="round" stroke-linejoin="round"/>
    <path fill="#E2E166" d="M237.177 5.665c6.828-2.268 16.925-.18 23.087 11.144 6.276 11.53 6.437 16.53 12.61 23.8 7.76 9.14 15.992 22.32 17.022 32.57.944 9.38-2.69 20.19-23.565 26.71-20.87 6.51-29.97-.33-34.49-8.6-4.93-9.03-5.59-24.58-4.35-36.53.99-9.51-1.7-13.72-3.04-26.79-1.31-12.84 5.83-20.31 12.74-22.32"/>
    <path fill="#94B44E" d="M240.716 17.628c5.81-1.93 14.398-.153 19.64 9.48 5.34 9.813 5.477 14.065 10.728 20.25 6.6 7.775 13.605 18.993 14.482 27.71.802 7.982-2.29 17.182-20.05 22.724-17.757 5.542-25.496-.277-29.34-7.312-4.195-7.68-4.756-20.91-3.704-31.07.836-8.087-1.45-11.67-2.59-22.792-1.116-10.92 4.958-17.273 10.834-18.99"/>
    <path stroke="#231F20" stroke-width="1.503" d="M235.42 6.526c6.828-2.268 16.925-.18 23.087 11.144 6.276 11.534 6.437 16.532 12.61 23.803 7.76 9.14 15.992 22.326 17.022 32.572.94 9.383-2.69 20.197-23.57 26.712-20.88 6.514-29.97-.326-34.49-8.596-4.93-9.02-5.59-24.57-4.36-36.52.98-9.5-1.71-13.71-3.05-26.79-1.32-12.83 5.82-20.3 12.73-22.32"/>
    <path fill="#885F3B" d="M268.48 68.87c2.628 8.498-1.8 17.434-9.888 19.958-8.09 2.524-16.78-2.317-19.41-10.815-2.63-8.497 1.8-17.433 9.89-19.957 8.09-2.525 16.778 2.317 19.407 10.815"/>
    <path stroke="#231F20" stroke-width="1.503" d="M270.57 68.218c2.628 8.497-1.798 17.433-9.888 19.958-8.09 2.524-16.78-2.317-19.41-10.816-2.63-8.497 1.8-17.433 9.89-19.956 8.09-2.525 16.778 2.317 19.407 10.814z"/>
    <path stroke="#231F20" stroke-width="1.002" d="M234.626 34.36c.135-2.212 2.555-2.893 3.86-.89m8.944-2.928c.134-2.21 2.554-2.892 3.86-.89" stroke-linecap="round" stroke-linejoin="round"/>
    <path fill="#211E1E" d="M252.382 64.285c-.302.642-1.064.918-1.703.615-.64-.302-.92-1.068-.62-1.71.3-.643 1.06-.917 1.7-.615.64.302.91 1.068.61 1.71m8.2.5c-.3.643-1.07.92-1.71.616-.64-.3-.92-1.06-.61-1.71.3-.64 1.06-.91 1.7-.61.64.31.91 1.07.61 1.71"/>
    <path stroke="#211E1E" stroke-width="1.002" d="M258.428 68.583s-3.24 3.523-5.992-.4" stroke-linecap="round"/>
    <path stroke="#231F20" stroke-width="1.002" d="M246.922 34.884c.004 2.382-3.376 3.527-4.913 1.466l4.91-1.466z" stroke-linecap="round" stroke-linejoin="round"/>
    <path fill="#4F5EA7" d="M159.66 137.902s.772-1.464.7-3.802c-2.33.33-4.2.584-5.658 2.524-2.2-1.014-3.967-.347-6.173.47 1.03 2.093 2.4 3.015 2.4 3.015"/>
    <path fill="#3D489D" d="M159.316 154.165c5.885-1.49 9.067-5.438 7.832-10.364-1.422-5.66-6.147-6.82-11.787-5.39-5.64 1.43-9.25 4.7-7.83 10.37 1.24 4.93 5.9 6.89 11.79 5.4"/>
    <path stroke="#231F20" stroke-width="1.503" d="M158.134 154.464c5.886-1.49 9.068-5.438 7.832-10.364-1.42-5.665-6.147-6.827-11.787-5.4-5.64 1.428-9.26 4.7-7.84 10.365 1.23 4.926 5.9 6.888 11.78 5.4z" stroke-linecap="round" stroke-linejoin="round"/>
    <path stroke="#231F20" stroke-width="1.503" d="M158.68 138.15s.77-1.464.7-3.8c-2.33.33-4.2.582-5.66 2.522-2.2-1.014-3.966-.347-6.172.47 1.04 2.093 2.41 3.015 2.41 3.015" stroke-linecap="round" stroke-linejoin="round"/>
    <path fill="#211E1E" d="M150.487 146.39c-.078.44-.497.734-.934.655-.438-.078-.73-.5-.65-.94.077-.438.495-.73.933-.652.438.08.73.498.65.938m8.777.24c-.078.44-.497.74-.934.66-.44-.08-.73-.5-.66-.94.08-.44.49-.73.93-.65.44.08.73.5.65.94"/>
    <path stroke="#211E1E" stroke-width="1.002" d="M155.273 148.578s.088.703-.503.692c-.59-.01-.777-.438-.84-.554-.217.24-.465.513-.823.523-.357.01-.71-.25-.6-.72" stroke-linecap="round" stroke-linejoin="round"/>
    <path fill="#4F5EA7" d="M127.912 20.1s1.257-.795 2.246-2.654c-1.967-.792-3.543-1.438-5.55-.58-1.263-1.785-2.942-2.06-5.03-2.418-.126 2.105.533 3.444.533 3.444"/>
    <path fill="#3D489D" d="M120.37 32.652c5.264 1.49 9.516-.158 10.753-4.565 1.423-5.067-1.75-8.106-6.794-9.535-5.05-1.43-9.34-.503-10.76 4.564-1.24 4.406 1.53 8.044 6.79 9.536"/>
    <path stroke="#231F20" stroke-width="1.503" d="M119.313 32.352c5.264 1.492 9.516-.158 10.754-4.564 1.423-5.067-1.75-8.106-6.795-9.535-5.044-1.43-9.33-.503-10.754 4.564-1.237 4.406 1.53 8.044 6.795 9.535z" stroke-linecap="round" stroke-linejoin="round"/>
    <path stroke="#231F20" stroke-width="1.503" d="M127.034 19.853s1.258-.796 2.247-2.656c-1.96-.792-3.54-1.438-5.54-.58-1.26-1.785-2.94-2.06-5.03-2.418-.12 2.1.54 3.44.54 3.44" stroke-linecap="round" stroke-linejoin="round"/>
    <path fill="#211E1E" d="M118.778 26.697c-.078.44-.497.733-.934.654-.438-.07-.73-.49-.65-.93.077-.44.495-.73.933-.65.438.08.73.5.65.94m8.778.24c-.08.44-.497.73-.934.66-.43-.08-.73-.5-.65-.94.08-.44.5-.73.94-.65.44.08.73.5.65.94"/>
    <path stroke="#211E1E" stroke-width="1.002" d="M123.564 28.884s.088.703-.503.692c-.59-.01-.77-.438-.84-.554-.21.24-.46.513-.82.524-.35.01-.71-.242-.6-.713" stroke-linecap="round" stroke-linejoin="round"/>
    <path fill="#C31F44" d="M313.815 48.775c4.29.507 8.547-1.812 11.652-6.696 2.8-4.41 5.49-10.48 6.487-16.99.986-6.43-4.43-9.78-12.814-11.07-8.382-1.3-14.55.26-15.536 6.68-.996 6.5-.25 13.11 1.102 18.15 1.5 5.59 4.864 9.09 9.11 9.9"/>
    <path stroke="#231F20" stroke-width="1.503" d="M315.24 48.995c4.29.507 8.547-1.812 11.652-6.696 2.8-4.41 5.49-10.48 6.487-16.99.98-6.43-4.44-9.78-12.82-11.07-8.39-1.3-14.55.26-15.54 6.69-1 6.5-.25 13.11 1.1 18.15 1.5 5.59 4.86 9.09 9.11 9.9z" stroke-linecap="round" stroke-linejoin="round"/>
    <path fill="#06A44E" d="M322.47 8.686l2.416.89-.656 3.432c7.83 1.21 9.118 6.37 9.487 8.31-3.31-2.142-6.318-2.45-8.43-3.306-.482 3.138-4.994 4.886-4.994 4.886l-.166-.025s-3.78-3.03-3.3-6.168c-2.27.178-5.23-.437-9.03.605.933-1.737 3.708-6.27 11.537-5.06l.402-3.47 2.57-.12.165.026z"/>
    <path stroke="#231F20" stroke-width="1.503" d="M321.032 8.105l2.415.89-.657 3.43c7.83 1.212 9.12 6.372 9.488 8.312-3.312-2.142-6.32-2.45-8.432-3.306-.48 3.14-4.992 4.89-4.992 4.89l-.167-.02s-3.78-3.03-3.298-6.17c-2.28.18-5.24-.43-9.04.61.93-1.74 3.7-6.27 11.53-5.06l.4-3.47 2.57-.12.16.03z" stroke-linecap="round" stroke-linejoin="round"/>
    <path fill="#211E1E" d="M312.632 39.574c-.113.63-.713 1.05-1.34.938-.628-.113-1.047-.716-.935-1.347.112-.63.713-1.05 1.34-.937.63.112 1.047.715.935 1.346m12.083.34c-.112.63-.713 1.05-1.34.94-.628-.114-1.047-.717-.935-1.348.113-.63.713-1.05 1.34-.937.63.11 1.047.71.935 1.34"/>
    <path stroke="#211E1E" stroke-width="1.002" d="M320.113 41.943s.16 1.266-.906 1.246c-1.066-.02-1.4-.79-1.515-1-.388.43-.836.92-1.48.94-.644.01-1.28-.44-1.082-1.29" stroke-linecap="round" stroke-linejoin="round"/>
    <path fill="#211E1E" d="M308.558 19.994s-1.287 2.465-.393 2.62c1.78.314 1.625-2.61.393-2.62m2.492 3.87s-1.29 2.465-.395 2.62c1.782.314 1.625-2.61.394-2.62m2.56-3.244s-1.29 2.464-.4 2.62c1.78.313 1.62-2.612.39-2.62m-5.88 5.346s-1.29 2.466-.4 2.622c1.78.312 1.62-2.613.39-2.622m2.49 3.664s-1.29 2.465-.4 2.62c1.78.314 1.62-2.61.39-2.62"/>
    <path fill="#F18E4D" d="M74.144 162.122c5.484 1.786 8.915-6.344 10.674-9.253 1.76-2.91 9.166-16.36 11.902-21.82 2.737-5.47 7.992-15.83 11.357-24.64 2.143-5.61-4.426-10.51-8.104-11.93-3.678-1.42-11.82-2.19-13.965 3.42-3.364 8.81-6.356 20.04-7.96 25.94-1.605 5.9-5.05 20.87-5.68 24.21-.627 3.34-3.49 11.69 1.776 14.05"/>
    <path fill="#1A5B34" d="M104.412 95.145l5.59-14.634c.847-2.22 10.208-8.88 11.097-11.63.89-2.75-1.87-2.35-3.54-1.36 2.54-3.26 6.56-7.29 4.25-9.21-1.42-1.18-2.7.04-3.7.96 2.3-4.13 3.52-7.53.71-8.65-2.85-1.05-4.2 2.29-5.24 6.91-.13-1.35-.27-3.12-2.11-3.19-3-.11-2.7 5.58-2.98 9.71-.59-1.85-2.37-4-3.54-1.36-1.18 2.65 1.35 13.89.5 16.11l-5.57 14.6"/>
    <path stroke="#231F20" stroke-width="1.503" d="M75.347 161.317c5.483 1.787 8.914-6.344 10.673-9.253 1.76-2.907 9.166-16.352 11.903-21.817 2.736-5.465 7.992-15.827 11.356-24.636 2.14-5.61-4.43-10.5-8.11-11.92-3.68-1.41-11.82-2.19-13.97 3.42-3.37 8.81-6.36 20.05-7.96 25.95-1.61 5.9-5.05 20.87-5.68 24.22-.63 3.35-3.49 11.7 1.77 14.05z"/>
    <path stroke="#231F20" stroke-width="1.503" d="M103.41 94.54L109 79.908c.847-2.223 10.208-8.885 11.097-11.64.89-2.753-1.862-2.347-3.537-1.362 2.543-3.258 6.558-7.288 4.252-9.215-1.416-1.18-2.694.04-3.694.96 2.304-4.13 3.526-7.53.71-8.65-2.843-1.06-4.195 2.29-5.236 6.91-.132-1.35-.27-3.12-2.11-3.19-2.998-.11-2.696 5.58-2.975 9.71-.59-1.86-2.365-4.01-3.537-1.36-1.173 2.65 1.35 13.89.502 16.11l-5.59 14.63" stroke-linecap="round" stroke-linejoin="round"/>
    <path stroke="#231F20" stroke-width="1.002" d="M87.66 110.37c1.41-1.848 3.916-1.018 3.886 1.496m3.004 4.48c-1.05 1.377-3.505.532-3.482-1.343l3.483 1.343zm1.928-2.556c1.41-1.847 3.916-1.016 3.886 1.497" stroke-linecap="round" stroke-linejoin="round"/>
    <path fill="#F18E4D" d="M99.09 173.248c5.382 2.08 9.24-5.857 11.153-8.665 1.913-2.81 10.025-15.837 13.05-21.147 3.022-5.31 8.824-15.374 12.652-23.99 2.44-5.49-3.86-10.728-7.456-12.34-3.6-1.614-11.69-2.825-14.13 2.665-3.83 8.62-7.42 19.68-9.34 25.48-1.92 5.81-6.16 20.57-6.96 23.88-.81 3.31-4.11 11.49 1.02 14.13"/>
    <path stroke="#231F20" stroke-width="1.503" d="M100.293 172.644c5.382 2.08 9.24-5.857 11.152-8.665 1.913-2.81 10.026-15.84 13.05-21.15 3.023-5.31 8.824-15.38 12.653-23.99 2.44-5.49-3.86-10.73-7.457-12.34-3.59-1.62-11.68-2.83-14.12 2.66-3.83 8.61-7.41 19.67-9.33 25.48-1.91 5.8-6.15 20.57-6.96 23.87-.8 3.3-4.11 11.49 1.03 14.12z"/>
    <path fill="#2A4431" d="M131.566 106.508l6.127-13.785c.93-2.093 9.288-3.922 10.28-6.527.99-2.605-1.757-2.393-3.46-1.55 2.654-2.984 6.8-6.617 4.586-8.633-1.36-1.238-2.68-.14-3.71.68 2.45-3.847 3.8-7.05 1.04-8.322-2.78-1.21-4.26 1.94-5.47 6.34-.08-1.32-.15-3.03-1.97-3.22-2.97-.31-2.9 5.22-3.34 9.2-.52-1.83-2.19-4.03-3.46-1.55-1.27 2.48 1.99 9.52 1.06 11.62l-6.13 13.79"/>
    <path stroke="#231F20" stroke-width="1.503" d="M131.967 107.53l6.36-14.314c.967-2.174 9.404-4.18 10.44-6.882 1.035-2.702-1.736-2.445-3.46-1.55 2.713-3.118 6.937-6.926 4.737-8.975-1.35-1.26-2.69-.11-3.74.75 2.522-4.01 3.923-7.33 1.17-8.61-2.78-1.21-4.31 2.06-5.597 6.62-.06-1.36-.1-3.13-1.936-3.3-2.98-.28-2.99 5.42-3.48 9.53-.49-1.89-2.14-4.13-3.46-1.55-1.31 2.57 1.88 9.79.91 11.96-.96 2.17-6.36 14.31-6.36 14.31" stroke-linecap="round" stroke-linejoin="round"/>
    <path stroke="#231F20" stroke-width="1.002" d="M115.515 122.348c1.505-1.77 3.964-.805 3.8 1.703m2.617 4.76c-1.122 1.32-3.53.34-3.406-1.53l3.406 1.53zm2-2.63c1.505-1.77 3.964-.8 3.8 1.71" stroke-linecap="round" stroke-linejoin="round"/>
    <path stroke="#211E1E" stroke-width="1.002" d="M129.944 122.853s1.688 1.905 4.067 1.79" stroke-linecap="round"/>
    <path fill="#FEFEFE" d="M133.135 126.144s-1.1.486-2.488-.874"/>
    <path stroke="#231F20" stroke-width="1.002" d="M133.135 126.144s-1.1.486-2.488-.874" stroke-linecap="round" stroke-linejoin="round"/>
    <path stroke="#211E1E" stroke-width="1.002" d="M81.448 114.198s.38 2.742 3.322 3.43m-4.323.192s1.636 2.742 5.875 3.915m20.978 8.363s1.066 2.198 2.85 2.73M86.458 98.903s1.598 1.517 3.684 2.56" stroke-linecap="round"/>
    <path fill="#F3E266" d="M329.604 95.253c2.35 1.273.624 4.446.556 6.65-.07 2.204 4.965 6.706 4.907 15.47-.05 7.338-2.15 11.423-5.182 17.065-3.03 5.643-5.274 9.652-11.352 13.722-7.26 4.864-13.77 3.112-15.568 4.38-1.796 1.267-3.36 4.528-5.838 3.186-1.918-1.038-.622-4.445-.554-6.65.068-2.204-4.966-6.705-4.908-15.47.048-7.338 2.15-11.422 5.18-17.065 3.03-5.64 5.276-9.65 11.353-13.72 7.262-4.86 13.77-3.11 15.568-4.38 1.798-1.26 3.65-4.37 5.838-3.18"/>
    <path stroke="#211E1E" stroke-width="1.503" d="M331.652 96.362c2.35 1.273.623 4.446.555 6.65-.068 2.204 4.966 6.706 4.907 15.47-.05 7.338-2.15 11.423-5.182 17.065-3.03 5.642-5.274 9.652-11.352 13.722-7.26 4.86-13.77 3.11-15.568 4.37-1.796 1.27-3.36 4.53-5.838 3.18-1.918-1.04-.622-4.45-.554-6.65.068-2.21-4.967-6.71-4.908-15.47.048-7.34 2.15-11.43 5.18-17.07 3.03-5.65 5.276-9.65 11.354-13.73 7.26-4.87 13.77-3.11 15.567-4.38 1.798-1.27 3.65-4.37 5.84-3.19z"/>
    <path stroke="#231F20" stroke-width="1.002" d="M315.043 112.52c.714-2.097 3.227-2.108 3.958.17m7.18-.16c.72-2.096 3.23-2.107 3.96.17m-6.1 5.82c.04 1.063-.64 1.95-1.51 1.977-.86.028-1.6-.81-1.63-1.874-.03-1.062.64-1.948 1.51-1.976.87-.028 1.6.81 1.64 1.874z" stroke-linecap="round" stroke-linejoin="round"/>
    <path fill="#211E1E" d="M325.496 116.72c-.228.033-.438-.126-.47-.353-.032-.228.126-.44.352-.472.228-.033.438.126.47.354.033.22-.125.44-.352.47m-28.566 21.15c-.226.03-.436-.13-.468-.36-.033-.23.126-.44.352-.47.228-.04.438.12.47.35.033.23-.125.44-.353.47m0-3.08c-.22.03-.43-.13-.46-.36-.03-.23.13-.44.35-.47.23-.03.44.13.47.35.04.23-.12.44-.35.47m1.3 1.8c-.23.03-.44-.13-.47-.36-.03-.23.13-.44.36-.47.23-.03.44.12.47.35.04.23-.12.44-.35.47m.42-3.29c-.23.03-.44-.13-.47-.36-.03-.23.13-.44.35-.48.23-.03.44.12.47.35.03.23-.12.44-.35.47m-2.67-.59c-.22.03-.43-.13-.47-.36-.03-.23.13-.44.36-.47.23-.04.44.12.47.35.03.22-.13.44-.35.47"/>
    <path fill="#107741" d="M379.514 98.804c-.702-8.212-1.45-19.633 1.656-26.095 3.105-6.47 14.683-17.93 9.77-22.08-2.724-2.31-9.675 1.15-10.737 2.73 4.01-4.79 12.613-20.92 8.724-26.31-2.96-4.11-9.344.84-10.98 2.58-.007-5.97.55-17.94-7.19-17.28-7.738.66-5.158 12.37-4.154 18.25-1.907-1.44-9.036-5.22-11.257-.67-2.918 5.97 8.296 20.4 13.06 24.42-1.318-1.39-8.752-3.6-11.046-.86-4.136 4.93 9.217 14.25 13.372 20.08 4.156 5.84 5.357 17.22 6.06 25.43"/>
    <path fill="#EC2576" d="M377.94 98.742c13.247-1.142 20.712 7.792 21.684 19.187.96 11.21-7.89 16.72-11.126 20.58-3.508 4.18-6.475 8.02-5.157 23.43-1.31-15.42-4.89-18.69-9.05-22.21-3.84-3.26-13.5-7.17-14.45-18.39-.97-11.4 4.87-21.48 18.12-22.62"/>
    <path stroke="#231F20" stroke-width="1.503" d="M376.642 99.115c13.247-1.142 20.712 7.792 21.685 19.188.96 11.216-7.89 16.723-11.127 20.584-3.508 4.186-6.475 8.02-5.157 23.437-1.318-15.417-4.89-18.688-9.058-22.21-3.845-3.252-13.498-7.166-14.456-18.382-.98-11.394 4.86-21.474 18.11-22.617m1.34-.35c-.7-8.213-1.45-19.634 1.65-26.096 3.1-6.47 14.68-17.93 9.77-22.08-2.73-2.31-9.68 1.15-10.74 2.73 4.01-4.79 12.61-20.92 8.72-26.31-2.96-4.11-9.35.84-10.98 2.58-.01-5.97.55-17.94-7.19-17.28-7.74.66-5.16 12.37-4.16 18.25-1.91-1.44-9.04-5.22-11.26-.67-2.92 5.97 8.29 20.4 13.06 24.42-1.32-1.39-8.76-3.6-11.05-.86-4.14 4.93 9.21 14.25 13.37 20.08 4.16 5.84 5.36 17.22 6.06 25.43" stroke-linecap="round" stroke-linejoin="round"/>
    <path stroke="#231F20" stroke-width="1.002" d="M380.113 119.762s-2.73 3.27-5.977.515m-8.58-4.213c.692-3.406 4.6-3.933 6.193-.533" stroke-linecap="round" stroke-linejoin="round"/>
    <path stroke="#231F20" stroke-width=".935" d="M366.462 113.913s-1.176-.216-1.265-1.558m.513 3.147s-2.235-.474-2.378-2.153" stroke-linecap="round" stroke-linejoin="round"/>
    <path stroke="#231F20" stroke-width="1.002" d="M387.163 114.202c-1.26-3.238-5.202-3.087-6.194.533" stroke-linecap="round" stroke-linejoin="round"/>
    <path stroke="#231F20" stroke-width=".935" d="M385.904 112.237s1.123-.413.983-1.75m.03 3.188s2.12-.85 1.976-2.528" stroke-linecap="round" stroke-linejoin="round"/>
    <path stroke="#211E1E" stroke-width=".935" d="M368.652 101.245s12.317 2.236 17.75-.882m-20.847 2.812s4.035 1.564 8.95 1.564m-12.08 1.61s4.225 1.61 7.605 1.76"/>
    <path fill="#F6D137" d="M219.315 119.144c9.388 7.685 21.582 15.824 31.436 18.322 13.6 3.445 16.59 5.6 20.34 7.532 2.78 1.428 3.18 5.14 1.1 9.207-1.53 2.994-29.32 19.016-69.41-11.158-48.18-36.262-34.09-75.708-26.7-78.342 5.97-2.126 3.84-9.662 4.95-10.075 1.35-.498 5.59.084 6.82.27 1.23.188-3.83 6.184 1.19 8.77 8.97 4.625 6.45 7.5 8.44 21.437 2 13.963 14.27 28.322 21.87 34.037"/>
    <path stroke="#211E1E" stroke-width="1.503" d="M220.132 117.627c9.39 7.685 21.583 15.824 31.437 18.32 13.59 3.447 16.56 4.84 20.32 6.77 2.77 1.43 3.19 5.903 1.1 9.97-1.54 2.995-29.33 19.016-69.42-11.158-48.19-36.27-34.47-77.23-26.71-78.35 3.99-.58 2.28-8.36 3.39-8.78 1.34-.5 4.58-.85 5.81-.67 1.23.18-2.04 6.54.96 8.8 8.06 6.07 9.22 7.09 11.21 21.03 1.99 13.96 14.27 28.32 21.86 34.03z" stroke-linecap="round" stroke-linejoin="round"/>
    <path fill="#E4BE21" d="M210.43 128.365c2.65 3.207 5.84 6.203 7.897 8.578 3.7 4.274 11.82 7.82 15.66 9.42 4.837 2.183 11.53 3.22 15.795 3.663 5.882.61 6.84-.122 8.606.372 1.307.365 1.877-.3 1.645 1.132-.17 1.055-8.828 7.47-29.098-.975-11.135-4.64-17.22-10.01-20.3-14.587-3.66-5.435-4.72-8.3-3.937-9.404.876-1.234 1.936-.373 3.732 1.8"/>
    <path fill="#211E1E" d="M250.244 146.48c-.7.1-1.348-.388-1.447-1.09-.1-.704.388-1.354 1.087-1.454.7-.1 1.348.39 1.447 1.092.1.703-.38 1.354-1.08 1.453m11.48 2.93c-.7.1-1.35-.39-1.44-1.09-.1-.7.39-1.35 1.09-1.45.7-.1 1.35.39 1.45 1.09.1.7-.39 1.36-1.08 1.46"/>
    <path stroke="#231F20" stroke-width="1.002" d="M257.737 151.73s-3.538 2.322-5.84-1.24" stroke-linecap="round" stroke-linejoin="round"/>
    <path fill="#211E1E" d="M270.48 142.067c1.623-.734 2.99-.178 3.996 2.062 1.006 2.24 1.295 4.12-.79 5.07-1.624.73-2.99.18-3.996-2.06-1.007-2.25-1.295-4.13.79-5.08"/>
    <path fill="#5E286A" d="M66.48 10.41c11.456 5.296 10.7 20.4 7.377 30.86-2.113 6.656-5.547 12.863-7.772 21.505-1.33 5.166-3.475 12.78-5.37 21.34-3.334 15.053-13.973 49.654-44.334 35.62l.06-.127c-30.36-14.034-11.11-44.654-1.89-56.988 5.24-7.013 9.61-13.604 12.65-17.977 5.09-7.32 7.55-13.975 11.21-19.916 5.75-9.337 16.68-19.74 28.14-14.444l-.06.127z"/>
    <path stroke="#231F20" stroke-width="1.503" d="M68.484 10.41c11.456 5.296 10.7 20.4 7.377 30.86-2.11 6.656-5.54 12.863-7.77 21.505-1.33 5.166-3.47 12.78-5.37 21.34-3.33 15.053-13.97 49.654-44.33 35.62l.06-.127c-30.36-14.034-11.11-44.654-1.9-56.988 5.24-7.013 9.61-13.604 12.65-17.977 5.09-7.32 7.55-13.975 11.21-19.916 5.75-9.337 16.68-19.74 28.14-14.444l-.05.127z"/>
    <path fill="#87A475" d="M70.847 1.323l2.176 2.4-3.19 6.59c8.49 3.934 6.815 13.406 6.525 15.902-1.69-4.593-5.058-7.722-7.156-9.432-4.454 1.653-7.49 4.433-7.49 4.433l-.18-.084s.054-4.368-1.503-8.6c-2.66-.492-6.86-1.262-11.74.548 1.7-1.84 7.73-9.163 16.22-5.228L67.5 1l3.167.24.18.083z"/>
    <path stroke="#231F20" stroke-width="1.503" d="M72.45 1.927l2.176 2.4-3.19 6.59c8.49 3.934 6.816 13.406 6.525 15.902-1.69-4.6-5.05-7.73-7.15-9.44-4.45 1.65-7.49 4.43-7.49 4.43l-.18-.09s.06-4.37-1.5-8.6c-2.65-.49-6.86-1.26-11.73.54 1.7-1.84 7.74-9.16 16.23-5.23l2.98-6.85 3.17.24.18.08z" stroke-linecap="round" stroke-linejoin="round"/>
    <path fill="#231F20" d="M55.456 35.967c-.852-.255-1.336-1.157-1.082-2.013.255-.856 1.153-1.343 2.005-1.087.85.256 1.33 1.157 1.08 2.014-.26.86-1.15 1.35-2.01 1.09m13.83 6.24c-.86-.25-1.34-1.16-1.09-2.01.25-.85 1.15-1.34 2-1.08.85.26 1.33 1.16 1.08 2.02-.26.86-1.16 1.35-2.01 1.09"/>
    <path stroke="#231F20" stroke-width="1.002" d="M64.01 41.77c-1.413 1.66-4.442.427-4.287-1.927l4.287 1.926z" stroke-linecap="round" stroke-linejoin="round"/>
    <path fill="#491D59" d="M53.25 66.224c4.55 2.103 4.41 6.787 3.782 11.772-.347 2.763-.987 6.58-1.782 10.012-.716 3.084-2.646 8.138-4.262 10.816-3.16 5.236-8.263 14.293-17.63 10.812l.022-.05c-12.056-5.574-4.412-17.733-.752-22.63 2.08-2.785 3.814-5.402 5.02-7.14 2.022-2.904 3-5.548 4.452-7.906 2.284-3.71 6.625-7.84 11.174-5.736l-.023.05z"/>
    <g fill="#231F20">
      <path fill-rule="nonzero" d="M240.956 250.323c0-.35.55-.233.863 0 .22.18.34.455.33.74-.16.72-1.08 4.048-1.49 6.014l-.14.545c2.31-1.09 4.39-2.603 6.13-4.457 2.23-2.316 2.66-3.68 2.29-4.438-.57-1.206-4.49-1.05-7.18-.37-3.92 1.013-5.65 2.55-5.63 2.862.02.31-.45.17-.81-.14-.24-.17-.33-.48-.22-.74 2.39-2.06 5.39-3.29 8.55-3.49 4.35-.43 6.04.64 6.35 2.31.55 2.78-4.14 6.75-6.73 8.23 1.76-.23 3.54.02 5.17.72.64.33 1.09.94 1.2 1.65.11.71-.13 1.43-.64 1.94-1.09 1.27-2.42 2.31-3.92 3.05-1.22.69-2.54 1.19-3.92 1.46-.38.08-.77-.02-1.06-.27-.26-.24-.22-.53.14-.55 1.5-.39 2.95-.99 4.29-1.77 1.3-.66 2.46-1.56 3.41-2.65.79-1.09.88-1.95-.41-2.34-1.48-.32-3.01-.39-4.51-.21-1.08.06-2.11.42-3 1.03-.61 2.4-1.04 4.85-1.27 7.31 0 .6-.37.66-.77.48-.32-.09-.55-.34-.61-.66.12-.51 1.06-5.37 1.76-8.51l1.76-7.81zm10.96 11.892c-.603-.574-.9-1.395-.803-2.22.095-1.066.292-2.122.588-3.152.42-1.537.91-2.86 1.02-3.172.12-.31.47-.11.77.12.29.14.45.45.39.76-.36.9-.68 1.83-.94 2.76-.55 1.85-1.02 4.01-.53 4.31.49.29 1.61-1.55 2.81-3.58 1.2-2.02 2.3-4.05 2.67-4.81.16-.29.63-.13.94.18.22.17.33.45.28.72-.47 1.25-1.21 4.3-1.86 7.09.83-.66 1.7-1.26 2.61-1.81.68-.46 1.56-.55 2.32-.21.22.14.37.37.41.63 0 .26 0 .39-.37.27-.72-.22-1.5-.13-2.15.26-.8.44-1.55.99-2.21 1.62l-1.02.88c-.18.76-.4 1.52-.66 2.26-.42 1.4-1.17 2.67-2.2 3.72-.54.46-1.28.63-1.96.43-.45-.09-.82-.41-.99-.84-.17-.42-.1-.9.16-1.28.84-1.13 1.79-2.17 2.84-3.11.57-.54 1.18-1.07 1.79-1.59l.18-.64c.43-1.94.86-4.18.88-4.34-.39.81-.83 1.6-1.31 2.36-.52.91-1.18 1.73-1.96 2.43-.48.38-1.16.39-1.65.02zm.844 5.975c.797-.42 1.416-1.112 1.745-1.946.317-.628.585-1.28.804-1.947-.55.507-1.04.974-1.48 1.382-.62.58-1.17 1.23-1.65 1.94-.34.43-.08.85.59.62l-.02-.06zm27.902-25.204c.274.214.392.467 0 .545-1.612.85-3.108 1.9-4.45 3.12-2.1 1.57-3.968 3.41-5.55 5.49.384 1.02 1.002 1.94 1.804 2.69.78.74 1.68 1.33 2.666 1.75 2.628 1.13 5.51-.29 5.294-1.79 0-.4.255-.44.53-.25.326.3.455.75.333 1.17-.36 1.56-2.57 2.63-4.83 2.43-1.04-.09-2.05-.41-2.94-.93-1.15-.72-2.14-1.66-2.93-2.76-.32-.38-.58-.81-.75-1.28-.51 2.43-.76 4.9-.77 7.38.12.7-.29.72-.73.49-.36-.15-.62-.47-.69-.85 0 0 0-1.07 1.31-8.39.76-4.55 1.84-8.64 1.68-9.44 0-.44.35-.46.77-.25.35.17.6.51.64.9 0 .72-.9 3.9-1.74 7.79l.39-.56c1.33-1.68 2.87-3.19 4.59-4.49 1.33-1.22 2.86-2.21 4.53-2.93.28-.03.57.06.8.23z"/>
      <path fill-rule="nonzero" d="M286.74 249.117l.334-.623c.048-.107.142-.187.256-.217.114-.03.236-.008.332.06.376.154.607.534.568.935-.47 1.137-.8 2.327-.98 3.543-.216 1.323-.176 2.47.333 2.51.906-.61 1.592-1.488 1.96-2.51.655-1.125 1.225-2.296 1.707-3.504 0-.33.373-.25.55 0 .15.21.207.46.156.71-.355 1.03-.788 2.02-1.294 2.98-.357.75-.784 1.46-1.275 2.12-.25.48-.688.83-1.208.97s-1.08.07-1.54-.21c-.43-.4-.68-.94-.73-1.51-.09-.71-.02-1.43.19-2.12-.88 1.84-2.02 3.54-3.38 5.06-.32.43-.92.52-1.36.22-.53-.38-.83-.99-.81-1.63.19-1.43.58-2.83 1.15-4.16.42-1.42 1.33-2.65 2.57-3.48.92-.25 1.9.11 2.43.9zm-2.45 4.262c.705-1.15 1.41-2.38 1.96-3.49-.267-.39-.663-.66-1.118-.78-1.072.65-1.846 1.69-2.157 2.9-.744 1.45-1.184 3.04-1.294 4.67 1.13-.88 2.02-2.01 2.59-3.31h.02z"/>
      <path fill-rule="nonzero" d="M297.31 253.145c.152.53.405 1.025.744 1.46.28.417.75.666 1.255.662.31 0 .35.194.17.41-.23.228-.56.342-.88.31-.44-.033-.85-.22-1.16-.526-.44-.4-.79-.9-1-1.45-.82.74-1.79 1.31-2.85 1.66-.75.26-1.58.11-2.2-.39-.39-.38-.64-.89-.71-1.44-.06-.99.02-1.98.23-2.96.17-.89.39-1.94.63-2.92l-.67.18-.79.22c-.3.09-.62.02-.84-.19-.32-.25-.44-.64 0-.74l1.13-.25 1.45-.31.57-2.14.68-2.27c.01-.16.12-.3.28-.36.15-.05.32-.02.44.09.31.29.43.71.34 1.11 0 .37-.22 1.01-.43 1.79-.12.49-.3 1-.45 1.54l1.35-.21c.42-.04.85-.04 1.27 0 .25.03.48.13.68.28.22.16.22.33-.24.37l-1.51.26c-.61.1-1.28.25-1.96.41l-.39 1.31-.43 1.41c-.22.87-.37 1.76-.44 2.65-.21.69-.02 1.44.49 1.94.72 0 1.41-.25 1.96-.72.62-.43 1.21-.9 1.76-1.42-.1-.52-.14-1.05-.12-1.57.01-.94.17-1.87.49-2.76.26-.81.75-1.52 1.41-2.06.57-.44 1.38-.44 1.96 0 .36.31.59.73.67 1.19.08.78-.1 1.56-.53 2.22-.51.81-1.07 1.57-1.69 2.3-.14.35-.45.66-.74 1.01zm-.197-1.42l.43-.487c.408-.492.787-1.005 1.138-1.537.64-.67.91-1.62.71-2.53-.33-.4-1.04.18-1.59 1.41-.3.67-.5 1.38-.61 2.1-.06.34-.08.69-.07 1.03v.02zm13.96 2.588c-.59.322-1.305.32-1.894-.003-.59-.324-.97-.925-1.01-1.593.24-3.3.84-6.562 1.8-9.73.66-2.706 1.61-5.723 1.65-6.638 0-.37.41-.35.74-.18.38.15.6.55.55.95-.16.7-.95 2.88-2.3 8.13-.79 3.29-1.96 8.46-.83 8.37 1.41-.62 2.73-1.43 3.92-2.42 1.31-.96 2.61-1.95 3.35-2.59-.08-1.36.21-2.72.84-3.93.41-1.15 1.25-2.1 2.35-2.65.44-.3 1.01-.33 1.48-.08.46.25.76.73.75 1.26-.26 1.11-.83 2.13-1.65 2.94-.81.94-1.68 1.84-2.59 2.68-.08.65.23 1.28.8 1.61.96.15 2.29-1.17 3.47-2.78 1-1.32 1.8-2.77 2.37-4.32 0-.33.31-.26.51 0 .17.15.25.38.21.6-.44 1.51-1.1 2.96-1.96 4.28-.79 1.47-2.1 2.59-3.67 3.17-1.17.23-2.31-.48-2.61-1.62-.43.39-.81.68-1.1.93-1.64 1.33-3.39 2.52-5.24 3.56zm9.157-9.05c.902-1.11 1.53-2.14 1.177-2.316-.82.163-1.486.75-1.745 1.538-.522.87-.924 1.806-1.196 2.783.568-.623 1.215-1.324 1.764-2.005z"/>
      <path fill-rule="nonzero" d="M330.623 240.144c.373.155.597.536.55.935-.09.4-.21.8-.354 1.18-.2.6-.51 1.32-.83 1.94-.32.62 0 1.73.39 1.61.73-.47 1.29-1.15 1.63-1.95.33-.57.61-1.16.86-1.77.14-.37.41-.33.57-.16.14.14.21.34.17.54-.17.64-.41 1.26-.71 1.85-.42.91-1.06 1.7-1.87 2.29-.31.19-.69.24-1.04.13-.35-.11-.63-.37-.77-.71l-.12-.23-.92 1.52c-.49.92-1.16 1.74-1.96 2.41-.38.2-.85.12-1.14-.2-.5-.53-.76-1.23-.73-1.95-.01-.86.08-1.72.25-2.57.21-1.19.52-2.37.9-3.52.1-.27.33-.27.59-.16.3.08.5.37.45.68-.27.88-.48 1.78-.65 2.69-.37 1.95-.67 3.89-.26 3.89.72-.67 1.31-1.47 1.72-2.36.35-.6.72-1.29 1.08-1.95l.49-1c.09-.66.23-1.31.43-1.94.12-.48.29-.94.53-1.37.1-.08.24-.11.37-.09.13.03.25.1.32.21z"/>
      <path fill-rule="nonzero" d="M333.603 244.854c-.3.765-.236 1.624.176 2.336.53.156 1.56-1.382 2.43-2.958.54-.96 1.01-1.963 1.39-2.998 0-.292.35-.214.55 0 .15.17.21.403.15.623-.32 1.007-.73 1.984-1.22 2.92-.48 1.298-1.35 2.42-2.49 3.21-.47.17-1 .088-1.39-.213-.66-.533-1.01-1.343-.96-2.18.05-.893.19-1.78.41-2.647.27-1.207.62-2.296.7-2.686.02-.1.09-.19.19-.24.1-.04.21-.04.31.01.42.09.69.5.6.92-.37 1.29-.67 2.59-.88 3.91zm1.47-8.836c.51.137.804.623.51.896-.52.265-1.116.34-1.686.214-.2-.063-.353-.224-.405-.426-.052-.202.005-.416.15-.567.426-.234.933-.277 1.392-.117h.04z"/>
      <path fill-rule="nonzero" d="M338.368 242.538c-.26.897-.47 1.806-.628 2.725.69-1.458 1.476-2.87 2.353-4.223.567-.996 1.343-1.858 2.275-2.53.385-.1.794.038 1.04.35.435.367.625.947.49 1.5-.304.896-.547 1.813-.726 2.743-.36.795-.295 1.716.176 2.452 1.004-.574 1.77-1.485 2.157-2.57.646-1.095 1.203-2.24 1.667-3.424.038-.09.118-.15.215-.18.097-.02.2 0 .275.07.23.21.308.53.196.82-.36 1.1-.82 2.16-1.373 3.18-.498 1.01-1.16 1.92-1.96 2.71-.253.27-.608.43-.98.43-.373 0-.73-.15-.98-.42-.542-.5-.84-1.21-.825-1.95.026-.9.19-1.79.49-2.64.36-.63.55-1.34.55-2.06-.334-.27-1.412 1.27-2.53 3.1-1.025 1.68-1.935 3.43-2.725 5.24 0 .14-.295.14-.57 0-.42-.18-.697-.59-.705-1.05 0-.54.392-1.95.765-3.44.372-1.5.862-3.08 1.04-3.53.175-.44.313-.17.51 0 .266.12.437.38.43.67-.118.35-.372 1.17-.627 2.08z"/>
      <path d="M349.29 238.198c-.586.607-.957 1.385-1.06 2.22.128.644.49 1.22 1.02 1.614 1.004.74 1.565 1.933 1.49 3.173-.166.794-.74 1.443-1.51 1.712-.51.196-1.044.32-1.588.37-.437.026-.876.026-1.314 0-.173 0-.34-.06-.47-.175-.213-.095-.386-.26-.49-.467 0-.117 0-.214.215-.214.99 0 1.968-.19 2.883-.56.638-.17 1.1-.72 1.157-1.38-.154-.72-.548-1.36-1.118-1.83-.856-.64-1.425-1.59-1.588-2.65.155-1.07.61-2.08 1.313-2.92.345-.51.846-.91 1.432-1.13.343-.01.67.14.882.41.235.27.314.57 0 .7-.502.28-.933.66-1.255 1.13z"/>
      <path fill-rule="nonzero" d="M82.843 227.816c-.784-1.09-1.55-2.225-2.294-3.406-.75-1.18-1.55-2.42-2.4-3.718-.85-1.297-1.82-2.796-2.9-4.495-1.09-1.7-2.39-3.646-3.92-5.84v13.274c0 1.17-.04 2.34-.12 3.51-.01.49-.07.97-.18 1.44-.07.29-.19.55-.38.78-.14.17-.32.29-.53.33-.23.03-.46.03-.69 0-.45.01-.87-.16-1.18-.48-.4-.62-.6-1.35-.55-2.08-.13-2.85-.2-5.71-.22-8.58-.02-2.86-.02-5.83 0-8.89v-4.09c0-.74.1-1.49.27-2.21.06-.37.27-.71.59-.93.31-.14.65-.21 1-.19.64.12 1.22.46 1.64.96.8.78 1.55 1.62 2.23 2.51.81 1.04 1.68 2.23 2.6 3.58.93 1.35 1.85 2.74 2.76 4.17.92 1.43 1.8 2.85 2.65 4.25l2.33 3.9v-14c.01-1.06.08-2.12.22-3.17.03-.56.21-1.11.51-1.59.27-.31.68-.49 1.1-.47.43 0 .85.15 1.17.43.43.56.64 1.25.59 1.95 0 .94.04 1.77.12 2.49v16.53c0 1.06-.04 2.18-.12 3.35-.01.49-.07.97-.18 1.44-.07.29-.2.55-.38.78-.13.17-.32.29-.53.33-.23.03-.46.03-.69 0-.41.01-.81-.12-1.13-.39-.53-.43-1.02-.91-1.45-1.44zm18.392-17.906c1.338-.012 2.668.22 3.922.68 2.298.847 4.095 2.667 4.902 4.964.46 1.287.68 2.645.66 4.01.02 1.5-.24 2.992-.77 4.398-.48 1.234-1.2 2.36-2.12 3.31-.92.914-2.01 1.63-3.22 2.1-1.29.503-2.67.754-4.06.74-1.45.03-2.89-.25-4.22-.817-1.17-.51-2.21-1.268-3.06-2.22-.87-.935-1.53-2.033-1.96-3.23-.43-1.253-.64-2.57-.63-3.892-.02-1.39.23-2.77.72-4.068.46-1.197 1.17-2.284 2.08-3.192.98-.936 2.16-1.647 3.45-2.082 1.37-.49 2.82-.73 4.27-.7zm-.43 16.62c.946.028 1.886-.165 2.744-.563.76-.34 1.43-.853 1.96-1.5.46-.656.78-1.397.96-2.18.22-.804.33-1.635.33-2.47 0-.836-.11-1.668-.34-2.472-.22-.707-.56-1.367-1.02-1.946-.47-.59-1.08-1.05-1.77-1.35-.81-.35-1.69-.51-2.57-.49-.92-.02-1.83.15-2.67.5-.75.31-1.42.78-1.96 1.38-.53.6-.92 1.31-1.16 2.08-.27.84-.4 1.72-.39 2.6-.03 1.68.54 3.32 1.63 4.61 1.06 1.2 2.62 1.85 4.23 1.77zm16.94-14.518v5.47c0 1.05.085 2.1.255 3.152.11.965.34 1.913.686 2.822.3.746.77 1.413 1.373 1.946 1.35 1.04 3.23 1.04 4.58 0 .6-.533 1.07-1.2 1.37-1.946.34-.91.57-1.857.68-2.822.13-1.05.21-2.102.25-3.153.04-1.05.04-2.05 0-3.01v-2.45c-.1-.58.05-1.18.43-1.64.37-.46.93-.74 1.53-.76.4-.02.8.12 1.09.39.28.31.48.68.57 1.09.13.55.2 1.11.21 1.68v2.18c0 1.66-.09 3.38-.26 5.16-.15 1.67-.53 3.32-1.14 4.88-.55 1.42-1.44 2.68-2.61 3.66-2.79 1.92-6.48 1.92-9.26 0-1.17-.98-2.07-2.24-2.61-3.66-.61-1.57-.99-3.21-1.14-4.88-.17-1.77-.26-3.49-.26-5.15v-2.18c.01-.56.08-1.12.21-1.67.08-.41.28-.79.56-1.09.3-.27.7-.41 1.1-.39.66-.09 1.32.15 1.78.62.45.48.65 1.14.54 1.79zm18.04 15.26c-.105-.91-.17-2.012-.197-3.31-.026-1.297-.026-2.867 0-4.71v-4.398c-.003-.99.063-1.978.196-2.96.022-.727.23-1.437.608-2.062.27-.308.667-.48 1.08-.467.28-.03.56-.03.842 0 .247.05.477.165.666.33.213.197.368.446.45.72.12.42.172.852.158 1.286-.012.11-.012.21 0 .32-.006.11-.006.22 0 .33.007.14.007.28 0 .41.72-.83 1.56-1.55 2.49-2.14.903-.62 1.98-.95 3.08-.93.577-.1 1.172.05 1.62.43.448.38.702.94.693 1.52.02.41-.08.82-.29 1.17-.2.32-.48.59-.82.76-.38.21-.79.36-1.21.45l-1.51.24c-.83.16-1.62.45-2.35.88-.66.36-1.19.93-1.49 1.62v6.76l-.08 3.75c0 .49-.07.97-.21 1.44-.09.29-.23.55-.43.78-.15.17-.35.29-.57.33h-.62c-.54.07-1.08-.11-1.47-.48-.36-.62-.57-1.31-.61-2.02zm16.627-24.874c.626.01 1.224.26 1.666.7.49.42.77 1.032.765 1.674-.002.628-.29 1.222-.784 1.616-.49.438-1.12.68-1.77.68-.59-.016-1.15-.26-1.55-.68-.46-.417-.72-1-.73-1.616-.01-.617.26-1.206.72-1.615.43-.467 1.03-.74 1.66-.76zm-1.765 24.834c0-.96-.046-2.057-.137-3.29-.092-1.232-.092-2.588 0-4.067v-4.73c.01-1.08.082-2.158.215-3.23.047-.682.24-1.346.57-1.946.227-.39.648-.62 1.097-.61.44 0 .86.16 1.177.46.41.56.62 1.25.58 1.94.15 2.72.23 5.35.23 7.9v3.64c0 1.13-.05 2.37-.16 3.71-.01.48-.07.97-.18 1.44-.07.28-.19.55-.38.78-.13.16-.32.28-.53.33-.23.02-.46.02-.69 0-.45.01-.87-.17-1.18-.49-.4-.55-.62-1.2-.65-1.87zm15.49-17.906c.695.01 1.39.055 2.08.137.81.086 1.613.256 2.39.506.712.22 1.377.57 1.962 1.03.52.39.83 1.01.82 1.67 0 .36-.11.72-.34 1.01-.26.3-.65.46-1.04.43-.39-.01-.78-.06-1.16-.16l-1.41-.37c-.51-.14-1.06-.27-1.65-.37-.62-.11-1.24-.16-1.87-.16-.92-.04-1.84.14-2.69.5-.65.26-1.06.9-1.04 1.59-.01.38.12.76.37 1.05.29.31.63.57 1.02.76.49.24 1 .43 1.53.56l1.96.47c.81.2 1.61.44 2.41.7.76.24 1.48.6 2.13 1.07.62.45 1.15 1.04 1.53 1.71.41.78.61 1.66.58 2.55.06 1.79-.76 3.49-2.2 4.57-1.91 1.26-4.19 1.85-6.47 1.69-.75-.01-1.5-.05-2.24-.14-.83-.08-1.64-.25-2.43-.51-.72-.22-1.39-.58-1.96-1.05-.54-.45-.83-1.12-.81-1.81-.03-.43.1-.85.37-1.19.23-.26.56-.41.92-.41.32.01.63.1.9.27.31.18.69.37 1.13.58.52.24 1.05.43 1.6.58.75.2 1.53.29 2.31.27h1.33c.55-.04 1.1-.16 1.63-.33.5-.17.97-.42 1.37-.76.39-.35.6-.86.57-1.38 0-.43-.14-.85-.4-1.19-.3-.41-.68-.74-1.13-.98-.49-.255-1.01-.46-1.55-.605l-1.86-.53c-.76-.21-1.52-.44-2.29-.7-.74-.25-1.45-.59-2.1-1.013-.62-.41-1.14-.945-1.53-1.58-.41-.72-.61-1.53-.58-2.36-.01-.85.18-1.7.55-2.47.37-.75.91-1.41 1.56-1.944.72-.597 1.56-1.046 2.45-1.326 1.04-.32 2.12-.47 3.2-.45zm20.314 4.32c-.88-.012-1.77.133-2.6.43-.89.338-1.76.728-2.61 1.167v12.145c-.03.43-.09.86-.17 1.284-.04.24-.12.47-.23.68-.08.137-.21.23-.37.254h-.51c-.34.026-.69.026-1.03 0-.23-.028-.44-.123-.61-.272-.17-.175-.29-.4-.33-.642-.08-.386-.14-.776-.17-1.168 0-.493-.04-1.142-.14-1.946-.09-.805-.09-1.778 0-2.92V204.5c0-.91-.06-1.596-.17-2.063.04-.6.17-1.19.38-1.752.23-.51.76-.81 1.32-.74.49-.016.95.184 1.27.545.4.612.6 1.334.57 2.063 0 .91.05 2.174.14 3.796.1 1.62.13 3.44.1 5.46.42-.32.86-.58 1.34-.8.53-.25 1.08-.46 1.65-.63.58-.17 1.17-.31 1.76-.41.56-.1 1.12-.15 1.69-.16 1.15-.03 2.29.27 3.27.87.96.62 1.73 1.48 2.22 2.51.38.73.66 1.51.83 2.31.19.88.32 1.77.39 2.66v8.15c-.01.58-.09 1.15-.21 1.71-.09.41-.29.8-.57 1.12-.29.28-.69.43-1.1.41-.58.04-1.143-.2-1.51-.64-.25-.45-.35-.96-.293-1.46v-7.76s0-.98-.16-1.46c-.156-.49-.156-.98-.254-1.42-.09-.42-.22-.83-.39-1.23-.225-.7-.72-1.29-1.37-1.64-.65-.27-1.352-.39-2.06-.35zm14.63-11.246c.63.01 1.23.26 1.67.7.49.42.77 1.032.77 1.674 0 .628-.29 1.222-.78 1.616-.48.438-1.11.68-1.76.68-.58-.016-1.14-.26-1.55-.68-.45-.417-.71-1-.72-1.616 0-.617.26-1.206.73-1.615.43-.47 1.03-.74 1.67-.76zm-1.76 24.834c0-.96-.04-2.057-.14-3.29-.09-1.232-.09-2.588 0-4.067v-4.73c.01-1.08.08-2.158.22-3.23.05-.682.24-1.346.57-1.946.23-.38.65-.61 1.1-.6.44 0 .86.17 1.18.47.42.57.62 1.25.59 1.95.16 2.73.24 5.36.24 7.9v3.64c0 1.13-.05 2.37-.16 3.72-.01.49-.07.97-.17 1.44-.06.29-.19.55-.37.78-.13.17-.32.29-.53.33-.22.03-.45.03-.68 0-.44.01-.87-.16-1.17-.48-.39-.54-.62-1.19-.64-1.86zm17.81-14.17c-.89-.013-1.77.146-2.6.468-.91.387-1.78.856-2.61 1.402v9.458c0 1.194-.05 2.193-.15 2.998-.03.41-.09.82-.17 1.226-.04.243-.13.475-.27.68-.11.155-.28.26-.47.293-.51.07-1.02.07-1.53 0-.19-.04-.36-.13-.49-.28-.21-.17-.37-.39-.47-.64-.1-.39-.16-.78-.2-1.17 0-.47 0-1.09-.14-1.95s0-1.64 0-2.55v-8.66c.03-.75.11-1.49.22-2.22.04-.73.25-1.44.63-2.07.27-.29.66-.45 1.06-.43.54-.03 1.08.16 1.47.54.39.52.6 1.14.61 1.79.94-.8 1.99-1.45 3.12-1.95 1.08-.49 2.25-.74 3.43-.74 1.08-.01 2.14.26 3.08.78.97.6 1.74 1.46 2.22 2.49.38.73.66 1.51.83 2.31.19.88.32 1.77.39 2.66v8.33c-.01.65-.09 1.3-.22 1.94-.08.46-.29.89-.61 1.24-.31.31-.74.47-1.18.45-.5.09-1.02-.04-1.41-.38-.38-.33-.59-.83-.55-1.33v-8.51c0-.48-.05-.97-.15-1.46-.11-.49-.19-.97-.26-1.42-.09-.42-.22-.83-.39-1.23-.23-.7-.72-1.29-1.37-1.64-.55-.29-1.16-.45-1.78-.49zm20.36 21.916c1.09.033 2.16-.215 3.12-.72.83-.505 1.5-1.217 1.96-2.063.57-1.003.94-2.097 1.12-3.23.24-1.41.35-2.836.34-4.263-.2.76-.54 1.473-1.02 2.102-.42.553-.95 1.02-1.55 1.382-.6.357-1.27.614-1.96.76-.74.156-1.51.234-2.27.232-1.16.007-2.31-.163-3.41-.506-1.04-.32-2-.864-2.8-1.596-.85-.773-1.52-1.723-1.96-2.783-.5-1.297-.74-2.68-.71-4.068-.01-1.436.22-2.864.69-4.223.42-1.232 1.09-2.365 1.96-3.328.9-.947 1.99-1.69 3.2-2.18 1.37-.54 2.84-.805 4.32-.778.77-.01 1.54.068 2.3.233.62.14 1.22.35 1.78.63.5.25.97.56 1.39.94.4.36.78.75 1.12 1.17 1.02 1.31 1.76 2.82 2.16 4.42.48 2.01.7 4.07.66 6.13 0 1.81-.15 3.62-.45 5.41-.27 1.75-.82 3.43-1.63 5-.76 1.47-1.88 2.73-3.25 3.66-1.59 1.01-3.45 1.5-5.33 1.42h-1.31l-1.49-.17c-.51-.07-1.01-.19-1.51-.33-.48-.13-.94-.32-1.37-.56-.44-.23-.86-.51-1.25-.82-.34-.33-.52-.8-.47-1.28-.01-.47.11-.93.33-1.34.24-.41.69-.64 1.16-.6.3.01.6.09.87.23.38.18.77.35 1.16.49.54.19 1.09.36 1.65.49.83.17 1.67.22 2.51.18zm.2-9.342c.91.026 1.8-.168 2.61-.564.7-.36 1.3-.87 1.77-1.5.46-.634.81-1.346 1.02-2.1.22-.76.33-1.546.33-2.337 0-.656-.09-1.31-.25-1.946-.16-.65-.45-1.26-.84-1.81-.42-.56-.97-1.02-1.61-1.32-2.26-.95-4.86-.54-6.72 1.05-1.14 1.26-1.71 2.91-1.59 4.6-.1 1.59.4 3.16 1.41 4.4 1.02 1.08 2.48 1.64 3.96 1.54h-.08zm33.53-23.55c.88 0 1.75.073 2.61.214.82.126 1.61.348 2.38.662.64.26 1.24.628 1.75 1.09.44.374.69.923.69 1.5.04.498-.13.99-.47 1.36-.31.312-.73.48-1.17.468-.4.008-.8-.065-1.18-.214l-1.16-.448c-.51-.22-1.04-.395-1.59-.525-.79-.16-1.59-.232-2.39-.214-1 0-1.98.27-2.84.76-.92.53-1.73 1.25-2.35 2.1-.7.97-1.24 2.04-1.59 3.18-.39 1.26-.59 2.58-.59 3.9-.03 1.55.2 3.09.69 4.56.39 1.15.99 2.21 1.79 3.14.69.79 1.54 1.41 2.49 1.83.89.45 1.86.71 2.85.76.96.02 1.91-.09 2.83-.35.68-.2 1.33-.46 1.96-.78l1.39-.78c.34-.22.73-.34 1.14-.35.39-.02.77.11 1.06.37.3.37.45.84.39 1.31-.02.58-.23 1.14-.6 1.58-.48.6-1.09 1.09-1.77 1.44-.87.47-1.8.83-2.76 1.06-1.19.29-2.4.43-3.63.41-1.5 0-2.98-.3-4.37-.85-1.47-.57-2.802-1.44-3.92-2.55-1.19-1.26-2.12-2.75-2.72-4.38-.725-1.86-1.084-3.84-1.06-5.83-.03-2.05.29-4.09.96-6.03.578-1.65 1.47-3.18 2.63-4.5 1.087-1.21 2.425-2.17 3.92-2.82 1.477-.66 3.07-1.01 4.69-1.01zm12.36 25.302v-21.604c.01-1.093.08-2.184.22-3.27.05-.68.24-1.345.57-1.946.23-.384.65-.615 1.1-.603.43-.003.85.15 1.18.428.43.556.64 1.248.59 1.946.11 1.87.17 3.82.2 5.84.03 2.03.03 3.97 0 5.84v9.77c0 1.09-.04 2.22-.11 3.39-.01.49-.07.97-.18 1.44-.06.29-.19.55-.37.78-.13.17-.32.29-.53.33-.22.03-.45.03-.68 0-.44.01-.87-.16-1.17-.48-.44-.52-.71-1.17-.78-1.85zm12-15.376v5.47c0 1.05.08 2.1.25 3.152.14.97.4 1.917.77 2.822.3.746.77 1.413 1.37 1.946 1.36 1.04 3.24 1.04 4.59 0 .61-.533 1.08-1.2 1.38-1.946.35-.91.58-1.857.69-2.822.13-1.05.22-2.102.26-3.153.04-1.05.04-2.055 0-3.016v-2.452c-.1-.585.06-1.185.43-1.647.38-.462.94-.74 1.53-.766.41-.025.8.116 1.1.388.29.306.48.683.57 1.09.13.55.2 1.11.22 1.674v2.18c0 1.66-.08 3.38-.25 5.157-.14 1.68-.52 3.32-1.13 4.89-.54 1.42-1.44 2.68-2.6 3.66-2.79 1.92-6.47 1.92-9.26 0-1.16-.98-2.06-2.24-2.6-3.66-.61-1.56-.99-3.21-1.13-4.88-.17-1.77-.26-3.49-.26-5.15v-2.18c.01-.56.09-1.12.22-1.67.09-.41.28-.78.57-1.09.3-.27.69-.41 1.1-.39.648-.05 1.28.19 1.72.66.44.47.63 1.12.516 1.76zm22.16-7.824c0 1.557-.04 3.186-.14 4.885-.09 1.7-.2 3.354-.33 4.963.33-.68.78-1.295 1.34-1.81.54-.5 1.16-.914 1.82-1.226.67-.313 1.37-.548 2.1-.7.7-.152 1.41-.23 2.12-.234 1.14-.008 2.27.21 3.32.642 1.03.448 1.96 1.112 2.71 1.946.81.877 1.42 1.91 1.81 3.037.46 1.336.68 2.738.65 4.146.02 1.4-.21 2.8-.67 4.12-.41 1.2-1.08 2.29-1.96 3.21-.92.92-2.03 1.63-3.26 2.08-1.42.51-2.93.76-4.45.74-1.88.1-3.75-.37-5.35-1.37-1.29-.91-2.3-2.18-2.88-3.64-.66-1.67-1.05-3.44-1.16-5.24-.14-1.97-.21-4.04-.21-6.19 0-2.16.04-4.1.12-5.84.08-1.77.2-3.19.36-4.28.06-.76.33-1.49.78-2.11.36-.42.9-.65 1.45-.63.38-.02.75.08 1.06.29.27.2.46.48.57.8.12.37.19.75.21 1.15.02.27.02.74.02 1.22zm5.88 9.732c-.74-.003-1.47.122-2.17.37-.69.245-1.32.637-1.84 1.148-.56.55-.99 1.215-1.27 1.946-.37.94-.56 1.946-.55 2.958-.11 1.632.41 3.244 1.47 4.496 1.03 1.042 2.46 1.6 3.92 1.538.71-.003 1.41-.1 2.08-.292.72-.19 1.39-.535 1.96-1.012.62-.534 1.1-1.2 1.41-1.947.4-.95.58-1.97.55-2.997.02-.94-.13-1.877-.45-2.764-.26-.73-.68-1.395-1.23-1.946-.51-.498-1.12-.877-1.8-1.11-.68-.248-1.41-.38-2.13-.388h.08z"/>
    </g>
  </g>
</svg>
