<svg id="Layer_1" data-name="Layer 1" xmlns="http://www.w3.org/2000/svg" width="16.59mm" height="53.12mm" viewBox="0 0 47.02 150.57">
  <defs>
    <style>
      .cls-1 {
        fill: #117741;
      }

      .cls-2 {
        fill: #ed2576;
      }

      .cls-3, .cls-4, .cls-5, .cls-6 {
        fill: none;
      }

      .cls-3, .cls-4, .cls-5 {
        stroke: #231f20;
        stroke-linecap: round;
        stroke-linejoin: round;
      }

      .cls-3 {
        stroke-width: 1.5px;
      }

      .cls-5 {
        stroke-width: 0.75px;
      }

      .cls-6 {
        stroke: #211f1f;
        stroke-miterlimit: 10;
        stroke-width: 0.5px;
      }
    </style>
  </defs>
  <title>radish</title>
  <g>
    <path class="cls-1" d="M237.34,385.86c-0.7-8.16-1.45-19.51,1.65-25.93s14.65-17.81,9.75-21.94c-2.72-2.29-9.66,1.14-10.72,2.72,4-4.75,12.59-20.78,8.71-26.14-3-4.08-9.33.83-11,2.57,0-5.93.55-17.83-7.18-17.17s-5.15,12.29-4.15,18.14c-1.9-1.43-9-5.19-11.24-.67-2.91,5.94,8.28,20.27,13,24.27-1.31-1.38-8.73-3.57-11-.85-4.13,4.9,9.2,14.16,13.35,20s5.35,17.11,6,25.27" transform="translate(-210.47 -299.16)"/>
    <path class="cls-2" d="M235.77,385.8c13.22-1.13,20.67,7.74,21.64,19.07,1,11.15-7.87,16.62-11.11,20.46-3.5,4.16-6.46,8-5.15,23.29-1.31-15.32-4.88-18.57-9-22.07-3.84-3.23-13.47-7.12-14.43-18.27-1-11.32,4.86-21.34,18.08-22.48" transform="translate(-210.47 -299.16)"/>
    <path class="cls-3" d="M234.48,386.17c13.22-1.13,20.67,7.74,21.64,19.07,1,11.15-7.87,16.62-11.11,20.46-3.5,4.16-6.46,8-5.15,23.29-1.31-15.32-4.88-18.57-9-22.07-3.84-3.23-13.47-7.12-14.43-18.27-1-11.32,4.86-21.34,18.08-22.48" transform="translate(-210.47 -299.16)"/>
    <path class="cls-3" d="M235.81,385.82c-0.7-8.16-1.45-19.51,1.65-25.93s14.65-17.81,9.75-21.94c-2.72-2.29-9.66,1.14-10.72,2.72,4-4.75,12.59-20.78,8.71-26.14-3-4.08-9.33.83-11,2.57,0-5.93.55-17.83-7.18-17.17s-5.15,12.29-4.15,18.14c-1.9-1.43-9-5.19-11.24-.67-2.91,5.94,8.28,20.27,13,24.27-1.31-1.38-8.73-3.57-11-.85-4.13,4.9,9.2,14.16,13.35,20s5.35,17.11,6,25.27" transform="translate(-210.47 -299.16)"/>
    <path class="cls-4" d="M237.94,406.69s-2.73,3.25-6,.51" transform="translate(-210.47 -299.16)"/>
    <g>
      <path class="cls-4" d="M223.41,403c0.69-3.39,4.59-3.91,6.18-.53" transform="translate(-210.47 -299.16)"/>
      <path class="cls-5" d="M224.32,400.88a1.63,1.63,0,0,1-1.26-1.55" transform="translate(-210.47 -299.16)"/>
      <path class="cls-5" d="M223.56,402.46s-2.23-.47-2.37-2.14" transform="translate(-210.47 -299.16)"/>
    </g>
    <g>
      <path class="cls-4" d="M245,401.16c-1.26-3.22-5.19-3.07-6.18.53" transform="translate(-210.47 -299.16)"/>
      <path class="cls-5" d="M243.72,399.21a1.63,1.63,0,0,0,1-1.74" transform="translate(-210.47 -299.16)"/>
      <path class="cls-5" d="M244.73,400.64s2.12-.84,2-2.51" transform="translate(-210.47 -299.16)"/>
    </g>
  </g>
  <path class="cls-6" d="M226.5,388.29s12.29,2.22,17.71-.88" transform="translate(-210.47 -299.16)"/>
  <path class="cls-6" d="M223.41,390.21a27.58,27.58,0,0,0,8.93,1.56" transform="translate(-210.47 -299.16)"/>
  <path class="cls-6" d="M220.29,393.37a29.78,29.78,0,0,0,7.59,1.75" transform="translate(-210.47 -299.16)"/>
</svg>
