<svg xmlns="http://www.w3.org/2000/svg" width="24" height="25">
  <path fill="#0F1421" d="M6.667.08C2.984.08 0 3.065 0 6.747v10.667c0 3.682 2.984 6.666 6.667 6.666h10.666c3.683 0 6.667-2.984 6.667-6.666V6.747C24 3.065 21.016.08 17.333.08H6.667zM20 2.747c.734 0 1.333.6 1.333 1.333 0 .735-.6 1.334-1.333 1.334-.734 0-1.333-.6-1.333-1.334 0-.734.6-1.333 1.333-1.333zm-8 2.667c3.682 0 6.667 2.984 6.667 6.666 0 3.683-2.985 6.667-6.667 6.667s-6.667-2.984-6.667-6.667c0-3.682 2.985-6.666 6.667-6.666zm0 2.666c-2.208 0-4 1.792-4 4 0 2.21 1.792 4 4 4s4-1.79 4-4c0-2.208-1.792-4-4-4z"/>
</svg>
