<?xml version="1.0" standalone="no"?>
<!DOCTYPE svg PUBLIC "-//W3C//DTD SVG 20010904//EN"
 "http://www.w3.org/TR/2001/REC-SVG-20010904/DTD/svg10.dtd">
<svg version="1.0" xmlns="http://www.w3.org/2000/svg"
 width="512.000000pt" height="512.000000pt" viewBox="0 0 512.000000 512.000000"
 preserveAspectRatio="xMidYMid meet">
<metadata>
Created by potrace 1.11, written by Peter Selinger 2001-2013
</metadata>
<g transform="translate(0.000000,512.000000) scale(0.100000,-0.100000)"
fill="#000000" stroke="none">
<path d="M1632 5009 c-89 -15 -237 -69 -314 -114 -166 -97 -312 -264 -389
-447 -109 -256 -116 -546 -23 -1048 14 -74 38 -205 54 -291 48 -256 55 -385
33 -617 -22 -243 -25 -765 -5 -947 61 -556 193 -908 431 -1145 304 -303 746
-380 1347 -235 269 65 485 143 704 256 397 204 626 469 702 813 17 78 19 116
15 266 -4 153 -9 189 -35 292 -112 426 -393 921 -809 1423 -165 199 -243 336
-393 685 -77 178 -215 458 -280 565 -177 293 -426 478 -723 539 -82 17 -229
19 -315 5z m398 -107 c228 -75 400 -214 552 -447 67 -102 216 -400 308 -615
132 -306 236 -490 367 -645 438 -518 747 -1072 834 -1495 31 -155 29 -349 -5
-485 -105 -407 -454 -698 -1086 -904 -151 -49 -330 -93 -477 -117 -152 -26
-436 -26 -553 -1 -243 53 -424 162 -571 345 -162 202 -264 487 -320 892 -30
221 -37 702 -15 965 30 352 21 484 -58 890 -45 235 -73 419 -86 581 -44 522
212 933 653 1050 81 21 108 24 227 20 118 -3 147 -7 230 -34z"/>
<path d="M2133 3847 c-30 -29 -36 -40 -37 -78 -1 -38 2 -44 21 -47 18 -3 24 4
33 37 18 67 68 80 124 31 57 -50 93 -12 41 44 -53 57 -127 62 -182 13z"/>
<path d="M1502 3665 c-56 -47 -70 -130 -22 -130 19 0 26 6 28 25 5 34 40 70
68 70 13 0 39 -14 58 -30 34 -31 66 -32 66 -3 0 76 -134 122 -198 68z"/>
<path d="M1945 3522 c-128 -40 -144 -54 -108 -94 69 -76 216 -59 265 32 10 19
17 49 16 65 -4 42 -28 41 -173 -3z m90 -52 c-19 -21 -70 -35 -102 -28 -11 3 7
13 47 26 36 11 67 21 69 21 2 1 -4 -8 -14 -19z"/>
<path d="M2392 2480 c-134 -25 -255 -82 -388 -186 -170 -133 -267 -274 -315
-459 -29 -112 -29 -289 0 -400 89 -337 357 -577 686 -614 137 -15 320 -7 400
19 274 87 466 285 547 565 20 68 23 102 22 230 0 134 -3 160 -28 240 -109 360
-407 597 -766 610 -58 2 -129 0 -158 -5z m235 -86 c-3 -3 -12 -4 -19 -1 -8 3
-5 6 6 6 11 1 17 -2 13 -5z m92 -20 c252 -74 453 -286 522 -549 28 -105 30
-281 5 -375 -35 -129 -100 -248 -184 -340 l-42 -45 47 70 c187 283 189 632 6
918 -94 147 -236 261 -403 323 -50 18 -14 17 49 -2z"/>
</g>
</svg>
